<svg width="240" height="126" viewBox="0 0 240 126" fill="none" xmlns="http://www.w3.org/2000/svg">
<rect width="240" height="126" fill="#4B7254"/>
<path d="M173.624 79.0733C174.503 80.3028 175.551 81.3636 176.683 82.4328C176.983 82.0936 177.261 81.78 177.568 81.4326C176.207 80.6185 174.916 79.846 173.624 79.0733ZM180 82.3843C179.879 82.5392 179.807 82.6983 179.684 82.7651C179.599 82.8118 179.423 82.7657 179.327 82.7016C178.971 82.4642 178.638 82.1891 178.278 81.9571C178.188 81.899 177.997 81.8996 177.908 81.9583C177.706 82.0915 177.531 82.2701 177.359 82.4443C177.002 82.8049 177.007 82.8161 177.35 83.2128C177.646 83.5566 177.938 83.9046 178.234 84.2489C178.4 84.4424 178.318 84.5758 178.142 84.7003C177.967 84.8244 177.886 84.7409 177.758 84.599C176.986 83.7413 176.19 82.9058 175.413 82.0526C174.48 81.0268 173.55 79.997 172.637 78.953C172.439 78.7268 172.29 78.4442 172.173 78.1643C172.129 78.0585 172.21 77.86 172.296 77.7555C172.343 77.6976 172.545 77.7024 172.633 77.7545C174.716 78.9916 176.795 80.2374 178.872 81.4859C179.155 81.6561 179.43 81.8411 179.696 82.0369C179.806 82.1171 179.881 82.2445 180 82.3843Z" fill="#F9F9F9"/>
<path d="M169.992 81.6857C171.068 82.4844 172.135 83.2632 173.187 84.0631C174.153 84.7977 175.114 85.5397 176.054 86.3077C176.606 86.7587 176.965 87.339 176.902 88.1C176.892 88.2196 176.876 88.3693 176.803 88.4456C176.713 88.5383 176.535 88.6387 176.438 88.6067C176.321 88.5685 176.164 88.3865 176.172 88.2783C176.238 87.4278 175.743 86.8671 175.165 86.4125C173.374 85.0031 171.549 83.638 169.735 82.2567C169.698 82.2277 169.651 82.2109 169.598 82.1831C169.51 82.3247 169.448 82.4838 169.335 82.5838C169.251 82.658 169.073 82.7125 168.987 82.6709C168.905 82.6324 168.816 82.41 168.855 82.3479C169.153 81.8737 169.47 81.411 169.811 80.9678C169.858 80.906 170.098 80.9274 170.192 80.9925C170.255 81.0362 170.25 81.2341 170.219 81.3474C170.189 81.4583 170.088 81.5496 169.992 81.6857Z" fill="#F9F9F9"/>
<path d="M167.311 84.9423C167.253 85.0131 167.211 85.1004 167.142 85.1396C167.056 85.1884 166.93 85.242 166.853 85.2119C166.775 85.1821 166.7 85.0571 166.686 84.9646C166.646 84.6895 167.241 83.7393 167.51 83.6733C167.626 83.645 167.808 83.6986 167.887 83.7838C167.946 83.8471 167.936 84.0785 167.871 84.1363C167.556 84.4138 167.723 84.5874 167.955 84.7826C169.447 86.0404 170.938 87.3004 172.426 88.5637C172.762 88.8493 173.085 89.1515 173.429 89.4597C173.523 89.3729 173.599 89.2506 173.703 89.2207C173.859 89.1756 174.033 89.1948 174.2 89.1867C174.202 89.3464 174.272 89.5615 174.195 89.6558C173.895 90.0255 173.564 90.3747 173.208 90.6901C173.113 90.7748 172.89 90.7124 172.725 90.7175C172.761 90.5654 172.749 90.3599 172.843 90.2719C173.1 90.0321 172.996 89.8842 172.788 89.7082C171.662 88.7583 170.531 87.8138 169.419 86.8479C168.752 86.2685 168.117 85.653 167.466 85.0549C167.421 85.0143 167.368 84.9832 167.311 84.9423Z" fill="#F9F9F9"/>
<path d="M169.828 93.6748C169.546 93.6718 169.061 93.4573 168.674 93.1244C167.71 92.294 166.773 91.4294 165.859 90.5433C165.324 90.0242 164.847 89.4427 164.355 88.8799C163.657 88.0815 164.059 86.5667 165.057 86.2229C165.169 86.1844 165.306 86.1561 165.414 86.1859C165.529 86.2172 165.67 86.3034 165.714 86.4037C165.747 86.4805 165.671 86.6369 165.6 86.7207C165.526 86.8086 165.406 86.8668 165.295 86.9138C164.779 87.134 164.544 87.67 164.766 88.1861C164.847 88.3747 164.959 88.5621 165.097 88.7124C166.016 89.7151 166.928 90.725 167.88 91.6957C168.376 92.2024 168.94 92.6498 169.644 92.8523C170.311 93.0439 170.676 92.8357 170.851 92.1741C170.854 92.1621 170.858 92.1503 170.861 92.1386C170.921 91.8662 170.983 91.5809 171.342 91.5981C171.544 91.6077 171.676 91.9843 171.62 92.3269C171.504 93.0448 170.789 93.6724 169.828 93.6748Z" fill="#F9F9F9"/>
<path d="M162.658 92.7555C162.425 92.0071 162.18 91.2617 161.963 90.5085C161.845 90.0961 161.766 89.6712 161.686 89.2489C161.654 89.075 161.672 88.8536 161.904 88.8701C162.03 88.8792 162.216 89.0292 162.253 89.1527C162.5 89.978 162.727 90.8098 162.934 91.6461C163.061 92.164 163.321 92.518 163.793 92.8067C165.204 93.6692 166.58 94.5915 167.965 95.4974C168.276 95.7011 168.312 95.9141 168.111 96.1244C167.936 96.3066 167.794 96.2605 167.613 96.1066C166.45 95.1226 165.271 94.16 163.934 93.4189C163.745 93.314 163.552 93.217 163.337 93.1037C163.328 93.6656 163.568 94.0681 163.889 94.4372C164.542 95.1892 165.196 95.9394 165.844 96.6956C165.954 96.8245 166.077 96.9686 166.117 97.1255C166.149 97.253 166.107 97.4533 166.02 97.5401C165.953 97.6058 165.717 97.5973 165.635 97.528C165.413 97.3397 165.219 97.1126 165.039 96.8812C164.081 95.6486 163.146 94.3971 162.17 93.1797C161.717 92.6154 161.189 92.1128 160.695 91.5826C160.553 91.4298 160.373 91.2979 160.278 91.1195C160.206 90.9842 160.243 90.7908 160.231 90.6233C160.399 90.6173 160.611 90.5444 160.727 90.62C160.957 90.7703 161.152 90.9878 161.33 91.2036C161.761 91.723 162.174 92.2574 162.593 92.7856L162.658 92.7555Z" fill="#F9F9F9"/>
<path d="M163.387 99.2073C163.391 99.9741 162.701 100.532 161.982 100.424C161.291 100.32 160.693 99.9786 160.235 99.4764C159.343 98.4987 158.489 97.4831 157.653 96.4557C157.205 95.9041 156.828 95.2934 156.412 94.7146C156.314 94.5775 156.196 94.4516 156.071 94.3374C155.901 94.182 155.842 94.009 155.983 93.818C156.13 93.618 156.326 93.6463 156.498 93.7843C156.63 93.8909 156.75 94.0187 156.853 94.1545C157.655 95.2117 158.406 96.3138 159.266 97.3207C159.931 98.0983 160.497 98.9976 161.408 99.5279C161.714 99.7059 162.077 99.8352 162.426 99.8746C162.809 99.9183 162.994 99.5945 162.855 99.2272C162.799 99.0787 162.728 98.9301 162.635 98.8024C161.928 97.8287 161.225 96.8507 160.498 95.892C159.711 94.8541 158.901 93.834 158.095 92.8108C157.923 92.593 157.928 92.3719 158.14 92.2351C158.339 92.1061 158.575 92.1658 158.704 92.3969C159.751 94.2814 161.298 95.7902 162.507 97.5527C162.77 97.9365 163.011 98.3372 163.238 98.7439C163.33 98.9102 163.358 99.1136 163.387 99.2073Z" fill="#F9F9F9"/>
<path d="M153.434 95.9649C153.933 96.8298 154.406 97.6514 154.899 98.5059C155.273 97.6478 154.353 96.0405 153.434 95.9649ZM155.393 99.2307C155.555 99.498 155.717 99.7652 155.879 100.032C156.468 100.999 157.057 101.965 157.642 102.933C157.761 103.129 157.939 103.345 157.625 103.526C157.346 103.686 157.229 103.472 157.112 103.277C155.687 100.905 154.265 98.5315 152.832 96.1646C152.659 95.8787 152.718 95.7238 153 95.5883C153.569 95.3144 154.077 95.4641 154.544 95.8151C155.235 96.3339 155.559 97.076 155.659 97.9057C155.722 98.4269 155.913 98.8529 156.284 99.1979C157.193 100.041 158.11 100.874 159.024 101.711C159.105 101.786 159.21 101.845 159.264 101.936C159.369 102.117 159.575 102.329 159.325 102.518C159.096 102.691 158.863 102.597 158.684 102.381C158.44 102.088 158.219 101.771 157.947 101.508C157.129 100.718 156.292 99.9493 155.463 99.172C155.44 99.1916 155.416 99.2112 155.393 99.2307Z" fill="#F9F9F9"/>
<path d="M150.243 98.0463C150.017 98.1888 149.853 98.3352 149.663 98.3976C149.529 98.4416 149.358 98.3708 149.203 98.3512C149.237 98.2214 149.229 98.0346 149.312 97.971C149.827 97.5799 150.354 97.2009 150.902 96.8587C150.997 96.7993 151.211 96.9337 151.371 96.9789C151.306 97.1289 151.272 97.3073 151.168 97.4209C151.068 97.529 150.897 97.57 150.752 97.6429C151.436 98.8878 152.096 100.118 152.785 101.331C153.343 102.314 153.937 103.276 154.511 104.249C154.61 104.418 154.732 104.59 154.766 104.776C154.792 104.914 154.736 105.125 154.637 105.211C154.571 105.268 154.339 105.2 154.23 105.12C154.11 105.031 154.036 104.872 153.961 104.733C152.862 102.717 151.769 100.699 150.668 98.685C150.552 98.4726 150.4 98.2804 150.243 98.0463Z" fill="#F9F9F9"/>
<path d="M149.647 107.725C149.603 107.675 149.429 107.563 149.417 107.434C149.408 107.345 149.608 107.165 149.735 107.142C150.471 107.008 150.595 106.854 150.548 106.09C150.497 105.261 150.15 104.561 149.574 103.999C149.013 103.452 148.392 102.969 147.802 102.453C147.12 101.857 146.5 101.215 146.315 100.275C146.221 99.7925 146.296 99.3354 146.621 98.957C146.858 98.6798 147.17 98.5349 147.538 98.6687C147.629 98.7012 147.759 98.8362 147.746 98.8965C147.723 99.0025 147.621 99.1372 147.521 99.173C146.997 99.3616 146.831 99.6361 146.981 100.189C147.183 100.935 147.683 101.475 148.252 101.954C148.72 102.349 149.219 102.709 149.679 103.113C150.514 103.844 151.118 104.721 151.244 105.865C151.359 106.912 150.707 107.737 149.647 107.725Z" fill="#F9F9F9"/>
<path d="M146.183 107.324C145.394 105.192 144.604 103.059 143.814 100.927C143.759 100.777 143.701 100.628 143.644 100.479C143.553 100.242 143.56 100.036 143.835 99.9366C144.132 99.8294 144.235 100.045 144.308 100.26C144.446 100.667 144.549 101.085 144.695 101.488C145.492 103.686 146.296 105.88 147.098 108.075C147.119 108.133 147.162 108.191 147.159 108.248C147.149 108.457 147.124 108.664 147.105 108.872C146.946 108.787 146.739 108.741 146.636 108.611C145.725 107.467 144.823 106.317 143.94 105.151C143.391 104.426 142.881 103.672 142.352 102.931C142.306 102.867 142.251 102.81 142.151 102.777C142.481 103.66 142.79 104.552 143.146 105.424C143.648 106.653 144.187 107.868 144.705 109.09C144.751 109.199 144.823 109.367 144.777 109.431C144.687 109.559 144.532 109.653 144.385 109.717C144.343 109.735 144.198 109.618 144.165 109.537C143.576 108.09 142.978 106.648 142.424 105.189C141.984 104.028 141.599 102.845 141.193 101.672C141.158 101.569 141.133 101.456 141.133 101.348C141.134 101.119 141.276 101.052 141.447 101.169C141.646 101.307 141.84 101.471 141.989 101.661C142.79 102.689 143.594 103.714 144.36 104.767C144.974 105.61 145.535 106.492 146.12 107.357C146.141 107.346 146.162 107.335 146.183 107.324Z" fill="#F9F9F9"/>
<path d="M137.605 103.573C137.864 105.905 138.558 108.086 139.829 110.064C139.926 110.216 140.065 110.349 140.208 110.461C140.578 110.754 140.877 110.633 140.909 110.166C140.931 109.85 140.939 109.517 140.871 109.211C140.63 108.132 140.402 107.047 140.077 105.993C139.76 104.961 139.381 103.938 138.682 103.086C138.485 102.846 138.241 102.616 137.899 102.735C137.559 102.853 137.619 103.184 137.606 103.462C137.604 103.499 137.605 103.536 137.605 103.573ZM138.062 102.004C138.318 102.13 138.603 102.218 138.824 102.39C139.533 102.939 139.859 103.749 140.178 104.551C140.822 106.171 141.204 107.866 141.494 109.578C141.559 109.962 141.452 110.413 141.308 110.786C141.115 111.286 140.598 111.456 140.152 111.162C139.783 110.92 139.437 110.592 139.188 110.227C138.51 109.234 138.099 108.107 137.763 106.958C137.477 105.979 137.219 104.99 136.999 103.994C136.921 103.644 136.945 103.252 137.009 102.896C137.109 102.341 137.473 102.082 138.062 102.004Z" fill="#F9F9F9"/>
<path d="M133.657 106.804C133.835 105.818 133.989 104.941 134.153 104.065C134.201 103.812 134.267 103.56 134.351 103.317C134.419 103.121 134.448 102.831 134.763 102.91C135.103 102.994 134.986 103.282 134.944 103.493C134.808 104.18 134.673 104.871 134.488 105.546C134.296 106.25 134.367 106.846 134.775 107.493C135.606 108.811 136.335 110.196 137.099 111.557C137.168 111.68 137.256 111.85 137.22 111.962C137.182 112.081 137.022 112.189 136.891 112.244C136.701 112.323 136.631 112.174 136.552 112.014C135.883 110.647 135.205 109.285 134.521 107.926C134.423 107.731 134.276 107.561 134.128 107.345C133.875 107.794 133.875 108.231 133.98 108.675C134.217 109.681 134.462 110.684 134.701 111.69C134.732 111.821 134.751 111.956 134.758 112.091C134.77 112.303 134.718 112.53 134.477 112.524C134.341 112.52 134.132 112.364 134.092 112.234C133.961 111.8 133.868 111.352 133.802 110.902C133.486 108.757 133.107 106.627 132.408 104.567C132.361 104.428 132.299 104.277 132.312 104.139C132.327 103.989 132.423 103.847 132.484 103.702C132.637 103.767 132.859 103.791 132.929 103.907C133.065 104.132 133.138 104.403 133.196 104.665C133.332 105.277 133.443 105.895 133.567 106.511C133.58 106.575 133.605 106.637 133.657 106.804Z" fill="#F9F9F9"/>
<path d="M123.505 109.137C123.867 109.083 124.224 109.028 124.631 108.967C124.525 107.56 124.42 106.165 124.315 104.77C124.709 104.745 124.863 104.848 124.91 105.24C124.993 105.937 125.042 106.638 125.108 107.337C125.292 109.325 125.478 111.312 125.663 113.299C125.67 113.373 125.707 113.465 125.676 113.517C125.587 113.67 125.493 113.898 125.359 113.933C125.109 113.999 125.054 113.759 125.036 113.551C124.942 112.422 124.851 111.292 124.755 110.162C124.733 109.906 124.697 109.651 124.665 109.381C124.586 109.367 124.516 109.346 124.446 109.342C123.585 109.295 123.529 109.357 123.635 110.213C123.757 111.203 123.881 112.193 123.993 113.184C124.019 113.416 124.124 113.715 123.82 113.818C123.764 113.836 123.511 113.499 123.476 113.303C123.274 112.165 123.068 111.024 122.944 109.876C122.775 108.321 122.676 106.758 122.557 105.198C122.548 105.092 122.597 104.912 122.663 104.887C122.77 104.848 122.938 104.872 123.035 104.938C123.11 104.988 123.142 105.14 123.152 105.251C123.255 106.49 123.35 107.73 123.45 108.97C123.453 109.017 123.479 109.061 123.505 109.137Z" fill="#F9F9F9"/>
<path d="M120.385 113.231C120.562 113.247 120.69 113.223 120.772 113.274C120.911 113.362 121.022 113.498 121.144 113.614C121.03 113.723 120.92 113.919 120.799 113.928C120.325 113.96 119.846 113.957 119.374 113.912C119.248 113.899 119.14 113.69 119.025 113.572C119.158 113.496 119.296 113.35 119.425 113.357C119.778 113.377 119.803 113.181 119.79 112.919C119.723 111.551 119.649 110.184 119.596 108.816C119.565 108.04 119.57 107.263 119.56 106.486C119.557 106.216 119.559 105.946 119.559 105.651C119.45 105.651 119.372 105.672 119.314 105.647C119.203 105.598 119.02 105.525 119.019 105.459C119.016 105.34 119.106 105.133 119.192 105.112C119.626 105.01 120.071 104.937 120.516 104.902C120.598 104.895 120.767 105.113 120.766 105.225C120.765 105.321 120.573 105.5 120.472 105.495C120.079 105.475 120.06 105.702 120.075 105.99C120.179 107.973 120.286 109.956 120.382 111.94C120.403 112.367 120.385 112.795 120.385 113.231Z" fill="#F9F9F9"/>
<path d="M114.356 106.421C114.29 108.194 114.221 109.967 114.159 111.74C114.139 112.294 114.132 112.849 114.126 113.404C114.122 113.719 113.916 113.764 113.678 113.75C113.396 113.733 113.453 113.527 113.466 113.339C113.512 112.663 113.552 111.987 113.593 111.31C113.719 109.232 113.843 107.154 113.972 105.076C113.979 104.967 114.002 104.851 114.049 104.754C114.149 104.543 114.311 104.503 114.425 104.722C114.567 104.992 114.704 105.278 114.768 105.573C115.171 107.437 115.556 109.305 115.941 111.172C116.012 111.516 116.059 111.865 116.172 112.213C116.188 112.134 116.213 112.056 116.219 111.977C116.375 109.751 116.529 107.525 116.683 105.298C116.692 105.163 116.662 105 116.726 104.9C116.81 104.768 116.961 104.611 117.098 104.596C117.343 104.569 117.425 104.784 117.405 105.001C117.359 105.49 117.279 105.976 117.241 106.466C117.071 108.703 116.913 110.941 116.745 113.178C116.728 113.409 116.696 113.644 116.628 113.863C116.599 113.957 116.467 114.051 116.365 114.074C116.317 114.085 116.194 113.942 116.168 113.851C115.914 112.952 115.641 112.057 115.436 111.146C115.083 109.576 114.775 107.995 114.448 106.419C114.418 106.42 114.387 106.421 114.356 106.421Z" fill="#F9F9F9"/>
<path d="M110.928 105.012C110.8 106.122 110.676 107.196 110.548 108.31C110.683 108.31 110.865 108.264 111.005 108.323C111.147 108.382 111.329 108.533 111.346 108.664C111.373 108.873 111.214 109.053 110.97 108.991C110.548 108.883 110.428 109.057 110.385 109.461C110.271 110.525 110.114 111.583 109.971 112.668C110.31 112.721 110.625 112.747 110.926 112.83C111.051 112.865 111.144 113.021 111.251 113.121C111.139 113.219 111.025 113.401 110.915 113.398C110.445 113.389 109.971 113.347 109.509 113.261C109.415 113.243 109.292 112.968 109.309 112.827C109.533 111.005 109.791 109.187 110.015 107.365C110.111 106.585 110.159 105.798 110.204 105.013C110.231 104.531 110.415 104.312 110.89 104.324C111.155 104.33 111.431 104.338 111.678 104.42C111.798 104.459 111.861 104.672 111.95 104.806C111.808 104.894 111.675 105.03 111.522 105.058C111.339 105.092 111.139 105.033 110.928 105.012Z" fill="#F9F9F9"/>
<path d="M105.763 110.416C105.823 110.296 105.864 110.237 105.884 110.171C106.521 108.141 107.16 106.112 107.785 104.077C107.867 103.81 108.022 103.698 108.265 103.748C108.529 103.801 108.499 104 108.43 104.208C107.606 106.696 106.789 109.186 105.961 111.673C105.861 111.975 105.722 112.266 105.581 112.552C105.541 112.633 105.429 112.679 105.35 112.741C105.286 112.645 105.185 112.556 105.167 112.453C105.135 112.273 105.147 112.084 105.152 111.899C105.225 109.137 105.296 106.374 105.382 103.612C105.386 103.493 105.531 103.378 105.61 103.261C105.698 103.37 105.847 103.471 105.863 103.589C105.914 103.967 105.942 104.352 105.932 104.733C105.884 106.533 105.821 108.333 105.763 110.133C105.761 110.204 105.763 110.275 105.763 110.416Z" fill="#F9F9F9"/>
<path d="M102.656 103.057C102.37 104.036 102.1 104.959 101.82 105.915C102.71 105.533 103.22 103.835 102.656 103.057ZM101.641 106.781C101.416 107.618 101.19 108.455 100.967 109.292C100.814 109.862 100.666 110.434 100.513 111.004C100.456 111.216 100.383 111.428 100.097 111.342C99.8316 111.261 99.8405 111.065 99.9036 110.836C100.64 108.144 101.377 105.451 102.099 102.755C102.191 102.409 102.366 102.389 102.635 102.499C103.244 102.746 103.482 103.25 103.531 103.865C103.6 104.727 103.269 105.463 102.734 106.1C102.428 106.463 102.29 106.864 102.289 107.315C102.287 108.337 102.305 109.358 102.32 110.38C102.325 110.7 102.361 111.02 102.363 111.34C102.364 111.71 102.2 111.933 101.979 111.896C101.74 111.856 101.602 111.572 101.654 111.248C101.892 109.764 101.751 108.278 101.641 106.781Z" fill="#F9F9F9"/>
<path d="M95.7085 109.169C95.9697 109.038 96.2378 108.961 96.4296 108.795C96.8068 108.468 97.1923 108.129 97.4837 107.728C98.1397 106.824 98.5635 105.801 98.8169 104.709C98.9697 104.052 99.0324 103.394 98.8193 102.738C98.6672 102.27 98.3806 101.93 97.8448 101.771C97.1344 104.231 96.4305 106.669 95.7085 109.169ZM99.6591 103.519C99.6553 104.33 99.328 105.196 99.0516 106.077C98.6917 107.224 98.0722 108.2 97.1702 108.974C96.7972 109.293 96.3516 109.566 95.8932 109.73C95.6278 109.825 95.2524 109.707 94.9613 109.594C94.7497 109.511 94.7067 109.314 94.8818 109.052C95.1433 108.66 95.3582 108.22 95.5065 107.772C95.7455 107.049 95.9036 106.3 96.1152 105.568C96.3167 104.871 96.5623 104.187 96.7518 103.488C96.9278 102.839 97.0683 102.178 97.1992 101.518C97.2919 101.05 97.4347 100.933 97.9021 101.03C99.166 101.292 99.7111 102.022 99.6591 103.519Z" fill="#F9F9F9"/>
<path d="M87.3711 103.487C87.9784 102.007 88.5573 100.597 89.1362 99.1864L89.0328 99.1126C88.1078 100.3 87.1825 101.486 86.2187 102.723C86.6482 103.008 86.9877 103.233 87.3711 103.487ZM84.482 104.718C84.3801 104.625 84.2638 104.55 84.1972 104.444C84.1628 104.389 84.1876 104.255 84.2343 104.196C85.3427 102.787 86.45 101.377 87.5749 99.9815C88.0758 99.3606 88.6072 98.7641 89.1398 98.1702C89.3101 97.9804 89.5104 97.7997 89.7318 97.6816C89.8618 97.6126 90.0824 97.6267 90.2243 97.69C90.4521 97.7912 90.3053 97.9735 90.245 98.1278C89.9491 98.8831 89.6723 99.6465 89.3582 100.394C88.6251 102.138 87.8756 103.876 87.1287 105.614C87.0211 105.864 86.8777 106.091 86.5465 105.942C86.326 105.842 86.222 105.69 86.3562 105.442C86.5492 105.085 86.7181 104.714 86.9276 104.368C87.0734 104.127 87.0262 103.966 86.823 103.804C85.788 102.977 86.0394 103.01 85.277 103.915C85.0953 104.131 84.9025 104.337 84.7094 104.543C84.6527 104.603 84.577 104.646 84.482 104.718Z" fill="#F9F9F9"/>
<path d="M80.7339 101.958C80.9255 101.378 81.0348 100.752 81.325 100.227C82.0853 98.8533 82.9248 97.5237 83.7324 96.1761C83.8143 96.0396 83.8923 95.901 83.9738 95.7645C84.5468 94.8068 86.0955 94.7459 86.741 95.6597C86.81 95.7576 86.8833 95.8811 86.8827 95.9923C86.8821 96.1237 86.8381 96.2993 86.7473 96.3716C86.6788 96.4262 86.4926 96.3758 86.3848 96.3207C86.2834 96.2689 86.2105 96.1541 86.1349 96.0589C85.8298 95.6736 85.2533 95.5693 84.8573 95.8573C84.6824 95.9848 84.5148 96.1457 84.3985 96.327C83.6693 97.462 82.9162 98.5845 82.2539 99.7586C81.9287 100.335 81.7109 100.998 81.5716 101.65C81.3956 102.473 81.8779 102.948 82.6116 102.84C82.7058 102.826 82.811 102.834 82.9021 102.861C83.1819 102.945 83.2578 103.241 83.0306 103.416C82.892 103.522 82.7094 103.611 82.5387 103.628C81.6012 103.722 80.782 102.929 80.7339 101.958Z" fill="#F9F9F9"/>
<path d="M81.7955 93.4304C81.6873 93.1792 81.5023 92.9502 81.5561 92.8339C81.6894 92.5456 81.9793 92.6664 82.199 92.7616C82.4667 92.8776 82.7217 93.027 82.9739 93.1762C83.1622 93.2873 83.2701 93.4585 83.1374 93.6696C83.0044 93.8821 82.8158 93.8724 82.6389 93.7148C82.4297 93.529 82.2961 93.6214 82.17 93.8188C81.7399 94.4915 81.2994 95.158 80.8735 95.8337C79.997 97.2263 79.1273 98.623 78.2414 100.039C78.3078 100.095 78.4384 100.155 78.4814 100.254C78.5469 100.405 78.5944 100.592 78.5603 100.743C78.5469 100.802 78.2435 100.88 78.1545 100.822C77.7274 100.542 77.3171 100.233 76.9285 99.9007C76.8502 99.8338 76.8915 99.6244 76.8774 99.4807C77.0215 99.4874 77.2128 99.4371 77.3003 99.5112C77.5845 99.7516 77.7385 99.6443 77.9034 99.3786C78.4094 98.5645 78.9169 97.7511 79.4417 96.9494C80.0947 95.9527 80.7659 94.9679 81.4291 93.9782C81.5723 93.7646 81.7151 93.5506 81.7955 93.4304Z" fill="#F9F9F9"/>
<path d="M77.1868 90.9912C77.003 91.2159 76.8123 91.4356 76.6363 91.6667C75.5123 93.1426 74.3916 94.621 73.2696 96.0988C73.1582 96.2455 73.0751 96.4525 72.928 96.5221C72.7912 96.5869 72.5613 96.5528 72.4176 96.476C72.2233 96.3727 72.3333 96.2217 72.4433 96.0819C73.1035 95.2416 73.7427 94.3848 74.4128 93.5527C75.4914 92.2132 76.5882 90.8888 77.6787 89.5589C77.7251 89.5023 77.7768 89.4372 77.8401 89.411C77.9334 89.3727 78.0511 89.3299 78.1351 89.3583C78.1865 89.3757 78.2304 89.5303 78.2149 89.6113C78.1581 89.9129 78.1145 90.2259 77.9958 90.5046C77.2454 92.2686 76.4776 94.0254 75.7119 95.783C75.5864 96.0714 75.4442 96.3528 75.3094 96.6375C75.3375 96.6595 75.3653 96.6815 75.3933 96.7038C75.4445 96.6293 75.4911 96.551 75.5479 96.4814C76.9615 94.7478 78.3763 93.0152 79.7911 91.2825C79.861 91.197 79.9178 91.0677 80.0069 91.0379C80.1482 90.9909 80.358 90.9481 80.4522 91.0195C80.54 91.0861 80.5855 91.3467 80.5257 91.4467C80.3972 91.6615 80.1778 91.8191 80.0152 92.0164C78.3909 93.9904 76.7723 95.9689 75.1465 97.9417C75.0246 98.0899 74.8796 98.2367 74.7146 98.3268C74.4639 98.4632 74.3258 98.3584 74.3829 98.0782C74.4442 97.7781 74.5261 97.4768 74.6438 97.1951C75.4582 95.2435 76.2843 93.2969 77.1061 91.3485C77.1521 91.24 77.1964 91.1307 77.2412 91.0216C77.2233 91.0117 77.205 91.0014 77.1868 90.9912Z" fill="#F9F9F9"/>
<path d="M73.1777 89.502C74.1738 89.6388 75.49 88.2541 75.2294 87.6254C74.5644 88.2333 73.8711 88.8678 73.1777 89.502ZM72.5911 90.198C72.5217 90.2929 72.461 90.3959 72.3818 90.4815C71.4727 91.4646 70.5621 92.4458 69.6494 93.4253C69.4984 93.5871 69.34 93.7914 69.1036 93.5533C68.8855 93.3334 69.0343 93.1563 69.1951 92.9851C71.0875 90.9711 72.9823 88.9594 74.866 86.9369C75.0949 86.6914 75.2527 86.7046 75.4577 86.9412C75.8068 87.3434 75.8591 87.8052 75.7252 88.293C75.5133 89.0646 75.0211 89.6605 74.3095 89.9452C73.3944 90.3119 72.8588 90.9849 72.4515 91.8195C72.0313 92.6805 71.6254 93.5491 71.2097 94.4126C71.1464 94.5446 71.0929 94.7057 70.9853 94.7847C70.8574 94.8787 70.6759 94.8986 70.5179 94.9507C70.4856 94.7482 70.4381 94.5467 70.4294 94.3433C70.4264 94.277 70.5331 94.2113 70.5749 94.1369C71.2982 92.8613 72.019 91.5842 72.7405 90.3077C72.6909 90.2709 72.641 90.2344 72.5911 90.198Z" fill="#F9F9F9"/>
<path d="M66.5721 90.0195C66.5503 90.5362 66.7365 90.6986 67.0918 90.5609C67.3961 90.4431 67.6943 90.2864 67.9615 90.0981C69.0987 89.2967 70.1348 88.3727 71.0395 87.3137C71.5227 86.7479 71.9373 86.1197 72.353 85.4991C72.4686 85.3267 72.5173 85.0836 72.5266 84.87C72.543 84.4892 72.2795 84.2991 71.9214 84.4199C71.7032 84.4934 71.4857 84.5928 71.295 84.7215C69.4812 85.9462 67.9953 87.4948 66.8459 89.3654C66.7012 89.601 66.6286 89.8809 66.5721 90.0195ZM65.9275 89.9969C66.012 89.7872 66.1113 89.3359 66.3533 88.9855C66.8686 88.2404 67.4101 87.5017 68.0293 86.8449C68.8109 86.0164 69.6629 85.252 70.5204 84.5012C70.8548 84.2087 71.2651 83.9758 71.6778 83.8083C72.4707 83.4862 73.2445 84.0698 73.1318 84.9245C73.0729 85.3719 72.8948 85.8365 72.6554 86.2203C71.8664 87.486 70.7636 88.4724 69.6584 89.4461C69.1345 89.9074 68.5969 90.3602 68.0222 90.7525C67.7015 90.9712 67.3031 91.1321 66.9209 91.1878C66.2858 91.2803 65.9083 90.8721 65.9275 89.9969Z" fill="#F9F9F9"/>
<path d="M64.6169 85.2668C66.4259 84.0535 68.2322 82.8361 70.0502 81.6361C70.17 81.5571 70.413 81.5496 70.5349 81.6204C70.7086 81.721 70.7982 81.9196 70.5394 82.0817C68.1629 83.5688 65.7884 85.0589 63.4107 86.5442C63.2666 86.6343 63.107 86.7069 62.9457 86.7584C62.8706 86.7822 62.7347 86.7654 62.697 86.7141C62.654 86.656 62.6623 86.5246 62.6988 86.4502C62.7571 86.3309 62.8515 86.2279 62.9397 86.126C64.7863 83.9885 66.6324 81.8503 68.4895 79.7217C68.5672 79.6323 68.7498 79.6359 68.8834 79.5961C68.8804 79.7359 68.9336 79.9185 68.8655 80.0089C68.3497 80.6958 67.8302 81.3821 67.2735 82.035C66.4525 82.9976 65.5998 83.9321 64.7609 84.879C64.6814 84.9688 64.6055 85.0616 64.5278 85.1532C64.5574 85.1912 64.5873 85.2288 64.6169 85.2668Z" fill="#F9F9F9"/>
<path d="M66.5806 77.752C66.418 77.5556 66.2578 77.4227 66.1816 77.2516C66.1171 77.107 66.1493 76.9181 66.1389 76.7487C66.2832 76.7722 66.4811 76.7433 66.563 76.8283C67.005 77.2853 67.4324 77.7589 67.8277 78.2569C67.8986 78.3461 67.7955 78.5754 67.7728 78.7402C67.6153 78.6953 67.4332 78.6857 67.3077 78.5959C67.1882 78.5103 67.1284 78.3407 67.0316 78.1913C65.7079 79.1894 64.3983 80.1686 63.0986 81.1607C62.3296 81.7482 61.5812 82.3631 60.8123 82.9509C60.6016 83.1121 60.3622 83.3654 60.0768 83.0759C59.9013 82.8979 60.0346 82.6231 60.3942 82.3601C62.2023 81.039 64.0116 79.7194 65.8158 78.3928C66.0779 78.2003 66.3164 77.9749 66.5806 77.752Z" fill="#F9F9F9"/>
<path d="M146.77 34.048C146.694 34.4318 146.584 34.9609 146.487 35.4923C146.413 35.9027 146.405 36.3317 146.281 36.7249C146.015 37.5709 145.221 38.1876 144.461 38.2334C144.224 38.2478 144.09 38.1864 144.054 37.9387C144.035 37.8056 143.99 37.676 143.955 37.5455C143.618 36.2952 142.721 35.7948 141.522 35.661C140.991 35.6017 140.449 35.5255 139.944 35.3592C138.548 34.8988 138.02 33.6931 138.584 32.3355C138.9 31.5748 139.253 30.8291 139.274 29.9798C139.294 29.2031 139.166 28.462 138.83 27.7576C138.602 27.2782 138.791 26.9812 139.308 27.0803C141.114 27.4259 142.773 28.1022 144.132 29.4001C144.535 29.7858 144.692 30.2844 144.742 30.8264C144.757 30.9861 144.766 31.1461 144.777 31.3057C144.823 31.9689 145.13 32.3958 145.797 32.5768C146.515 32.7718 146.781 33.1695 146.77 34.048Z" fill="#F9F9F9"/>
<path d="M128.913 31.6558H127.214V30.0162C127.728 30.0162 128.248 30.0114 128.766 30.024C128.817 30.0252 128.905 30.1319 128.907 30.1912C128.918 30.6676 128.913 31.1439 128.913 31.6558Z" fill="#F9F9F9"/>
<path d="M127.19 29.6708V28.0132C127.711 28.0132 128.229 28.0072 128.746 28.0222C128.801 28.0241 128.895 28.1485 128.897 28.2187C128.912 28.6236 128.918 29.0306 128.893 29.4346C128.888 29.5181 128.744 29.6564 128.659 29.6603C128.186 29.6823 127.712 29.6708 127.19 29.6708Z" fill="#F9F9F9"/>
<path d="M126.814 28.0171V29.6768C126.301 29.6768 125.804 29.685 125.307 29.6675C125.241 29.6651 125.125 29.5373 125.122 29.4635C125.104 29.058 125.102 28.6504 125.124 28.2451C125.128 28.1656 125.258 28.0303 125.334 28.0273C125.819 28.0071 126.306 28.0171 126.814 28.0171Z" fill="#F9F9F9"/>
<path d="M123.91 29.6895C123.038 29.6895 123.038 29.6895 123.038 28.8224C123.038 28.0246 123.038 28.0246 123.911 28.0246C124.754 28.0246 124.754 28.0246 124.754 28.8413C124.754 29.6895 124.754 29.6895 123.91 29.6895Z" fill="#F9F9F9"/>
<path d="M125.963 31.6807C125.127 31.6807 125.127 31.6807 125.127 30.8238C125.127 30.0182 125.127 30.0182 125.982 30.0182C126.847 30.0182 126.847 30.0182 126.847 30.8796C126.847 31.6807 126.847 31.6807 126.036 31.6807H125.963Z" fill="#F9F9F9"/>
<path d="M123.878 31.6904C123.057 31.6901 123.052 31.6901 123.059 30.8544C123.067 29.9089 122.927 30.0493 123.873 30.0415C124.767 30.0343 124.767 30.04 124.767 30.8854C124.767 31.6907 124.767 31.6907 123.951 31.6904C123.927 31.6904 123.903 31.6904 123.878 31.6904Z" fill="#F9F9F9"/>
<path d="M106.774 52.9519C106.202 52.6738 105.557 52.6072 105.162 52.7626C105.079 52.7952 105.026 52.9033 104.959 52.9769C105.036 53.0431 105.106 53.1564 105.19 53.1676C105.456 53.2028 105.731 53.2342 105.994 53.2019C106.23 53.173 106.456 53.0582 106.774 52.9519ZM128.703 51.1761C128.966 51.0761 129.173 51.0026 129.375 50.9197C129.578 50.8369 129.782 50.7528 129.977 50.6531C130.098 50.5913 130.204 50.4997 130.317 50.4214C130.232 50.3262 130.145 50.2328 130.063 50.1352C129.922 49.9671 129.76 49.8101 129.651 49.6224C129.555 49.4567 129.521 49.2552 129.46 49.0693C129.262 49.1684 129.038 49.2365 128.873 49.3754C128.699 49.5212 128.562 49.723 128.447 49.9225C128.274 50.2235 128.23 50.5573 128.393 50.8757C128.457 50.999 128.601 51.0803 128.703 51.1761ZM119.377 49.9255C119.388 49.9475 119.399 49.9698 119.41 49.9921C119.537 49.962 119.666 49.9394 119.791 49.9008C120.671 49.6284 121.404 49.0985 122.124 48.5459C122.821 48.0103 122.82 48.0063 122.139 47.4493C121.833 47.1989 121.743 47.2209 121.484 47.5261C121.395 47.6319 121.233 47.74 121.111 47.7322C121.027 47.7271 120.95 47.5294 120.876 47.4134C120.81 47.3098 120.754 47.2001 120.693 47.0932C120.638 47.2019 120.553 47.3056 120.533 47.421C120.417 48.0883 120.319 48.7617 119.9 49.3229C119.741 49.5353 119.552 49.7251 119.377 49.9255ZM133.306 51.4828C131.94 52.0236 131.54 51.772 131.328 50.8673C130.831 50.9074 130.19 51.3674 130.021 51.8058C129.781 52.4294 130.088 52.9244 130.75 52.9748C130.908 52.9868 131.068 52.9811 131.227 52.9862C131.846 53.0058 132.467 52.947 133.073 53.1745C133.291 53.2564 133.565 53.1878 133.888 53.1878C133.518 52.6424 133.051 52.2101 133.306 51.4828ZM104.086 50.8908C104.344 51.0258 104.534 51.1071 104.704 51.2189C104.887 51.3391 105.072 51.468 105.219 51.6283C105.492 51.9278 105.759 52.001 106.155 51.8281C106.972 51.472 107.265 51.544 107.837 52.1791C108.009 51.5611 108.375 51.0722 108.347 50.4431C108.332 50.1057 108.378 49.8107 108.579 49.5058C108.846 49.1033 109.021 48.6384 109.221 48.194C109.258 48.1133 109.227 48.0015 109.227 47.9039C109.066 47.9874 108.998 48.1064 108.901 48.1901C108.617 48.4354 108.342 48.7026 108.023 48.893C107.729 49.0687 107.404 49.078 107.114 48.8005C106.916 48.6122 106.764 48.6773 106.704 48.9454C106.682 49.0406 106.684 49.141 106.673 49.2389C106.619 49.701 106.339 49.9029 105.879 49.8062C105.748 49.7785 105.618 49.7429 105.489 49.7041C105.188 49.6131 104.975 49.7164 104.891 50.0165C104.777 50.4235 104.619 50.7799 104.086 50.8908ZM124.272 48.2603C124.13 48.4697 124.017 48.6134 123.928 48.7716C123.465 49.5998 122.742 50.0924 121.882 50.4208C121.528 50.5558 121.176 50.7001 120.835 50.8649C120.229 51.1583 119.693 51.5367 119.425 52.1975C119.185 52.7862 119.36 53.4435 119.795 53.8126C120.026 54.0087 120.203 54.2772 120.376 54.5318C120.492 54.7023 120.553 54.9096 120.65 55.0943C120.92 55.6064 121.384 55.7944 121.913 55.5646C122.165 55.4549 122.408 55.2913 122.608 55.1012C123.018 54.7131 123.388 54.2832 123.787 53.884C124.365 53.3068 125 52.8063 125.78 52.5358C126.176 52.3984 126.402 52.1372 126.527 51.7437C126.854 50.7194 127.29 49.7447 127.888 48.8484C127.93 48.7852 127.943 48.702 127.944 48.6978C127.392 48.595 126.847 48.5342 126.327 48.3854C125.811 48.2374 125.822 48.1986 125.544 48.6562C125.289 49.0756 124.818 49.1027 124.523 48.7071C124.437 48.5926 124.38 48.4562 124.272 48.2603ZM118.991 47.2559C118.785 47.3523 118.628 47.4053 118.493 47.4936C118.186 47.6945 117.901 47.9319 117.587 48.1211C116.625 48.702 115.832 48.5941 115.04 47.7957C114.622 47.3734 114.622 47.3734 114.25 47.815C113.369 48.8626 112.834 48.9105 111.785 48.0377C111.635 47.912 111.488 47.7783 111.325 47.6719C111.162 47.5659 110.988 47.4674 110.806 47.4044C110.3 47.2296 109.962 47.4417 109.894 47.9762C109.839 48.4037 109.838 48.84 109.761 49.2627C109.669 49.7652 109.553 50.2687 109.386 50.7504C109.264 51.105 109.262 51.396 109.527 51.666C109.822 51.9679 109.973 52.3222 110.016 52.7491C110.071 53.2866 110.268 53.4667 110.809 53.5523C111.256 53.6231 111.704 53.6912 112.155 53.7292C112.567 53.7638 112.909 53.9147 113.19 54.2169C113.452 54.4989 113.765 54.6676 114.157 54.6725C114.612 54.6782 115.019 54.8132 115.372 55.1147C115.577 55.2901 115.825 55.4025 116.073 55.209C116.325 55.0126 116.424 54.7246 116.336 54.4164C116.263 54.1588 116.147 53.9084 116.019 53.6722C115.602 52.9061 115.667 52.1797 116.186 51.497C116.371 51.2541 116.605 51.0493 116.81 50.8218C117.097 50.5037 117.389 50.1885 117.661 49.8574C117.931 49.5287 118.166 49.1714 118.439 48.8451C118.806 48.4058 119.018 47.9229 118.991 47.2559ZM107.969 76.6442C108.041 76.4149 108.109 76.1857 108.184 75.9585C108.348 75.4575 108.501 74.9522 108.687 74.4596C108.753 74.2846 108.88 74.1192 109.016 73.9878C109.502 73.5187 110.019 73.0828 110.493 72.6025C110.967 72.1214 111.297 71.5484 111.373 70.8545C111.386 70.7373 111.389 70.6189 111.399 70.4695C111.241 70.496 111.13 70.5147 110.948 70.5451C111.035 70.3613 111.1 70.2233 111.165 70.085C111.474 69.4313 111.351 68.7525 110.806 68.2738C110.467 67.9755 110.169 67.6676 110.084 67.1955C110.073 67.1331 109.897 67.0388 109.824 67.059C108.795 67.3488 107.788 67.6893 106.994 68.4636C106.617 68.8314 106.45 69.2466 106.55 69.7955C106.628 70.226 106.637 70.6774 106.614 71.1163C106.586 71.6556 106.261 72.0274 105.79 72.2549C105.401 72.4426 105.005 72.627 104.52 72.5236C104.64 72.4329 104.758 72.3389 104.882 72.2522C105.513 71.8084 105.666 71.2932 105.546 70.5198C105.482 70.1019 105.598 69.656 105.631 69.2225C105.656 68.8799 105.682 68.5377 105.7 68.1948C105.713 67.9381 105.553 67.8999 105.364 67.9722C105.068 68.0852 104.771 68.2042 104.493 68.3551C104.138 68.5473 103.8 68.77 103.459 68.9866C102.954 69.3074 102.716 69.8055 102.645 70.3728C102.586 70.8425 102.376 71.1724 101.988 71.4209C101.331 71.8409 100.905 72.451 100.676 73.1891C100.52 73.6914 100.433 74.2153 100.286 74.7208C100.211 74.9775 100.084 75.2216 99.9586 75.4596C99.6744 76.001 99.3785 76.5361 99.0832 77.0711C99.0211 77.1841 98.9416 77.2872 98.8119 77.4824C98.7497 77.2944 98.695 77.2019 98.6911 77.1073C98.6609 76.3803 98.6487 75.6657 98.9598 74.9673C99.0955 74.6627 99.0991 74.2665 99.0629 73.9225C98.9867 73.1937 99.0372 72.5405 99.7019 72.0828C99.7778 72.0307 99.8289 71.9346 99.8782 71.8509C100.08 71.5104 100.276 71.1669 100.486 70.8039C100.206 70.8181 99.8854 70.8238 99.5674 70.8527C99.1194 70.8937 98.7392 70.7949 98.3854 70.4827C98.1567 70.2809 97.84 70.1806 97.4981 70.0007C97.7694 69.9389 98.0142 69.863 98.2643 69.8296C99.0372 69.7259 99.8396 69.7386 100.523 69.2812C100.804 69.0923 101.117 68.8995 101.306 68.6305C101.946 67.72 102.869 67.3871 103.89 67.1699C104.866 66.9617 105.83 66.692 106.799 66.4501C106.882 66.4296 106.967 66.3986 107.05 66.4034C107.419 66.4251 107.626 66.2175 107.811 65.9268C108.227 65.2769 108.651 64.631 109.103 64.0064C109.28 63.7621 109.527 63.562 109.766 63.3731C110.137 63.0809 110.537 62.9697 110.989 63.2285C111.292 63.4018 111.552 63.3228 111.81 63.0667C112.038 62.8399 112.32 62.6534 112.606 62.5039C113.086 62.2533 113.265 61.9514 113.102 61.4715C112.961 61.0557 112.898 60.6089 112.837 60.1708C112.779 59.7581 112.854 59.3878 113.039 58.9766C113.288 58.418 113.146 57.7826 112.784 57.2578C112.363 56.6486 111.729 56.4048 111.03 56.3027C110.873 56.2798 110.713 56.2759 110.554 56.2668C109.913 56.2307 109.862 56.1677 109.78 55.5115C109.735 55.1479 109.681 54.7746 109.557 54.4336C109.298 53.7246 108.496 53.345 107.785 53.5806C107.404 53.7069 107.037 53.8804 106.674 54.0557C106.435 54.1714 106.226 54.1738 105.975 54.0732C105.673 53.9518 105.35 53.8647 105.028 53.8177C104.69 53.7683 104.441 53.6421 104.251 53.3438C103.974 52.9079 103.65 52.5186 103.182 52.2529C102.717 51.9887 102.516 52.0134 102.098 52.3231C101.826 52.5237 101.468 52.7024 101.144 52.7126C100.498 52.7328 99.8531 52.6132 99.3065 52.2053C99.0282 51.998 98.8477 51.7497 98.8597 51.3689C98.8785 50.7739 98.5772 50.4307 97.9822 50.4289C97.5348 50.4277 97.0889 50.5497 96.6397 50.5811C96.1789 50.6136 95.7028 50.6733 95.2548 50.5955C94.311 50.4316 93.944 49.7155 93.8502 48.8415C93.7178 47.6053 93.1215 46.6816 92.1284 45.9652C91.5839 45.572 91.0576 45.1357 90.5973 44.6477C90.2874 44.319 90.0313 43.8924 89.8852 43.463C89.5654 42.5243 89.8161 41.7111 90.6263 41.1097C90.9593 40.8627 91.0666 40.5518 90.9049 40.1722C90.2832 38.7131 91.0415 37.2645 92.1942 36.5339C92.5133 36.3314 92.8487 36.1374 93.2016 36.01C93.9652 35.734 94.3681 35.183 94.499 34.4087C94.71 33.1596 95.2079 32.0617 96.2413 31.304C96.7996 30.8948 97.426 30.5698 98.0498 30.2652C98.6421 29.9759 98.7942 29.7644 98.5784 29.1462C98.2485 28.1993 98.1508 27.2656 98.6836 26.3657C99.3519 25.2365 100.337 24.5357 101.621 24.2887C101.764 24.2613 101.955 24.3393 102.084 24.4273C102.254 24.542 102.414 24.6954 102.526 24.8671C102.896 25.4368 103.421 25.4495 103.988 25.3082C104.308 25.2284 104.62 25.1151 104.932 25.009C105.516 24.8117 106.04 24.9415 106.531 25.2835C106.803 25.4724 107.073 25.6655 107.353 25.8403C107.705 26.0593 108.039 26.071 108.412 25.8213C108.678 25.6426 109.007 25.5393 109.323 25.4616C109.729 25.3612 110.08 25.5055 110.297 25.8785C110.598 26.3943 111.04 26.5748 111.619 26.5612C112.503 26.5407 113.14 27.0255 113.433 27.8757C113.464 27.9649 113.519 28.0456 113.562 28.1285C114.001 27.9468 114.205 27.3861 114 26.9529C113.636 26.1819 113.014 25.7637 112.181 25.7116C111.58 25.674 111.113 25.4179 110.687 25.0172C110.456 24.8005 110.2 24.6017 109.928 24.4417C109.525 24.2043 109.124 24.2185 108.732 24.5216C108.31 24.8481 108.242 24.8225 107.82 24.4682C106.868 23.6683 105.787 23.6234 104.671 23.9955C104.036 24.2073 103.446 24.2896 102.846 23.9067C102.596 23.7476 102.5 23.5641 102.517 23.2703C102.58 22.1972 103.16 21.3937 104.318 21.0623C105.188 20.8137 105.732 20.3051 106.095 19.5089C106.584 18.4354 107.371 17.5939 108.351 16.988C109.251 16.4316 110.239 16.0369 111.349 16.2936C111.713 16.3777 111.978 16.1848 112.251 15.9854C113.321 15.2063 114.367 14.3892 115.478 13.6755C116.807 12.8219 118.258 12.1995 119.833 12.0031C120.723 11.8922 121.638 11.9208 122.538 11.9657C123.447 12.0109 124.019 12.5996 124.406 13.385C124.568 13.7159 124.682 14.0729 124.861 14.3934C125.039 14.7113 125.243 15.0243 125.486 15.2931C125.926 15.7793 126.491 15.9043 127.13 15.7814C127.646 15.682 128.168 15.6097 128.689 15.5419C128.893 15.5151 129.105 15.5127 129.31 15.5353C130.095 15.6223 130.205 15.7305 130.36 16.5096C130.477 17.0959 130.736 17.267 131.309 17.2044C132.228 17.1037 132.916 17.5617 133.372 18.292C133.77 18.9304 134.303 19.3016 134.962 19.5845C135.35 19.7517 135.712 19.9957 136.062 20.2392C136.394 20.4709 136.568 20.8089 136.667 21.2168C136.759 21.5892 136.921 21.9598 137.124 22.2855C137.536 22.9468 137.805 23.6527 137.673 24.4227C137.427 25.8598 137.715 27.1813 138.324 28.4744C138.834 29.5566 138.735 30.633 138.134 31.6586C137.827 32.1813 137.58 32.2524 137 32.049C136.104 31.7351 135.189 31.601 134.268 31.9038C134.032 31.9816 133.788 32.165 133.643 32.369C133.219 32.967 132.629 33.1451 131.958 32.8709C131.567 32.7113 131.149 32.6118 130.736 32.5236C130.52 32.4775 130.341 32.4229 130.34 32.178C130.333 30.7255 130.337 29.2727 130.337 27.7413C130.48 27.8266 130.563 27.8631 130.63 27.9179C131.003 28.2183 131.38 28.5135 131.738 28.8302C131.942 29.0097 132.052 28.919 132.181 28.7509C132.309 28.584 132.417 28.4539 132.184 28.2653C131.41 27.6413 130.644 27.0071 129.894 26.3546C129.773 26.2488 129.697 26.0304 129.691 25.8608C129.669 25.1961 129.677 24.5303 129.686 23.8651C129.69 23.5786 129.52 23.5596 129.303 23.552C129.054 23.5436 128.994 23.6665 128.988 23.891C128.975 24.3923 128.941 24.893 128.91 25.4926C128.723 25.3561 128.607 25.2811 128.501 25.1937C127.783 24.5987 127.064 24.004 126.352 23.4014C126.189 23.2637 126.064 23.2255 125.879 23.3782C123.939 24.9801 121.993 26.5745 120.049 28.1719C120.012 28.2023 119.983 28.2433 119.929 28.3038C119.99 28.4024 120.051 28.5039 120.116 28.603C120.271 28.8413 120.431 28.8567 120.649 28.6572C120.942 28.3882 121.261 28.1481 121.626 27.8498C121.641 28.0182 121.654 28.0984 121.654 28.1785C121.658 29.8319 121.661 31.4853 121.664 33.1388C121.664 33.2623 121.666 33.3858 121.657 33.5087C121.634 33.8151 121.502 33.9097 121.264 33.7407C121.009 33.5594 120.768 33.5524 120.508 33.6714C119.877 33.9601 119.25 34.2574 118.622 34.5524C118.479 34.6199 118.343 34.7075 118.194 34.7594C117.692 34.9341 117.465 35.2447 117.456 35.7334C117.822 35.7906 118.173 35.8584 118.527 35.8922C118.625 35.9015 118.769 35.8382 118.831 35.7596C119.056 35.4737 119.249 35.1631 119.465 34.8702C119.672 34.59 119.923 34.5906 120.245 34.7015C120.81 34.8961 121.385 35.0872 122.007 34.9886C122.317 34.9395 122.636 34.9266 122.95 34.9392C123.43 34.9588 123.655 34.8717 123.813 34.4289C124.009 33.8745 124.435 33.6672 124.946 33.5588C125.571 33.4262 126.159 33.5518 126.723 33.8365C127.241 34.099 127.775 34.2424 128.344 34.0074C128.478 33.9525 128.623 33.8941 128.723 33.7962C129.656 32.8857 130.708 32.9818 131.705 33.478C132.364 33.8061 133.055 33.8302 133.568 33.3717C134.536 32.5049 135.487 32.8336 136.471 33.2096C137.078 33.4419 137.5 33.9046 137.84 34.4475C138.036 34.7603 138.231 35.0736 138.419 35.3911C138.888 36.1847 139.585 36.5541 140.494 36.5417C140.763 36.5381 141.033 36.5478 141.302 36.5526C142.236 36.5688 142.972 36.9732 143.532 37.7146C144.098 38.4639 144.388 39.3165 144.428 40.2526C144.446 40.6702 144.431 41.0893 144.431 41.4788C144.746 41.6273 145.055 41.7256 145.311 41.9027C146.398 42.6547 146.759 44.3142 146.141 45.6259C146.057 45.804 145.959 45.9748 145.865 46.1483C145.597 46.6485 145.632 47.0031 146.01 47.4336C146.147 47.5903 146.306 47.7274 146.456 47.8717C147.022 48.4119 147.127 49.0096 146.692 49.6646C146.075 50.5925 145.178 51.1858 144.186 51.6443C144.077 51.6949 143.962 51.7314 143.855 51.7726C144.04 53.2658 142.884 53.8349 141.794 53.8042C141.562 53.7975 141.329 53.775 141.101 53.7328C140.774 53.6725 140.623 53.8015 140.507 54.1142C140.033 55.3952 139.11 56.2253 137.801 56.5241C136.448 56.8329 135.447 56.1734 135.056 54.8379C135.018 54.7089 134.984 54.5788 134.936 54.4073C134.744 54.4073 134.55 54.4091 134.356 54.407C132.916 54.3905 131.506 54.1588 130.115 53.8009C129.23 53.5731 127.688 54.0925 127.188 54.8629C127.005 55.1458 126.893 55.5233 126.881 55.8625C126.852 56.6278 126.668 57.3415 126.408 58.0528C126.158 58.737 125.679 59.0452 124.986 59.0603C124.558 59.0696 124.128 59.0365 123.702 59.0627C122.845 59.1154 122.339 59.6894 122.524 60.5278C122.703 61.3368 122.961 62.1445 123.309 62.8944C123.673 63.6816 124.012 64.4608 124.168 65.3194C124.2 65.489 124.328 65.6626 124.456 65.7873C124.621 65.9479 124.856 66.0368 125.018 66.1991C125.822 67.0014 126.779 66.9972 127.79 66.7788C128.842 66.5516 129.894 66.3308 130.95 66.1238C131.16 66.0828 131.491 65.9626 131.546 66.2684C131.602 66.5745 131.237 66.5119 131.052 66.5733C130.496 66.7592 129.925 66.8999 129.369 67.087C129.227 67.1349 129.12 67.2898 128.997 67.3955C129.136 67.4965 129.269 67.6736 129.414 67.6845C129.95 67.7254 130.489 67.723 131.027 67.7152C131.947 67.7016 132.882 67.6507 133.73 68.0731C134.494 68.4539 135.216 68.923 135.956 69.3535C136.356 69.5861 136.755 69.8208 137.156 70.0513C137.612 70.3137 138.087 70.5466 138.518 70.8452C138.702 70.9726 138.865 71.2173 138.917 71.4378C139.224 72.7366 139.873 73.7724 141.042 74.4494C141.128 74.4994 141.163 74.6377 141.222 74.735C141.111 74.7603 140.993 74.8233 140.891 74.8043C140.012 74.6419 139.203 74.2882 138.483 73.7667C138.243 73.5923 138.058 73.2852 137.942 72.9996C137.646 72.2681 137.144 71.8087 136.393 71.6029C135.938 71.4782 135.547 71.2567 135.214 70.8967C134.927 70.5858 134.578 70.3288 134.24 70.0709C133.863 69.7838 133.422 69.7497 132.978 69.8546C132.603 69.9431 132.496 70.176 132.611 70.5439C132.643 70.6472 132.652 70.759 132.665 70.8678C132.672 70.9286 132.647 71.0003 132.671 71.0513C132.865 71.47 133.049 71.8963 133.282 72.2925C133.336 72.3844 133.568 72.391 133.72 72.3977C133.976 72.4091 134.233 72.3874 134.489 72.3841C134.522 72.3835 134.554 72.4109 134.683 72.4688C134.559 72.5757 134.467 72.7222 134.378 72.7203C133.482 72.7005 132.584 72.6842 131.693 72.6019C131.425 72.5772 131.152 72.3799 130.928 72.2015C130.812 72.1091 130.784 71.8894 130.741 71.7207C130.641 71.3245 130.657 70.8551 130.445 70.5388C129.748 69.4985 128.894 68.5868 127.693 68.1328C127.202 67.9475 126.655 67.917 126.165 68.2087C125.741 68.4612 125.757 68.7697 126.193 69.0038C126.76 69.309 127.006 69.7738 127.067 70.4282C127.176 71.5806 127.743 72.539 128.612 73.2714C129.111 73.692 129.695 74.0261 130.278 74.325C131.091 74.7419 131.622 75.3885 131.935 76.2182C132.034 76.4788 131.995 76.8006 131.983 77.0928C131.967 77.4742 131.921 77.8551 131.875 78.2344C131.835 78.5643 131.97 78.7746 132.263 78.9089C132.563 79.0469 132.861 79.1906 133.152 79.3485C134.419 80.0378 134.798 81.1203 134.235 82.4583C134.082 82.8205 133.921 83.1856 133.713 83.5161C133.216 84.304 132.979 85.1557 132.869 86.0815C132.802 86.6401 132.557 87.1896 132.318 87.7084C132.212 87.9383 131.948 88.1399 131.709 88.2501C131.347 88.4173 130.994 88.1676 131.01 87.7654C131.022 87.4526 131.094 87.1294 131.205 86.8359C131.487 86.09 131.608 85.3548 131.377 84.5616C131.212 83.9942 131.29 83.4441 131.741 82.9859C132.136 82.584 132.176 82.0941 131.98 81.578C131.883 81.3249 131.785 81.0727 131.679 80.8236C131.565 80.5512 131.367 80.4964 131.123 80.66C130.761 80.9037 130.591 81.4505 130.754 81.8781C130.815 82.0386 130.933 82.1875 130.954 82.3511C130.975 82.515 130.957 82.7882 130.865 82.837C130.736 82.9045 130.465 82.872 130.354 82.7714C129.477 81.979 129.081 80.9652 129.212 79.7911C129.277 79.197 129.487 78.6194 129.627 78.0334C129.891 76.9307 129.17 75.8479 128.058 75.6596C127.842 75.6232 127.629 75.5653 127.42 75.4988C127.051 75.38 126.862 75.1191 126.858 74.7248C126.858 74.651 126.85 74.5762 126.837 74.5036C126.778 74.1767 126.628 73.8993 126.278 73.8571C125.961 73.8188 125.803 74.0689 125.695 74.3295C125.435 74.9555 125.175 75.5723 125.468 76.2791C125.573 76.5337 125.574 76.8569 125.208 76.9838C124.761 77.1386 124.493 77.0178 124.294 76.6322C123.698 75.4786 123.92 74.3696 124.53 73.3274C124.847 72.7854 124.839 72.2974 124.565 71.7981C124.199 71.1302 123.8 70.4776 123.386 69.8383C123.05 69.3198 122.55 69.1909 121.933 69.3782C121.841 68.6404 121.198 68.3967 120.718 68.0125C120.645 67.9541 120.376 68.0252 120.292 68.1207C119.832 68.6416 119.702 69.2873 119.939 69.9148C120.169 70.5225 120.012 70.9805 119.625 71.3968C119.287 71.759 119.222 72.1877 119.191 72.6438C119.18 72.8128 119.183 72.9885 119.135 73.1482C118.952 73.7664 119.244 74.2081 119.895 74.262C120.028 74.2731 120.169 74.281 120.297 74.2487C120.882 74.1008 121.331 74.3768 121.728 74.7371C122.299 75.2556 122.654 75.8907 122.887 76.6566C123.191 77.6538 123.051 78.6646 123.189 79.6603C123.243 80.0445 123.241 80.4181 123.739 80.538C123.859 80.5669 123.924 80.826 124.014 80.979C123.841 81.0137 123.667 81.073 123.493 81.077C123.242 81.0824 122.986 81.0068 122.74 81.0384C122.161 81.1125 121.917 80.8941 121.858 80.3111C121.823 79.9737 121.647 79.6531 121.557 79.3187C121.501 79.1111 121.434 78.8836 121.464 78.6794C121.62 77.633 120.957 76.9461 120.401 76.2315C120.259 76.0489 119.905 75.9703 119.644 75.9618C119.332 75.9519 119.246 76.2342 119.457 76.4782C120.089 77.2082 120.369 78.0304 120.167 79.0032C120.062 79.5094 120.091 80.0222 120.352 80.4792C120.831 81.321 120.758 82.2077 120.615 83.107C120.482 83.9466 120.34 84.7851 120.222 85.6269C120.136 86.2388 120.267 86.8212 120.481 87.3996C120.577 87.6593 120.624 87.9853 120.56 88.2486C120.275 89.4197 119.921 90.5736 119.638 91.745C119.515 92.2544 119.472 92.7895 119.448 93.3156C119.423 93.8687 119.451 94.4258 119.48 94.9801C119.52 95.7505 119.113 96.313 118.657 96.8559C118.601 96.9231 118.507 96.958 118.432 97.0068C118.396 96.9589 118.367 96.9372 118.37 96.9228C118.591 95.9343 118.216 95.0256 117.999 94.0962C117.828 93.3653 117.896 92.6835 118.206 91.9755C118.498 91.3087 118.657 90.5757 118.809 89.8578C118.869 89.5764 118.794 89.2435 118.705 88.9578C118.573 88.5336 118.507 88.1242 118.623 87.6882C118.646 87.5991 118.59 87.4888 118.57 87.3882C118.469 87.4319 118.33 87.4469 118.271 87.5237C117.974 87.91 118.029 88.3294 118.206 88.7478C118.579 89.6279 118.508 90.0424 117.828 90.7188C117.595 90.9505 117.337 91.1635 117.064 91.3437C116.97 91.4054 116.77 91.3813 116.666 91.3172C116.612 91.284 116.622 91.0566 116.674 90.9535C117.192 89.9331 116.952 89.0645 116.21 88.2604C116.064 88.1022 115.995 87.8506 115.944 87.6298C115.868 87.2945 115.857 86.9435 115.782 86.6079C115.704 86.2611 115.829 86.0469 116.114 85.8703C116.498 85.6326 116.891 85.3988 117.239 85.1129C117.806 84.6477 118.163 84.0331 118.316 83.3091C118.402 82.9006 118.353 82.5083 118.027 82.22C117.707 81.9368 117.324 81.9814 116.95 82.1058C116.328 82.3134 115.721 82.6291 115.084 82.7162C114.084 82.8527 113.063 82.837 111.995 82.8093C112.118 82.7265 112.23 82.6032 112.365 82.5677C113.073 82.3815 113.779 82.12 114.499 82.067C115.732 81.976 117.395 80.4382 117.477 78.877C117.539 77.7195 117.406 76.6168 116.617 75.6786C116.125 75.0938 116.041 74.4193 116.229 73.6618C116.415 72.9123 116.458 72.1271 116.628 71.3724C116.716 70.9817 116.952 70.6249 116.828 70.198C116.804 70.1158 116.795 70.0266 116.76 69.9501C116.51 69.4114 116.434 68.8459 116.465 68.256C116.486 67.8441 116.334 67.7296 115.989 67.9475C115.444 68.2909 114.947 68.6711 114.853 69.4171C114.799 69.8446 114.564 70.2486 114.41 70.6632C114.032 71.6803 113.667 72.7011 112.852 73.4775C112.532 73.7827 112.539 74.19 112.661 74.5847C112.799 75.0297 112.771 75.4554 112.61 75.8868C112.406 76.433 112.56 76.6349 113.152 76.6195C113.906 76.6002 114.574 77.2411 114.569 77.9973C114.567 78.3049 114.548 78.6152 114.503 78.9192C114.452 79.2699 114.444 79.5983 114.636 79.9194C114.787 80.1722 114.663 80.3108 114.397 80.2614C113.918 80.1725 113.443 80.0598 112.974 79.9291C112.907 79.9101 112.842 79.7308 112.847 79.6302C112.871 79.1994 112.93 78.771 112.962 78.3404C112.993 77.9174 112.89 77.8162 112.464 77.8177C112.427 77.8177 112.391 77.8174 112.354 77.8201C112.161 77.834 111.969 77.8487 111.776 77.8629C111.811 78.163 111.739 78.554 111.9 78.745C112.325 79.2494 112.115 79.6884 111.898 80.1418C111.658 80.6434 111.238 80.951 110.728 81.1493C110.386 81.2818 110.046 81.4222 109.719 81.587C108.949 81.9757 108.325 82.4939 108.152 83.4143C108.112 83.63 108.06 83.959 107.757 83.8855C107.457 83.8126 107.661 83.5143 107.638 83.3122C107.544 82.4797 107.881 81.8042 108.346 81.1595C108.681 80.6943 109.104 80.3653 109.644 80.1803C110.452 79.9038 110.745 79.4537 110.379 78.6788C109.839 77.5369 110.135 76.4981 110.489 75.4222C110.576 75.158 110.61 74.8733 110.642 74.5949C110.65 74.5205 110.567 74.3771 110.509 74.3674C110.422 74.3527 110.293 74.4027 110.23 74.4705C110.133 74.5762 110.088 74.7287 110.001 74.8462C109.608 75.3776 109.229 75.9218 108.803 76.4255C108.53 76.7491 108.371 76.7587 107.969 76.6442Z" fill="#F9F9F9"/>
</svg>
