<svg width="400" height="200" viewBox="0 0 400 200" fill="none" xmlns="http://www.w3.org/2000/svg">
<rect width="400" height="200" fill="#4B7254"/>
<path d="M253.624 116.073C254.503 117.303 255.551 118.364 256.683 119.433C256.983 119.094 257.261 118.78 257.568 118.433C256.207 117.619 254.916 116.846 253.624 116.073ZM260 119.384C259.879 119.539 259.807 119.698 259.684 119.765C259.599 119.812 259.423 119.766 259.327 119.702C258.971 119.464 258.638 119.189 258.278 118.957C258.188 118.899 257.997 118.9 257.908 118.958C257.706 119.091 257.531 119.27 257.359 119.444C257.002 119.805 257.007 119.816 257.35 120.213C257.646 120.557 257.938 120.905 258.234 121.249C258.4 121.442 258.318 121.576 258.142 121.7C257.967 121.824 257.886 121.741 257.758 121.599C256.986 120.741 256.19 119.906 255.413 119.053C254.48 118.027 253.55 116.997 252.637 115.953C252.439 115.727 252.29 115.444 252.173 115.164C252.129 115.059 252.21 114.86 252.296 114.755C252.343 114.698 252.545 114.702 252.633 114.755C254.716 115.992 256.795 117.237 258.872 118.486C259.155 118.656 259.43 118.841 259.696 119.037C259.806 119.117 259.881 119.245 260 119.384Z" fill="#E7E7E7"/>
<path d="M249.992 118.686C251.068 119.484 252.135 120.263 253.187 121.063C254.153 121.798 255.114 122.54 256.054 123.308C256.606 123.759 256.965 124.339 256.902 125.1C256.892 125.22 256.876 125.369 256.803 125.446C256.713 125.538 256.535 125.639 256.438 125.607C256.321 125.568 256.164 125.387 256.172 125.278C256.238 124.428 255.743 123.867 255.165 123.413C253.374 122.003 251.549 120.638 249.735 119.257C249.698 119.228 249.651 119.211 249.598 119.183C249.51 119.325 249.448 119.484 249.335 119.584C249.251 119.658 249.073 119.712 248.987 119.671C248.905 119.632 248.816 119.41 248.855 119.348C249.153 118.874 249.47 118.411 249.811 117.968C249.858 117.906 250.098 117.927 250.192 117.992C250.255 118.036 250.25 118.234 250.219 118.347C250.189 118.458 250.088 118.55 249.992 118.686Z" fill="#E7E7E7"/>
<path d="M247.311 121.942C247.253 122.013 247.211 122.1 247.142 122.14C247.056 122.188 246.93 122.242 246.853 122.212C246.775 122.182 246.7 122.057 246.686 121.965C246.646 121.689 247.241 120.739 247.51 120.673C247.626 120.645 247.808 120.699 247.887 120.784C247.946 120.847 247.936 121.079 247.871 121.136C247.556 121.414 247.723 121.587 247.955 121.783C249.447 123.04 250.938 124.3 252.426 125.564C252.762 125.849 253.085 126.151 253.429 126.46C253.523 126.373 253.599 126.251 253.703 126.221C253.859 126.176 254.033 126.195 254.2 126.187C254.202 126.346 254.272 126.561 254.195 126.656C253.895 127.025 253.564 127.375 253.208 127.69C253.113 127.775 252.89 127.712 252.725 127.718C252.761 127.565 252.749 127.36 252.843 127.272C253.1 127.032 252.996 126.884 252.788 126.708C251.662 125.758 250.531 124.814 249.419 123.848C248.752 123.269 248.117 122.653 247.466 122.055C247.421 122.014 247.368 121.983 247.311 121.942Z" fill="#E7E7E7"/>
<path d="M249.828 130.675C249.546 130.672 249.061 130.457 248.674 130.124C247.71 129.294 246.773 128.429 245.859 127.543C245.324 127.024 244.847 126.443 244.355 125.88C243.657 125.082 244.059 123.567 245.057 123.223C245.169 123.184 245.306 123.156 245.414 123.186C245.529 123.217 245.67 123.303 245.714 123.404C245.747 123.481 245.671 123.637 245.6 123.721C245.526 123.809 245.406 123.867 245.295 123.914C244.779 124.134 244.544 124.67 244.766 125.186C244.847 125.375 244.959 125.562 245.097 125.712C246.016 126.715 246.928 127.725 247.88 128.696C248.376 129.202 248.94 129.65 249.644 129.852C250.311 130.044 250.676 129.836 250.851 129.174C250.854 129.162 250.858 129.15 250.861 129.139C250.921 128.866 250.983 128.581 251.342 128.598C251.544 128.608 251.676 128.984 251.62 129.327C251.504 130.045 250.789 130.672 249.828 130.675Z" fill="#E7E7E7"/>
<path d="M242.658 129.755C242.425 129.007 242.18 128.262 241.963 127.509C241.845 127.096 241.766 126.671 241.686 126.249C241.654 126.075 241.672 125.854 241.904 125.87C242.03 125.879 242.216 126.029 242.253 126.153C242.5 126.978 242.727 127.81 242.934 128.646C243.061 129.164 243.321 129.518 243.793 129.807C245.204 130.669 246.58 131.591 247.965 132.497C248.276 132.701 248.312 132.914 248.111 133.124C247.936 133.307 247.794 133.261 247.613 133.107C246.45 132.123 245.271 131.16 243.934 130.419C243.745 130.314 243.552 130.217 243.337 130.104C243.328 130.666 243.568 131.068 243.889 131.437C244.542 132.189 245.196 132.939 245.844 133.696C245.954 133.825 246.077 133.969 246.117 134.126C246.149 134.253 246.107 134.453 246.02 134.54C245.953 134.606 245.717 134.597 245.635 134.528C245.413 134.34 245.219 134.113 245.039 133.881C244.081 132.649 243.146 131.397 242.17 130.18C241.717 129.615 241.189 129.113 240.695 128.583C240.553 128.43 240.373 128.298 240.278 128.12C240.206 127.984 240.243 127.791 240.231 127.623C240.399 127.617 240.611 127.544 240.727 127.62C240.957 127.77 241.152 127.988 241.33 128.204C241.761 128.723 242.174 129.257 242.593 129.786L242.658 129.755Z" fill="#E7E7E7"/>
<path d="M243.387 136.207C243.391 136.974 242.701 137.532 241.982 137.424C241.291 137.32 240.693 136.979 240.235 136.476C239.343 135.499 238.489 134.483 237.653 133.456C237.205 132.904 236.828 132.293 236.412 131.715C236.314 131.578 236.196 131.452 236.071 131.337C235.901 131.182 235.842 131.009 235.983 130.818C236.13 130.618 236.326 130.646 236.498 130.784C236.63 130.891 236.75 131.019 236.853 131.155C237.655 132.212 238.406 133.314 239.266 134.321C239.931 135.098 240.497 135.998 241.408 136.528C241.714 136.706 242.077 136.835 242.426 136.875C242.809 136.918 242.994 136.594 242.855 136.227C242.799 136.079 242.728 135.93 242.635 135.802C241.928 134.829 241.225 133.851 240.498 132.892C239.711 131.854 238.901 130.834 238.095 129.811C237.923 129.593 237.928 129.372 238.14 129.235C238.339 129.106 238.575 129.166 238.704 129.397C239.751 131.281 241.298 132.79 242.507 134.553C242.77 134.937 243.011 135.337 243.238 135.744C243.33 135.91 243.358 136.114 243.387 136.207Z" fill="#E7E7E7"/>
<path d="M233.434 132.965C233.933 133.83 234.406 134.651 234.899 135.506C235.273 134.648 234.353 133.04 233.434 132.965ZM235.393 136.231C235.555 136.498 235.717 136.765 235.879 137.032C236.468 137.999 237.057 138.965 237.642 139.933C237.761 140.129 237.939 140.345 237.625 140.526C237.346 140.686 237.229 140.472 237.112 140.277C235.687 137.905 234.265 135.531 232.832 133.165C232.659 132.879 232.718 132.724 233 132.588C233.569 132.314 234.077 132.464 234.544 132.815C235.235 133.334 235.559 134.076 235.659 134.906C235.722 135.427 235.913 135.853 236.284 136.198C237.193 137.041 238.11 137.874 239.024 138.711C239.105 138.786 239.21 138.845 239.264 138.936C239.369 139.117 239.575 139.329 239.325 139.518C239.096 139.691 238.863 139.597 238.684 139.381C238.44 139.088 238.219 138.771 237.947 138.508C237.129 137.718 236.292 136.949 235.463 136.172C235.44 136.192 235.416 136.211 235.393 136.231Z" fill="#E7E7E7"/>
<path d="M230.243 135.046C230.017 135.189 229.853 135.335 229.663 135.398C229.529 135.442 229.358 135.371 229.203 135.351C229.237 135.221 229.229 135.035 229.312 134.971C229.827 134.58 230.354 134.201 230.902 133.859C230.997 133.799 231.211 133.934 231.371 133.979C231.306 134.129 231.272 134.307 231.168 134.421C231.068 134.529 230.897 134.57 230.752 134.643C231.436 135.888 232.096 137.118 232.785 138.331C233.343 139.314 233.937 140.276 234.511 141.249C234.61 141.418 234.732 141.59 234.766 141.776C234.792 141.914 234.736 142.125 234.637 142.211C234.571 142.268 234.339 142.2 234.23 142.12C234.11 142.031 234.036 141.872 233.961 141.733C232.862 139.717 231.769 137.699 230.668 135.685C230.552 135.473 230.4 135.28 230.243 135.046Z" fill="#E7E7E7"/>
<path d="M229.647 144.725C229.603 144.675 229.429 144.563 229.417 144.434C229.408 144.345 229.608 144.165 229.735 144.142C230.471 144.008 230.595 143.854 230.548 143.09C230.497 142.261 230.15 141.561 229.574 140.999C229.013 140.452 228.392 139.969 227.802 139.453C227.12 138.857 226.5 138.215 226.315 137.275C226.221 136.792 226.296 136.335 226.621 135.957C226.858 135.68 227.17 135.535 227.538 135.669C227.629 135.701 227.759 135.836 227.746 135.896C227.723 136.003 227.621 136.137 227.521 136.173C226.997 136.362 226.831 136.636 226.981 137.189C227.183 137.935 227.683 138.475 228.252 138.954C228.72 139.349 229.219 139.709 229.679 140.113C230.514 140.844 231.118 141.721 231.244 142.865C231.359 143.912 230.707 144.737 229.647 144.725Z" fill="#E7E7E7"/>
<path d="M226.183 144.324C225.394 142.192 224.604 140.059 223.814 137.927C223.759 137.777 223.701 137.628 223.644 137.479C223.553 137.242 223.56 137.036 223.835 136.937C224.132 136.829 224.235 137.045 224.308 137.26C224.446 137.667 224.549 138.085 224.695 138.488C225.492 140.686 226.296 142.88 227.098 145.075C227.119 145.133 227.162 145.191 227.159 145.248C227.149 145.457 227.124 145.664 227.105 145.872C226.946 145.787 226.739 145.741 226.636 145.611C225.725 144.467 224.823 143.317 223.94 142.151C223.391 141.426 222.881 140.672 222.352 139.931C222.306 139.867 222.251 139.81 222.151 139.777C222.481 140.66 222.79 141.552 223.146 142.424C223.648 143.653 224.187 144.868 224.705 146.09C224.751 146.199 224.823 146.367 224.777 146.431C224.687 146.559 224.532 146.653 224.385 146.717C224.343 146.735 224.198 146.618 224.165 146.537C223.576 145.09 222.978 143.648 222.424 142.189C221.984 141.028 221.599 139.845 221.193 138.672C221.158 138.569 221.133 138.456 221.133 138.348C221.134 138.119 221.276 138.052 221.447 138.169C221.646 138.307 221.84 138.471 221.989 138.661C222.79 139.689 223.594 140.714 224.36 141.767C224.974 142.61 225.535 143.492 226.12 144.357C226.141 144.346 226.162 144.335 226.183 144.324Z" fill="#E7E7E7"/>
<path d="M217.605 140.573C217.864 142.905 218.558 145.086 219.829 147.064C219.926 147.216 220.065 147.349 220.208 147.461C220.578 147.754 220.877 147.633 220.909 147.166C220.931 146.85 220.939 146.517 220.871 146.211C220.63 145.132 220.402 144.047 220.077 142.993C219.76 141.961 219.381 140.938 218.682 140.086C218.485 139.846 218.241 139.616 217.899 139.735C217.559 139.853 217.619 140.184 217.606 140.462C217.604 140.499 217.605 140.536 217.605 140.573ZM218.062 139.004C218.318 139.13 218.603 139.218 218.824 139.39C219.533 139.939 219.859 140.749 220.178 141.551C220.822 143.171 221.204 144.866 221.494 146.578C221.559 146.962 221.452 147.413 221.308 147.786C221.115 148.286 220.598 148.456 220.152 148.162C219.783 147.92 219.437 147.592 219.188 147.227C218.51 146.234 218.099 145.107 217.763 143.958C217.477 142.979 217.219 141.99 216.999 140.994C216.921 140.644 216.945 140.252 217.009 139.896C217.109 139.341 217.473 139.082 218.062 139.004Z" fill="#E7E7E7"/>
<path d="M213.657 143.804C213.835 142.818 213.989 141.941 214.153 141.065C214.201 140.812 214.267 140.56 214.351 140.317C214.419 140.121 214.448 139.831 214.763 139.91C215.103 139.994 214.986 140.282 214.944 140.493C214.808 141.18 214.673 141.871 214.488 142.546C214.296 143.25 214.367 143.846 214.775 144.493C215.606 145.811 216.335 147.196 217.099 148.557C217.168 148.68 217.256 148.85 217.22 148.962C217.182 149.081 217.022 149.189 216.891 149.244C216.701 149.323 216.631 149.174 216.552 149.014C215.883 147.647 215.205 146.285 214.521 144.926C214.423 144.731 214.276 144.561 214.128 144.345C213.875 144.794 213.875 145.231 213.98 145.675C214.217 146.681 214.462 147.684 214.701 148.69C214.732 148.821 214.751 148.956 214.758 149.091C214.77 149.303 214.718 149.53 214.477 149.524C214.341 149.52 214.132 149.364 214.092 149.234C213.961 148.8 213.868 148.352 213.802 147.902C213.486 145.757 213.107 143.627 212.408 141.567C212.361 141.428 212.299 141.277 212.312 141.139C212.327 140.989 212.423 140.847 212.484 140.702C212.637 140.767 212.859 140.791 212.929 140.907C213.065 141.132 213.138 141.403 213.196 141.665C213.332 142.277 213.443 142.895 213.567 143.511C213.58 143.575 213.605 143.637 213.657 143.804Z" fill="#E7E7E7"/>
<path d="M203.505 146.137C203.867 146.083 204.224 146.028 204.631 145.967C204.525 144.56 204.42 143.165 204.315 141.77C204.709 141.745 204.863 141.848 204.91 142.24C204.993 142.937 205.042 143.638 205.108 144.337C205.292 146.325 205.478 148.312 205.663 150.299C205.67 150.373 205.707 150.465 205.676 150.517C205.587 150.67 205.493 150.898 205.359 150.933C205.109 150.999 205.054 150.759 205.036 150.551C204.942 149.422 204.851 148.292 204.755 147.162C204.733 146.906 204.697 146.651 204.665 146.381C204.586 146.367 204.516 146.346 204.446 146.342C203.585 146.295 203.529 146.357 203.635 147.213C203.757 148.203 203.881 149.193 203.993 150.184C204.019 150.416 204.124 150.715 203.82 150.818C203.764 150.836 203.511 150.499 203.476 150.303C203.274 149.165 203.068 148.024 202.944 146.876C202.775 145.321 202.676 143.758 202.557 142.198C202.548 142.092 202.597 141.912 202.663 141.887C202.77 141.848 202.938 141.872 203.035 141.938C203.11 141.988 203.142 142.14 203.152 142.251C203.255 143.49 203.35 144.73 203.45 145.97C203.453 146.017 203.479 146.061 203.505 146.137Z" fill="#E7E7E7"/>
<path d="M200.385 150.231C200.562 150.247 200.69 150.223 200.772 150.274C200.911 150.362 201.022 150.498 201.144 150.614C201.03 150.723 200.92 150.919 200.799 150.928C200.325 150.96 199.846 150.957 199.374 150.912C199.248 150.899 199.14 150.69 199.025 150.572C199.158 150.496 199.296 150.35 199.425 150.357C199.778 150.377 199.803 150.181 199.79 149.919C199.723 148.551 199.649 147.184 199.596 145.816C199.565 145.04 199.57 144.263 199.56 143.486C199.557 143.216 199.559 142.946 199.559 142.651C199.45 142.651 199.372 142.672 199.314 142.647C199.203 142.598 199.02 142.525 199.019 142.459C199.016 142.34 199.106 142.133 199.192 142.112C199.626 142.01 200.071 141.937 200.516 141.902C200.598 141.895 200.767 142.113 200.766 142.225C200.765 142.321 200.573 142.5 200.472 142.495C200.079 142.475 200.06 142.702 200.075 142.99C200.179 144.973 200.286 146.956 200.382 148.94C200.403 149.367 200.385 149.795 200.385 150.231Z" fill="#E7E7E7"/>
<path d="M194.356 143.421C194.29 145.194 194.221 146.967 194.159 148.74C194.139 149.294 194.132 149.849 194.126 150.404C194.122 150.719 193.916 150.764 193.678 150.75C193.396 150.733 193.453 150.527 193.466 150.339C193.512 149.663 193.552 148.987 193.593 148.31C193.719 146.232 193.843 144.154 193.972 142.076C193.979 141.967 194.002 141.851 194.049 141.754C194.149 141.543 194.311 141.503 194.425 141.722C194.567 141.992 194.704 142.278 194.768 142.573C195.171 144.437 195.556 146.305 195.941 148.172C196.012 148.516 196.059 148.865 196.172 149.213C196.188 149.134 196.213 149.056 196.219 148.977C196.375 146.751 196.529 144.525 196.683 142.298C196.692 142.163 196.662 142 196.726 141.9C196.81 141.768 196.961 141.611 197.098 141.596C197.343 141.569 197.425 141.784 197.405 142.001C197.359 142.49 197.279 142.976 197.241 143.466C197.071 145.703 196.913 147.941 196.745 150.178C196.728 150.409 196.696 150.644 196.628 150.863C196.599 150.957 196.467 151.051 196.365 151.074C196.317 151.085 196.194 150.942 196.168 150.851C195.914 149.952 195.641 149.057 195.436 148.146C195.083 146.576 194.775 144.995 194.448 143.419C194.418 143.42 194.387 143.421 194.356 143.421Z" fill="#E7E7E7"/>
<path d="M190.928 142.012C190.8 143.122 190.676 144.196 190.548 145.31C190.683 145.31 190.865 145.264 191.005 145.323C191.147 145.382 191.329 145.533 191.346 145.664C191.373 145.873 191.214 146.053 190.97 145.991C190.548 145.883 190.428 146.057 190.385 146.461C190.271 147.525 190.114 148.583 189.971 149.668C190.31 149.721 190.625 149.747 190.926 149.83C191.051 149.865 191.144 150.021 191.251 150.121C191.139 150.219 191.025 150.401 190.915 150.398C190.445 150.389 189.971 150.347 189.509 150.261C189.415 150.243 189.292 149.968 189.309 149.827C189.533 148.005 189.791 146.187 190.015 144.365C190.111 143.585 190.159 142.798 190.204 142.013C190.231 141.531 190.415 141.312 190.89 141.324C191.155 141.33 191.431 141.338 191.678 141.42C191.798 141.459 191.861 141.672 191.95 141.806C191.808 141.894 191.675 142.03 191.522 142.058C191.339 142.092 191.139 142.033 190.928 142.012Z" fill="#E7E7E7"/>
<path d="M185.763 147.416C185.823 147.296 185.864 147.237 185.884 147.171C186.521 145.141 187.16 143.112 187.785 141.077C187.867 140.81 188.022 140.698 188.265 140.748C188.529 140.801 188.499 141 188.43 141.208C187.606 143.696 186.789 146.186 185.961 148.673C185.861 148.975 185.722 149.266 185.581 149.552C185.541 149.633 185.429 149.679 185.35 149.741C185.286 149.645 185.185 149.556 185.167 149.453C185.135 149.273 185.147 149.084 185.152 148.899C185.225 146.137 185.296 143.374 185.382 140.612C185.386 140.493 185.531 140.378 185.61 140.261C185.698 140.37 185.847 140.471 185.863 140.589C185.914 140.967 185.942 141.352 185.932 141.733C185.884 143.533 185.821 145.333 185.763 147.133C185.761 147.204 185.763 147.275 185.763 147.416Z" fill="#E7E7E7"/>
<path d="M182.656 140.057C182.37 141.036 182.1 141.959 181.82 142.915C182.71 142.533 183.22 140.835 182.656 140.057ZM181.641 143.781C181.416 144.618 181.19 145.455 180.967 146.292C180.814 146.862 180.666 147.434 180.513 148.004C180.456 148.216 180.383 148.428 180.097 148.342C179.832 148.261 179.841 148.065 179.904 147.836C180.64 145.144 181.377 142.451 182.099 139.755C182.191 139.409 182.366 139.389 182.635 139.499C183.244 139.746 183.482 140.25 183.531 140.865C183.6 141.727 183.269 142.463 182.734 143.1C182.428 143.463 182.29 143.864 182.289 144.315C182.287 145.337 182.305 146.358 182.32 147.38C182.325 147.7 182.361 148.02 182.363 148.34C182.364 148.71 182.2 148.933 181.979 148.896C181.74 148.856 181.602 148.572 181.654 148.248C181.892 146.764 181.751 145.278 181.641 143.781Z" fill="#E7E7E7"/>
<path d="M175.708 146.169C175.97 146.038 176.238 145.961 176.43 145.795C176.807 145.468 177.192 145.129 177.484 144.728C178.14 143.824 178.564 142.801 178.817 141.709C178.97 141.052 179.032 140.394 178.819 139.738C178.667 139.27 178.381 138.93 177.845 138.771C177.134 141.231 176.431 143.669 175.708 146.169ZM179.659 140.519C179.655 141.33 179.328 142.196 179.052 143.077C178.692 144.224 178.072 145.2 177.17 145.974C176.797 146.293 176.352 146.566 175.893 146.73C175.628 146.825 175.252 146.707 174.961 146.594C174.75 146.511 174.707 146.314 174.882 146.052C175.143 145.66 175.358 145.22 175.506 144.772C175.746 144.049 175.904 143.3 176.115 142.568C176.317 141.871 176.562 141.187 176.752 140.488C176.928 139.839 177.068 139.178 177.199 138.518C177.292 138.05 177.435 137.933 177.902 138.03C179.166 138.292 179.711 139.022 179.659 140.519Z" fill="#E7E7E7"/>
<path d="M167.371 140.487C167.978 139.007 168.557 137.597 169.136 136.186L169.033 136.113C168.108 137.3 167.183 138.486 166.219 139.723C166.648 140.008 166.988 140.233 167.371 140.487ZM164.482 141.718C164.38 141.625 164.264 141.55 164.197 141.444C164.163 141.389 164.188 141.255 164.234 141.196C165.343 139.787 166.45 138.377 167.575 136.982C168.076 136.361 168.607 135.764 169.14 135.17C169.31 134.98 169.51 134.8 169.732 134.682C169.862 134.613 170.082 134.627 170.224 134.69C170.452 134.791 170.305 134.973 170.245 135.128C169.949 135.883 169.672 136.647 169.358 137.394C168.625 139.138 167.876 140.876 167.129 142.614C167.021 142.864 166.878 143.091 166.547 142.942C166.326 142.842 166.222 142.69 166.356 142.442C166.549 142.085 166.718 141.714 166.928 141.368C167.073 141.127 167.026 140.966 166.823 140.804C165.788 139.977 166.039 140.01 165.277 140.915C165.095 141.131 164.903 141.337 164.709 141.543C164.653 141.603 164.577 141.646 164.482 141.718Z" fill="#E7E7E7"/>
<path d="M160.734 138.958C160.925 138.378 161.035 137.752 161.325 137.227C162.085 135.853 162.925 134.524 163.732 133.176C163.814 133.04 163.892 132.901 163.974 132.765C164.547 131.807 166.095 131.746 166.741 132.66C166.81 132.758 166.883 132.881 166.883 132.992C166.882 133.124 166.838 133.299 166.747 133.372C166.679 133.426 166.493 133.376 166.385 133.321C166.283 133.269 166.211 133.154 166.135 133.059C165.83 132.674 165.253 132.569 164.857 132.857C164.682 132.985 164.515 133.146 164.399 133.327C163.669 134.462 162.916 135.585 162.254 136.759C161.929 137.335 161.711 137.998 161.572 138.65C161.396 139.473 161.878 139.948 162.612 139.84C162.706 139.826 162.811 139.834 162.902 139.861C163.182 139.945 163.258 140.241 163.031 140.416C162.892 140.522 162.709 140.611 162.539 140.628C161.601 140.722 160.782 139.929 160.734 138.958Z" fill="#E7E7E7"/>
<path d="M161.796 130.43C161.687 130.179 161.502 129.95 161.556 129.834C161.689 129.546 161.979 129.666 162.199 129.762C162.467 129.878 162.722 130.027 162.974 130.176C163.162 130.287 163.27 130.458 163.137 130.67C163.004 130.882 162.816 130.872 162.639 130.715C162.43 130.529 162.296 130.621 162.17 130.819C161.74 131.492 161.299 132.158 160.874 132.834C159.997 134.226 159.127 135.623 158.241 137.039C158.308 137.095 158.438 137.155 158.481 137.254C158.547 137.405 158.594 137.592 158.56 137.743C158.547 137.802 158.244 137.88 158.154 137.822C157.727 137.542 157.317 137.233 156.929 136.901C156.85 136.834 156.891 136.624 156.877 136.481C157.021 136.487 157.213 136.437 157.3 136.511C157.585 136.752 157.738 136.644 157.903 136.379C158.409 135.565 158.917 134.751 159.442 133.949C160.095 132.953 160.766 131.968 161.429 130.978C161.572 130.765 161.715 130.551 161.796 130.43Z" fill="#E7E7E7"/>
<path d="M157.187 127.991C157.003 128.216 156.812 128.436 156.636 128.667C155.512 130.143 154.392 131.621 153.27 133.099C153.158 133.246 153.075 133.452 152.928 133.522C152.791 133.587 152.561 133.553 152.418 133.476C152.223 133.373 152.333 133.222 152.443 133.082C153.103 132.242 153.743 131.385 154.413 130.553C155.491 129.213 156.588 127.889 157.679 126.559C157.725 126.502 157.777 126.437 157.84 126.411C157.933 126.373 158.051 126.33 158.135 126.358C158.187 126.376 158.23 126.53 158.215 126.611C158.158 126.913 158.114 127.226 157.996 127.505C157.245 129.269 156.478 131.025 155.712 132.783C155.586 133.071 155.444 133.353 155.309 133.637C155.337 133.659 155.365 133.681 155.393 133.704C155.444 133.629 155.491 133.551 155.548 133.481C156.961 131.748 158.376 130.015 159.791 128.283C159.861 128.197 159.918 128.068 160.007 128.038C160.148 127.991 160.358 127.948 160.452 128.02C160.54 128.086 160.585 128.347 160.526 128.447C160.397 128.662 160.178 128.819 160.015 129.016C158.391 130.99 156.772 132.969 155.146 134.942C155.025 135.09 154.88 135.237 154.715 135.327C154.464 135.463 154.326 135.358 154.383 135.078C154.444 134.778 154.526 134.477 154.644 134.195C155.458 132.243 156.284 130.297 157.106 128.349C157.152 128.24 157.196 128.131 157.241 128.022C157.223 128.012 157.205 128.001 157.187 127.991Z" fill="#E7E7E7"/>
<path d="M153.178 126.502C154.174 126.639 155.49 125.254 155.229 124.625C154.564 125.233 153.871 125.868 153.178 126.502ZM152.591 127.198C152.522 127.293 152.461 127.396 152.382 127.481C151.473 128.465 150.562 129.446 149.649 130.425C149.498 130.587 149.34 130.791 149.104 130.553C148.885 130.333 149.034 130.156 149.195 129.985C151.087 127.971 152.982 125.959 154.866 123.937C155.095 123.691 155.253 123.705 155.458 123.941C155.807 124.343 155.859 124.805 155.725 125.293C155.513 126.065 155.021 126.661 154.31 126.945C153.394 127.312 152.859 127.985 152.451 128.819C152.031 129.681 151.625 130.549 151.21 131.413C151.146 131.545 151.093 131.706 150.985 131.785C150.857 131.879 150.676 131.899 150.518 131.951C150.486 131.748 150.438 131.547 150.429 131.343C150.426 131.277 150.533 131.211 150.575 131.137C151.298 129.861 152.019 128.584 152.74 127.308C152.691 127.271 152.641 127.234 152.591 127.198Z" fill="#E7E7E7"/>
<path d="M146.572 127.019C146.55 127.536 146.736 127.699 147.092 127.561C147.396 127.443 147.694 127.286 147.962 127.098C149.099 126.297 150.135 125.373 151.039 124.314C151.523 123.748 151.937 123.12 152.353 122.499C152.469 122.327 152.517 122.084 152.527 121.87C152.543 121.489 152.279 121.299 151.921 121.42C151.703 121.493 151.486 121.593 151.295 121.721C149.481 122.946 147.995 124.495 146.846 126.365C146.701 126.601 146.629 126.881 146.572 127.019ZM145.927 126.997C146.012 126.787 146.111 126.336 146.353 125.985C146.869 125.24 147.41 124.502 148.029 123.845C148.811 123.016 149.663 122.252 150.52 121.501C150.855 121.209 151.265 120.976 151.678 120.808C152.471 120.486 153.244 121.07 153.132 121.925C153.073 122.372 152.895 122.837 152.655 123.22C151.866 124.486 150.764 125.472 149.658 126.446C149.135 126.907 148.597 127.36 148.022 127.752C147.701 127.971 147.303 128.132 146.921 128.188C146.286 128.28 145.908 127.872 145.927 126.997Z" fill="#E7E7E7"/>
<path d="M144.617 122.267C146.426 121.054 148.232 119.836 150.05 118.636C150.17 118.557 150.413 118.55 150.535 118.62C150.709 118.721 150.798 118.92 150.539 119.082C148.163 120.569 145.788 122.059 143.411 123.544C143.267 123.634 143.107 123.707 142.946 123.758C142.871 123.782 142.735 123.765 142.697 123.714C142.654 123.656 142.662 123.525 142.699 123.45C142.757 123.331 142.852 123.228 142.94 123.126C144.786 120.988 146.632 118.85 148.49 116.722C148.567 116.632 148.75 116.636 148.883 116.596C148.88 116.736 148.934 116.918 148.866 117.009C148.35 117.696 147.83 118.382 147.273 119.035C146.452 119.998 145.6 120.932 144.761 121.879C144.681 121.969 144.606 122.062 144.528 122.153C144.557 122.191 144.587 122.229 144.617 122.267Z" fill="#E7E7E7"/>
<path d="M146.581 114.752C146.418 114.556 146.258 114.423 146.182 114.252C146.117 114.107 146.149 113.918 146.139 113.749C146.283 113.772 146.481 113.743 146.563 113.828C147.005 114.285 147.432 114.759 147.828 115.257C147.899 115.346 147.795 115.575 147.773 115.74C147.615 115.695 147.433 115.686 147.308 115.596C147.188 115.51 147.128 115.341 147.032 115.191C145.708 116.189 144.398 117.169 143.099 118.161C142.33 118.748 141.581 119.363 140.812 119.951C140.602 120.112 140.362 120.365 140.077 120.076C139.901 119.898 140.035 119.623 140.394 119.36C142.202 118.039 144.012 116.719 145.816 115.393C146.078 115.2 146.316 114.975 146.581 114.752Z" fill="#E7E7E7"/>
<path d="M226.77 71.048C226.694 71.4318 226.584 71.9609 226.487 72.4923C226.413 72.9027 226.405 73.3317 226.281 73.7249C226.015 74.5709 225.221 75.1876 224.461 75.2334C224.224 75.2478 224.09 75.1864 224.054 74.9387C224.035 74.8056 223.99 74.676 223.955 74.5455C223.618 73.2952 222.721 72.7948 221.522 72.661C220.991 72.6017 220.449 72.5255 219.944 72.3592C218.548 71.8988 218.02 70.6931 218.584 69.3355C218.9 68.5748 219.253 67.8291 219.274 66.9798C219.294 66.2031 219.166 65.462 218.83 64.7576C218.602 64.2782 218.791 63.9812 219.308 64.0803C221.114 64.4259 222.773 65.1022 224.132 66.4001C224.535 66.7858 224.692 67.2844 224.742 67.8264C224.757 67.9861 224.766 68.1461 224.777 68.3057C224.823 68.9689 225.13 69.3958 225.797 69.5768C226.515 69.7718 226.781 70.1695 226.77 71.048Z" fill="#E7E7E7"/>
<path d="M208.913 68.6558H207.214V67.0162C207.728 67.0162 208.248 67.0114 208.766 67.024C208.817 67.0252 208.905 67.1319 208.907 67.1912C208.918 67.6676 208.913 68.1439 208.913 68.6558Z" fill="#E7E7E7"/>
<path d="M207.19 66.6708V65.0132C207.711 65.0132 208.229 65.0072 208.746 65.0222C208.801 65.0241 208.895 65.1485 208.897 65.2187C208.912 65.6236 208.918 66.0306 208.893 66.4346C208.888 66.5181 208.744 66.6564 208.659 66.6603C208.186 66.6823 207.712 66.6708 207.19 66.6708Z" fill="#E7E7E7"/>
<path d="M206.814 65.0171V66.6768C206.301 66.6768 205.804 66.685 205.307 66.6675C205.241 66.6651 205.125 66.5373 205.122 66.4635C205.104 66.058 205.102 65.6504 205.124 65.2451C205.128 65.1656 205.258 65.0303 205.334 65.0273C205.819 65.0071 206.306 65.0171 206.814 65.0171Z" fill="#E7E7E7"/>
<path d="M203.91 66.6895C203.038 66.6895 203.038 66.6895 203.038 65.8224C203.038 65.0246 203.038 65.0246 203.911 65.0246C204.754 65.0246 204.754 65.0246 204.754 65.8413C204.754 66.6895 204.754 66.6895 203.91 66.6895Z" fill="#E7E7E7"/>
<path d="M205.963 68.6807C205.127 68.6807 205.127 68.6807 205.127 67.8238C205.127 67.0182 205.127 67.0182 205.982 67.0182C206.847 67.0182 206.847 67.0182 206.847 67.8796C206.847 68.6807 206.847 68.6807 206.036 68.6807H205.963Z" fill="#E7E7E7"/>
<path d="M203.878 68.6904C203.057 68.6901 203.052 68.6901 203.059 67.8544C203.067 66.9089 202.927 67.0493 203.873 67.0415C204.767 67.0343 204.767 67.04 204.767 67.8854C204.767 68.6907 204.767 68.6907 203.951 68.6904C203.927 68.6904 203.903 68.6904 203.878 68.6904Z" fill="#E7E7E7"/>
<path d="M186.774 89.9519C186.202 89.6738 185.557 89.6072 185.162 89.7626C185.079 89.7952 185.026 89.9033 184.959 89.9769C185.036 90.0431 185.106 90.1564 185.19 90.1676C185.456 90.2028 185.731 90.2342 185.994 90.2019C186.23 90.173 186.456 90.0582 186.774 89.9519ZM208.703 88.1761C208.966 88.0761 209.173 88.0026 209.375 87.9197C209.578 87.8369 209.782 87.7528 209.977 87.6531C210.098 87.5913 210.204 87.4997 210.317 87.4214C210.232 87.3262 210.145 87.2328 210.063 87.1352C209.922 86.9671 209.76 86.8101 209.651 86.6224C209.555 86.4567 209.521 86.2552 209.46 86.0693C209.262 86.1684 209.038 86.2365 208.873 86.3754C208.699 86.5212 208.562 86.723 208.447 86.9225C208.274 87.2235 208.23 87.5573 208.393 87.8757C208.457 87.999 208.601 88.0803 208.703 88.1761ZM199.377 86.9255C199.388 86.9475 199.399 86.9698 199.41 86.9921C199.537 86.962 199.666 86.9394 199.791 86.9008C200.671 86.6284 201.404 86.0985 202.124 85.5459C202.821 85.0103 202.82 85.0063 202.139 84.4493C201.833 84.1989 201.743 84.2209 201.484 84.5261C201.395 84.6319 201.233 84.74 201.111 84.7322C201.027 84.7271 200.95 84.5294 200.876 84.4134C200.81 84.3098 200.754 84.2001 200.693 84.0932C200.638 84.2019 200.553 84.3056 200.533 84.421C200.417 85.0883 200.319 85.7617 199.9 86.3229C199.741 86.5353 199.552 86.7251 199.377 86.9255ZM213.306 88.4828C211.94 89.0236 211.54 88.772 211.328 87.8673C210.831 87.9074 210.19 88.3674 210.021 88.8058C209.781 89.4294 210.088 89.9244 210.75 89.9748C210.908 89.9868 211.068 89.9811 211.227 89.9862C211.846 90.0058 212.467 89.947 213.073 90.1745C213.291 90.2564 213.565 90.1878 213.888 90.1878C213.518 89.6424 213.051 89.2101 213.306 88.4828ZM184.086 87.8908C184.344 88.0258 184.534 88.1071 184.704 88.2189C184.887 88.3391 185.072 88.468 185.219 88.6283C185.492 88.9278 185.759 89.001 186.155 88.8281C186.972 88.472 187.265 88.544 187.837 89.1791C188.009 88.5611 188.375 88.0722 188.347 87.4431C188.332 87.1057 188.378 86.8107 188.579 86.5058C188.846 86.1033 189.021 85.6384 189.221 85.194C189.258 85.1133 189.227 85.0015 189.227 84.9039C189.066 84.9874 188.998 85.1064 188.901 85.1901C188.617 85.4354 188.342 85.7026 188.023 85.893C187.729 86.0687 187.404 86.078 187.114 85.8005C186.916 85.6122 186.764 85.6773 186.704 85.9454C186.682 86.0406 186.684 86.141 186.673 86.2389C186.619 86.701 186.339 86.9029 185.879 86.8062C185.748 86.7785 185.618 86.7429 185.489 86.7041C185.188 86.6131 184.975 86.7164 184.891 87.0165C184.777 87.4235 184.619 87.7799 184.086 87.8908ZM204.272 85.2603C204.13 85.4697 204.017 85.6134 203.928 85.7716C203.465 86.5998 202.742 87.0924 201.882 87.4208C201.528 87.5558 201.176 87.7001 200.835 87.8649C200.229 88.1583 199.693 88.5367 199.425 89.1975C199.185 89.7862 199.36 90.4435 199.795 90.8126C200.026 91.0087 200.203 91.2772 200.376 91.5318C200.492 91.7023 200.553 91.9096 200.65 92.0943C200.92 92.6064 201.384 92.7944 201.913 92.5646C202.165 92.4549 202.408 92.2913 202.608 92.1012C203.018 91.7131 203.388 91.2832 203.787 90.884C204.365 90.3068 205 89.8063 205.78 89.5358C206.176 89.3984 206.402 89.1372 206.527 88.7437C206.854 87.7194 207.29 86.7447 207.888 85.8484C207.93 85.7852 207.943 85.702 207.944 85.6978C207.392 85.595 206.847 85.5342 206.327 85.3854C205.811 85.2374 205.822 85.1986 205.544 85.6562C205.289 86.0756 204.818 86.1027 204.523 85.7071C204.437 85.5926 204.38 85.4562 204.272 85.2603ZM198.991 84.2559C198.785 84.3523 198.628 84.4053 198.493 84.4936C198.186 84.6945 197.901 84.9319 197.587 85.1211C196.625 85.702 195.832 85.5941 195.04 84.7957C194.622 84.3734 194.622 84.3734 194.25 84.815C193.369 85.8626 192.834 85.9105 191.785 85.0377C191.635 84.912 191.488 84.7783 191.325 84.6719C191.162 84.5659 190.988 84.4674 190.806 84.4044C190.3 84.2296 189.962 84.4417 189.894 84.9762C189.839 85.4037 189.838 85.84 189.761 86.2627C189.669 86.7652 189.553 87.2687 189.386 87.7504C189.264 88.105 189.262 88.396 189.527 88.666C189.822 88.9679 189.973 89.3222 190.016 89.7491C190.071 90.2866 190.268 90.4667 190.809 90.5523C191.256 90.6231 191.704 90.6912 192.155 90.7292C192.567 90.7638 192.909 90.9147 193.19 91.2169C193.452 91.4989 193.765 91.6676 194.157 91.6725C194.612 91.6782 195.019 91.8132 195.372 92.1147C195.577 92.2901 195.825 92.4025 196.073 92.209C196.325 92.0126 196.424 91.7246 196.336 91.4164C196.263 91.1588 196.147 90.9084 196.019 90.6722C195.602 89.9061 195.667 89.1797 196.186 88.497C196.371 88.2541 196.605 88.0493 196.81 87.8218C197.097 87.5037 197.389 87.1885 197.661 86.8574C197.931 86.5287 198.166 86.1714 198.439 85.8451C198.806 85.4058 199.018 84.9229 198.991 84.2559ZM187.969 113.644C188.041 113.415 188.109 113.186 188.184 112.959C188.348 112.457 188.501 111.952 188.687 111.46C188.753 111.285 188.88 111.119 189.016 110.988C189.502 110.519 190.019 110.083 190.493 109.603C190.967 109.121 191.297 108.548 191.373 107.855C191.386 107.737 191.389 107.619 191.399 107.469C191.241 107.496 191.13 107.515 190.948 107.545C191.035 107.361 191.1 107.223 191.165 107.085C191.474 106.431 191.351 105.752 190.806 105.274C190.467 104.975 190.169 104.668 190.084 104.195C190.073 104.133 189.897 104.039 189.824 104.059C188.795 104.349 187.788 104.689 186.994 105.464C186.617 105.831 186.45 106.247 186.55 106.796C186.628 107.226 186.637 107.677 186.614 108.116C186.586 108.656 186.261 109.027 185.79 109.255C185.401 109.443 185.005 109.627 184.52 109.524C184.64 109.433 184.758 109.339 184.882 109.252C185.513 108.808 185.666 108.293 185.546 107.52C185.482 107.102 185.598 106.656 185.631 106.222C185.656 105.88 185.682 105.538 185.7 105.195C185.713 104.938 185.553 104.9 185.364 104.972C185.068 105.085 184.771 105.204 184.493 105.355C184.138 105.547 183.8 105.77 183.459 105.987C182.954 106.307 182.716 106.805 182.645 107.373C182.586 107.842 182.376 108.172 181.988 108.421C181.331 108.841 180.905 109.451 180.676 110.189C180.52 110.691 180.433 111.215 180.286 111.721C180.211 111.978 180.084 112.222 179.959 112.46C179.674 113.001 179.378 113.536 179.083 114.071C179.021 114.184 178.942 114.287 178.812 114.482C178.75 114.294 178.695 114.202 178.691 114.107C178.661 113.38 178.649 112.666 178.96 111.967C179.095 111.663 179.099 111.267 179.063 110.922C178.987 110.194 179.037 109.54 179.702 109.083C179.778 109.031 179.829 108.935 179.878 108.851C180.08 108.51 180.276 108.167 180.486 107.804C180.206 107.818 179.885 107.824 179.567 107.853C179.119 107.894 178.739 107.795 178.385 107.483C178.157 107.281 177.84 107.181 177.498 107.001C177.769 106.939 178.014 106.863 178.264 106.83C179.037 106.726 179.84 106.739 180.523 106.281C180.804 106.092 181.117 105.9 181.306 105.63C181.946 104.72 182.869 104.387 183.89 104.17C184.866 103.962 185.83 103.692 186.799 103.45C186.882 103.43 186.967 103.399 187.05 103.403C187.419 103.425 187.626 103.218 187.811 102.927C188.227 102.277 188.651 101.631 189.103 101.006C189.28 100.762 189.527 100.562 189.766 100.373C190.137 100.081 190.537 99.9697 190.989 100.229C191.292 100.402 191.552 100.323 191.81 100.067C192.038 99.8399 192.32 99.6534 192.606 99.5039C193.086 99.2533 193.265 98.9514 193.102 98.4715C192.961 98.0557 192.898 97.6089 192.837 97.1708C192.779 96.7581 192.854 96.3878 193.039 95.9766C193.288 95.418 193.146 94.7826 192.784 94.2578C192.363 93.6486 191.729 93.4048 191.03 93.3027C190.873 93.2798 190.713 93.2759 190.554 93.2668C189.913 93.2307 189.862 93.1677 189.78 92.5115C189.735 92.1479 189.681 91.7746 189.557 91.4336C189.298 90.7246 188.496 90.345 187.785 90.5806C187.404 90.7069 187.037 90.8804 186.674 91.0557C186.435 91.1714 186.226 91.1738 185.975 91.0732C185.673 90.9518 185.35 90.8647 185.028 90.8177C184.69 90.7683 184.441 90.6421 184.251 90.3438C183.974 89.9079 183.65 89.5186 183.182 89.2529C182.717 88.9887 182.516 89.0134 182.098 89.3231C181.826 89.5237 181.468 89.7024 181.144 89.7126C180.498 89.7328 179.853 89.6132 179.306 89.2053C179.028 88.998 178.848 88.7497 178.86 88.3689C178.878 87.7739 178.577 87.4307 177.982 87.4289C177.535 87.4277 177.089 87.5497 176.64 87.5811C176.179 87.6136 175.703 87.6733 175.255 87.5955C174.311 87.4316 173.944 86.7155 173.85 85.8415C173.718 84.6053 173.122 83.6816 172.128 82.9652C171.584 82.572 171.058 82.1357 170.597 81.6477C170.287 81.319 170.031 80.8924 169.885 80.463C169.565 79.5243 169.816 78.7111 170.626 78.1097C170.959 77.8627 171.067 77.5518 170.905 77.1722C170.283 75.7131 171.041 74.2645 172.194 73.5339C172.513 73.3314 172.849 73.1374 173.202 73.01C173.965 72.734 174.368 72.183 174.499 71.4087C174.71 70.1596 175.208 69.0617 176.241 68.304C176.8 67.8948 177.426 67.5698 178.05 67.2652C178.642 66.9759 178.794 66.7644 178.578 66.1462C178.248 65.1993 178.151 64.2656 178.684 63.3657C179.352 62.2365 180.337 61.5357 181.621 61.2887C181.764 61.2613 181.955 61.3393 182.084 61.4273C182.254 61.542 182.414 61.6954 182.526 61.8671C182.896 62.4368 183.421 62.4495 183.988 62.3082C184.308 62.2284 184.62 62.1151 184.932 62.009C185.516 61.8117 186.04 61.9415 186.531 62.2835C186.803 62.4724 187.073 62.6655 187.353 62.8403C187.705 63.0593 188.039 63.071 188.412 62.8213C188.678 62.6426 189.007 62.5393 189.323 62.4616C189.729 62.3612 190.08 62.5055 190.297 62.8785C190.598 63.3943 191.04 63.5748 191.619 63.5612C192.503 63.5407 193.14 64.0255 193.433 64.8757C193.464 64.9649 193.519 65.0456 193.562 65.1285C194.001 64.9468 194.205 64.3861 194 63.9529C193.636 63.1819 193.014 62.7637 192.181 62.7116C191.58 62.674 191.113 62.4179 190.687 62.0172C190.456 61.8005 190.2 61.6017 189.928 61.4417C189.525 61.2043 189.124 61.2185 188.732 61.5216C188.31 61.8481 188.242 61.8225 187.82 61.4682C186.868 60.6683 185.787 60.6234 184.671 60.9955C184.036 61.2073 183.446 61.2896 182.846 60.9067C182.596 60.7476 182.5 60.5641 182.517 60.2703C182.58 59.1972 183.16 58.3937 184.318 58.0623C185.188 57.8137 185.732 57.3051 186.095 56.5089C186.584 55.4354 187.371 54.5939 188.351 53.988C189.251 53.4316 190.239 53.0369 191.349 53.2936C191.713 53.3777 191.978 53.1848 192.251 52.9854C193.321 52.2063 194.367 51.3892 195.478 50.6755C196.807 49.8219 198.258 49.1995 199.833 49.0031C200.723 48.8922 201.638 48.9208 202.538 48.9657C203.447 49.0109 204.019 49.5996 204.406 50.385C204.568 50.7159 204.682 51.0729 204.861 51.3934C205.039 51.7113 205.243 52.0243 205.486 52.2931C205.926 52.7793 206.491 52.9043 207.13 52.7814C207.646 52.682 208.168 52.6097 208.689 52.5419C208.893 52.5151 209.105 52.5127 209.31 52.5353C210.095 52.6223 210.205 52.7305 210.36 53.5096C210.477 54.0959 210.736 54.267 211.309 54.2044C212.228 54.1037 212.916 54.5617 213.372 55.292C213.77 55.9304 214.303 56.3016 214.962 56.5845C215.35 56.7517 215.712 56.9957 216.062 57.2392C216.394 57.4709 216.568 57.8089 216.667 58.2168C216.759 58.5892 216.921 58.9598 217.124 59.2855C217.536 59.9468 217.805 60.6527 217.673 61.4227C217.427 62.8598 217.715 64.1813 218.324 65.4744C218.834 66.5566 218.735 67.633 218.134 68.6586C217.827 69.1813 217.58 69.2524 217 69.049C216.104 68.7351 215.189 68.601 214.268 68.9038C214.032 68.9816 213.788 69.165 213.643 69.369C213.219 69.967 212.629 70.1451 211.958 69.8709C211.567 69.7113 211.149 69.6118 210.736 69.5236C210.52 69.4775 210.341 69.4229 210.34 69.178C210.333 67.7255 210.337 66.2727 210.337 64.7413C210.48 64.8266 210.563 64.8631 210.63 64.9179C211.003 65.2183 211.38 65.5135 211.738 65.8302C211.942 66.0097 212.052 65.919 212.181 65.7509C212.309 65.584 212.417 65.4539 212.184 65.2653C211.41 64.6413 210.644 64.0071 209.894 63.3546C209.773 63.2488 209.697 63.0304 209.691 62.8608C209.669 62.1961 209.677 61.5303 209.686 60.8651C209.69 60.5786 209.52 60.5596 209.303 60.552C209.054 60.5436 208.994 60.6665 208.988 60.891C208.975 61.3923 208.941 61.893 208.91 62.4926C208.723 62.3561 208.607 62.2811 208.501 62.1937C207.783 61.5987 207.064 61.004 206.352 60.4014C206.189 60.2637 206.064 60.2255 205.879 60.3782C203.939 61.9801 201.993 63.5745 200.049 65.1719C200.012 65.2023 199.983 65.2433 199.929 65.3038C199.99 65.4024 200.051 65.5039 200.116 65.603C200.271 65.8413 200.431 65.8567 200.649 65.6572C200.942 65.3882 201.261 65.1481 201.626 64.8498C201.641 65.0182 201.654 65.0984 201.654 65.1785C201.658 66.8319 201.661 68.4853 201.664 70.1388C201.664 70.2623 201.666 70.3858 201.657 70.5087C201.634 70.8151 201.502 70.9097 201.264 70.7407C201.009 70.5594 200.768 70.5524 200.508 70.6714C199.877 70.9601 199.25 71.2574 198.622 71.5524C198.479 71.6199 198.343 71.7075 198.194 71.7594C197.692 71.9341 197.465 72.2447 197.456 72.7334C197.822 72.7906 198.173 72.8584 198.527 72.8922C198.625 72.9015 198.769 72.8382 198.831 72.7596C199.056 72.4737 199.249 72.1631 199.465 71.8702C199.672 71.59 199.923 71.5906 200.245 71.7015C200.81 71.8961 201.385 72.0872 202.007 71.9886C202.317 71.9395 202.636 71.9266 202.95 71.9392C203.43 71.9588 203.655 71.8717 203.813 71.4289C204.009 70.8745 204.435 70.6672 204.946 70.5588C205.571 70.4262 206.159 70.5518 206.723 70.8365C207.241 71.099 207.775 71.2424 208.344 71.0074C208.478 70.9525 208.623 70.8941 208.723 70.7962C209.656 69.8857 210.708 69.9818 211.705 70.478C212.364 70.8061 213.055 70.8302 213.568 70.3717C214.536 69.5049 215.487 69.8336 216.471 70.2096C217.078 70.4419 217.5 70.9046 217.84 71.4475C218.036 71.7603 218.231 72.0736 218.419 72.3911C218.888 73.1847 219.585 73.5541 220.494 73.5417C220.763 73.5381 221.033 73.5478 221.302 73.5526C222.236 73.5688 222.972 73.9732 223.532 74.7146C224.098 75.4639 224.388 76.3165 224.428 77.2526C224.446 77.6702 224.431 78.0893 224.431 78.4788C224.746 78.6273 225.055 78.7256 225.311 78.9027C226.398 79.6547 226.759 81.3142 226.141 82.6259C226.057 82.804 225.959 82.9748 225.865 83.1483C225.597 83.6485 225.632 84.0031 226.01 84.4336C226.147 84.5903 226.306 84.7274 226.456 84.8717C227.022 85.4119 227.127 86.0096 226.692 86.6646C226.075 87.5925 225.178 88.1858 224.186 88.6443C224.077 88.6949 223.962 88.7314 223.855 88.7726C224.04 90.2658 222.884 90.8349 221.794 90.8042C221.562 90.7975 221.329 90.775 221.101 90.7328C220.774 90.6725 220.623 90.8015 220.507 91.1142C220.033 92.3952 219.11 93.2253 217.801 93.5241C216.448 93.8329 215.447 93.1734 215.056 91.8379C215.018 91.7089 214.984 91.5788 214.936 91.4073C214.744 91.4073 214.55 91.4091 214.356 91.407C212.916 91.3905 211.506 91.1588 210.115 90.8009C209.23 90.5731 207.688 91.0925 207.188 91.8629C207.005 92.1458 206.893 92.5233 206.881 92.8625C206.852 93.6278 206.668 94.3415 206.408 95.0528C206.158 95.737 205.679 96.0452 204.986 96.0603C204.558 96.0696 204.128 96.0365 203.702 96.0627C202.845 96.1154 202.339 96.6894 202.524 97.5278C202.703 98.3368 202.961 99.1445 203.309 99.8944C203.673 100.682 204.012 101.461 204.168 102.319C204.2 102.489 204.328 102.663 204.456 102.787C204.621 102.948 204.856 103.037 205.018 103.199C205.822 104.001 206.779 103.997 207.79 103.779C208.842 103.552 209.894 103.331 210.95 103.124C211.16 103.083 211.491 102.963 211.546 103.268C211.602 103.575 211.237 103.512 211.052 103.573C210.496 103.759 209.925 103.9 209.369 104.087C209.227 104.135 209.12 104.29 208.997 104.396C209.136 104.496 209.269 104.674 209.414 104.684C209.95 104.725 210.489 104.723 211.027 104.715C211.947 104.702 212.882 104.651 213.73 105.073C214.494 105.454 215.216 105.923 215.956 106.354C216.356 106.586 216.755 106.821 217.156 107.051C217.612 107.314 218.087 107.547 218.518 107.845C218.702 107.973 218.865 108.217 218.917 108.438C219.224 109.737 219.873 110.772 221.042 111.449C221.128 111.499 221.163 111.638 221.222 111.735C221.111 111.76 220.993 111.823 220.891 111.804C220.012 111.642 219.203 111.288 218.483 110.767C218.243 110.592 218.058 110.285 217.942 110C217.646 109.268 217.144 108.809 216.393 108.603C215.938 108.478 215.547 108.257 215.214 107.897C214.927 107.586 214.578 107.329 214.24 107.071C213.863 106.784 213.422 106.75 212.978 106.855C212.603 106.943 212.496 107.176 212.611 107.544C212.643 107.647 212.652 107.759 212.665 107.868C212.672 107.929 212.647 108 212.671 108.051C212.865 108.47 213.049 108.896 213.282 109.293C213.336 109.384 213.568 109.391 213.72 109.398C213.976 109.409 214.233 109.387 214.489 109.384C214.522 109.384 214.554 109.411 214.683 109.469C214.559 109.576 214.467 109.722 214.378 109.72C213.482 109.7 212.584 109.684 211.693 109.602C211.425 109.577 211.152 109.38 210.928 109.202C210.812 109.109 210.784 108.889 210.741 108.721C210.641 108.325 210.657 107.855 210.445 107.539C209.748 106.498 208.894 105.587 207.693 105.133C207.202 104.947 206.655 104.917 206.165 105.209C205.741 105.461 205.757 105.77 206.193 106.004C206.76 106.309 207.006 106.774 207.067 107.428C207.176 108.581 207.743 109.539 208.612 110.271C209.111 110.692 209.695 111.026 210.278 111.325C211.091 111.742 211.622 112.388 211.935 113.218C212.034 113.479 211.995 113.801 211.983 114.093C211.967 114.474 211.921 114.855 211.875 115.234C211.835 115.564 211.97 115.775 212.263 115.909C212.563 116.047 212.861 116.191 213.152 116.349C214.419 117.038 214.798 118.12 214.235 119.458C214.082 119.82 213.921 120.186 213.713 120.516C213.216 121.304 212.979 122.156 212.869 123.082C212.802 123.64 212.557 124.19 212.318 124.708C212.212 124.938 211.948 125.14 211.709 125.25C211.347 125.417 210.994 125.168 211.01 124.765C211.022 124.453 211.094 124.129 211.205 123.836C211.487 123.09 211.608 122.355 211.377 121.562C211.212 120.994 211.29 120.444 211.741 119.986C212.136 119.584 212.176 119.094 211.98 118.578C211.883 118.325 211.785 118.073 211.679 117.824C211.565 117.551 211.367 117.496 211.123 117.66C210.761 117.904 210.591 118.451 210.754 118.878C210.815 119.039 210.933 119.187 210.954 119.351C210.975 119.515 210.957 119.788 210.865 119.837C210.736 119.905 210.465 119.872 210.354 119.771C209.477 118.979 209.081 117.965 209.212 116.791C209.277 116.197 209.487 115.619 209.627 115.033C209.891 113.931 209.17 112.848 208.058 112.66C207.842 112.623 207.629 112.565 207.42 112.499C207.051 112.38 206.862 112.119 206.858 111.725C206.858 111.651 206.85 111.576 206.837 111.504C206.778 111.177 206.628 110.899 206.278 110.857C205.961 110.819 205.803 111.069 205.695 111.329C205.435 111.956 205.175 112.572 205.468 113.279C205.573 113.534 205.574 113.857 205.208 113.984C204.761 114.139 204.493 114.018 204.294 113.632C203.698 112.479 203.92 111.37 204.53 110.327C204.847 109.785 204.839 109.297 204.565 108.798C204.199 108.13 203.8 107.478 203.386 106.838C203.05 106.32 202.55 106.191 201.933 106.378C201.841 105.64 201.198 105.397 200.718 105.013C200.645 104.954 200.376 105.025 200.292 105.121C199.832 105.642 199.702 106.287 199.939 106.915C200.169 107.523 200.012 107.98 199.625 108.397C199.287 108.759 199.222 109.188 199.191 109.644C199.18 109.813 199.183 109.988 199.135 110.148C198.952 110.766 199.244 111.208 199.895 111.262C200.028 111.273 200.169 111.281 200.297 111.249C200.882 111.101 201.331 111.377 201.728 111.737C202.299 112.256 202.654 112.891 202.887 113.657C203.191 114.654 203.051 115.665 203.189 116.66C203.243 117.044 203.241 117.418 203.739 117.538C203.859 117.567 203.924 117.826 204.014 117.979C203.841 118.014 203.667 118.073 203.493 118.077C203.242 118.082 202.986 118.007 202.74 118.038C202.161 118.113 201.917 117.894 201.858 117.311C201.823 116.974 201.647 116.653 201.557 116.319C201.501 116.111 201.434 115.884 201.464 115.679C201.62 114.633 200.957 113.946 200.401 113.231C200.259 113.049 199.905 112.97 199.644 112.962C199.332 112.952 199.246 113.234 199.457 113.478C200.089 114.208 200.369 115.03 200.167 116.003C200.062 116.509 200.091 117.022 200.352 117.479C200.831 118.321 200.758 119.208 200.615 120.107C200.482 120.947 200.34 121.785 200.222 122.627C200.136 123.239 200.267 123.821 200.481 124.4C200.577 124.659 200.624 124.985 200.56 125.249C200.275 126.42 199.921 127.574 199.638 128.745C199.515 129.254 199.472 129.79 199.448 130.316C199.423 130.869 199.451 131.426 199.48 131.98C199.52 132.75 199.113 133.313 198.657 133.856C198.601 133.923 198.507 133.958 198.432 134.007C198.396 133.959 198.367 133.937 198.37 133.923C198.591 132.934 198.216 132.026 197.999 131.096C197.828 130.365 197.896 129.683 198.206 128.975C198.498 128.309 198.657 127.576 198.809 126.858C198.869 126.576 198.794 126.243 198.705 125.958C198.573 125.534 198.507 125.124 198.623 124.688C198.646 124.599 198.59 124.489 198.57 124.388C198.469 124.432 198.33 124.447 198.271 124.524C197.974 124.91 198.029 125.329 198.206 125.748C198.579 126.628 198.508 127.042 197.828 127.719C197.595 127.951 197.337 128.164 197.064 128.344C196.97 128.405 196.77 128.381 196.666 128.317C196.612 128.284 196.622 128.057 196.674 127.954C197.192 126.933 196.952 126.064 196.21 125.26C196.064 125.102 195.995 124.851 195.944 124.63C195.868 124.294 195.857 123.943 195.782 123.608C195.704 123.261 195.829 123.047 196.114 122.87C196.498 122.633 196.891 122.399 197.239 122.113C197.806 121.648 198.163 121.033 198.316 120.309C198.402 119.901 198.353 119.508 198.027 119.22C197.707 118.937 197.324 118.981 196.95 119.106C196.328 119.313 195.721 119.629 195.084 119.716C194.084 119.853 193.063 119.837 191.995 119.809C192.118 119.726 192.23 119.603 192.365 119.568C193.073 119.381 193.779 119.12 194.499 119.067C195.732 118.976 197.395 117.438 197.477 115.877C197.539 114.719 197.406 113.617 196.617 112.679C196.125 112.094 196.041 111.419 196.229 110.662C196.415 109.912 196.458 109.127 196.628 108.372C196.716 107.982 196.952 107.625 196.828 107.198C196.804 107.116 196.795 107.027 196.76 106.95C196.51 106.411 196.434 105.846 196.465 105.256C196.486 104.844 196.334 104.73 195.989 104.947C195.444 105.291 194.947 105.671 194.853 106.417C194.799 106.845 194.564 107.249 194.41 107.663C194.032 108.68 193.667 109.701 192.852 110.477C192.532 110.783 192.539 111.19 192.661 111.585C192.799 112.03 192.771 112.455 192.61 112.887C192.406 113.433 192.56 113.635 193.152 113.62C193.906 113.6 194.574 114.241 194.569 114.997C194.567 115.305 194.548 115.615 194.503 115.919C194.452 116.27 194.444 116.598 194.636 116.919C194.787 117.172 194.663 117.311 194.397 117.261C193.918 117.173 193.443 117.06 192.974 116.929C192.907 116.91 192.842 116.731 192.847 116.63C192.871 116.199 192.93 115.771 192.962 115.34C192.993 114.917 192.89 114.816 192.464 114.818C192.427 114.818 192.391 114.817 192.354 114.82C192.161 114.834 191.969 114.849 191.776 114.863C191.811 115.163 191.739 115.554 191.9 115.745C192.325 116.249 192.115 116.688 191.898 117.142C191.658 117.643 191.238 117.951 190.728 118.149C190.386 118.282 190.046 118.422 189.719 118.587C188.949 118.976 188.325 119.494 188.152 120.414C188.112 120.63 188.06 120.959 187.757 120.885C187.457 120.813 187.661 120.514 187.638 120.312C187.544 119.48 187.881 118.804 188.346 118.16C188.681 117.694 189.104 117.365 189.644 117.18C190.452 116.904 190.745 116.454 190.379 115.679C189.839 114.537 190.135 113.498 190.489 112.422C190.576 112.158 190.61 111.873 190.642 111.595C190.65 111.52 190.567 111.377 190.509 111.367C190.422 111.353 190.293 111.403 190.23 111.47C190.133 111.576 190.088 111.729 190.001 111.846C189.608 112.378 189.229 112.922 188.803 113.425C188.53 113.749 188.371 113.759 187.969 113.644Z" fill="#E7E7E7"/>
</svg>
