<svg width="100%" height="100%" viewBox="0 0 128 188" fill="none" xmlns="http://www.w3.org/2000/svg">
<path d="M38.088 90.6535C36.8078 90.0385 35.3654 89.892 34.4819 90.2352C34.2966 90.3071 34.1768 90.5464 34.0269 90.7084C34.1987 90.8553 34.3569 91.1053 34.5454 91.1302C35.1396 91.208 35.7545 91.2771 36.344 91.206C36.8721 91.142 37.3767 90.8885 38.088 90.6535ZM87.1517 86.7295C87.7416 86.5087 88.2029 86.3464 88.656 86.1636C89.1102 85.9799 89.5652 85.7943 90.002 85.5739C90.273 85.4372 90.511 85.235 90.7637 85.062C90.5737 84.8515 90.3785 84.6449 90.1948 84.4293C89.8786 84.058 89.5156 83.7116 89.2733 83.2961C89.0594 82.9304 88.9833 82.4849 88.8464 82.0745C88.4029 82.2937 87.9011 82.4434 87.5313 82.7511C87.1445 83.073 86.8375 83.5189 86.5796 83.9597C86.1913 84.6244 86.0933 85.3626 86.4598 86.066C86.6018 86.3385 86.9236 86.5182 87.1517 86.7295ZM66.2874 83.966C66.3112 84.015 66.3354 84.0639 66.3592 84.1129C66.644 84.047 66.9336 83.9968 67.2125 83.9115C69.1805 83.31 70.8217 82.1389 72.4315 80.9181C73.9922 79.734 73.9894 79.7257 72.4652 78.4946C71.7805 77.9413 71.5786 77.9902 71.0006 78.6644C70.8003 78.8982 70.4389 79.1368 70.1667 79.1198C69.9763 79.1084 69.8045 78.6719 69.6399 78.4152C69.4927 78.1861 69.3666 77.944 69.2313 77.7074C69.1083 77.9484 68.9183 78.1774 68.8731 78.4318C68.6121 79.9066 68.3931 81.3944 67.4553 82.635C67.1002 83.1046 66.6785 83.5236 66.2874 83.966ZM97.4517 87.4073C94.3951 88.602 93.5002 88.0467 93.0245 86.047C91.9125 86.1359 90.4796 87.1525 90.102 88.121C89.5644 89.4994 90.2511 90.593 91.7328 90.704C92.0863 90.7309 92.4429 90.7179 92.7984 90.7293C94.1833 90.7728 95.5729 90.6428 96.9305 91.1456C97.4184 91.3265 98.0305 91.1744 98.7533 91.1744C97.9242 89.9698 96.8801 89.0144 97.4517 87.4073ZM32.0739 86.0992C32.6519 86.3978 33.076 86.5775 33.4564 86.8247C33.8654 87.0901 34.2804 87.3749 34.6081 87.7288C35.221 88.3903 35.818 88.5527 36.7042 88.1704C38.5303 87.3832 39.1868 87.5428 40.467 88.9461C40.8514 87.5807 41.669 86.5001 41.6071 85.1098C41.5742 84.3645 41.6762 83.7124 42.1272 83.039C42.7231 82.1496 43.1158 81.1227 43.5645 80.1404C43.6462 79.9619 43.576 79.7146 43.576 79.4994C43.2166 79.6834 43.065 79.9461 42.8472 80.1317C42.2109 80.674 41.5956 81.2637 40.8827 81.6851C40.2258 82.0733 39.4971 82.0935 38.848 81.4809C38.4069 81.0642 38.0661 81.208 37.9305 81.8004C37.8825 82.0109 37.8864 82.2329 37.8614 82.4489C37.7424 83.4699 37.114 83.9162 36.0858 83.7025C35.7922 83.6413 35.501 83.5631 35.2138 83.4774C34.5394 83.276 34.0634 83.5043 33.8757 84.1674C33.6211 85.0667 33.2664 85.8547 32.0739 86.0992ZM77.2384 80.2869C76.9214 80.7494 76.6676 81.0674 76.4696 81.4165C75.433 83.2464 73.814 84.3353 71.8896 85.0604C71.0982 85.3586 70.3111 85.6777 69.5487 86.0419C68.1919 86.69 66.9939 87.5262 66.3925 88.9863C65.8565 90.2877 66.2477 91.74 67.2208 92.5556C67.7373 92.9889 68.1328 93.5817 68.5216 94.1449C68.7814 94.5213 68.9179 94.9795 69.1353 95.3875C69.7383 96.5194 70.7773 96.9345 71.9591 96.4266C72.5232 96.1845 73.0678 95.8227 73.5157 95.4033C74.4313 94.5454 75.2592 93.5955 76.1526 92.7136C77.4451 91.4379 78.8673 90.332 80.612 89.734C81.4974 89.4303 82.0028 88.8528 82.2837 87.9839C83.0152 85.7204 83.9903 83.5671 85.328 81.5864C85.4224 81.4465 85.451 81.2625 85.4546 81.2534C84.2184 81.0259 82.9998 80.8916 81.8366 80.5626C80.6814 80.2364 80.706 80.1507 80.0836 81.1618C79.5127 82.0883 78.4591 82.148 77.7986 81.2743C77.6073 81.0208 77.4804 80.7194 77.2384 80.2869ZM65.4233 78.0672C64.9624 78.2801 64.6093 78.397 64.3078 78.5921C63.6207 79.0369 62.9836 79.5614 62.2818 79.9793C60.1281 81.2629 58.3536 81.0243 56.5828 79.2604C55.6461 78.3271 55.6461 78.3271 54.815 79.3031C52.8434 81.6176 51.6481 81.7234 49.3 79.7944C48.9628 79.5175 48.636 79.2217 48.2706 78.9863C47.9068 78.7521 47.5172 78.5345 47.1094 78.3951C45.9784 78.0092 45.2223 78.4776 45.0692 79.6589C44.947 80.6037 44.9446 81.5678 44.7716 82.5015C44.5658 83.6121 44.3055 84.7243 43.9334 85.7891C43.6597 86.5723 43.6557 87.2153 44.2468 87.8121C44.9069 88.4788 45.2457 89.262 45.3433 90.2056C45.4659 91.3928 45.905 91.7914 47.117 91.9805C48.1163 92.1366 49.1195 92.2874 50.1268 92.3712C51.0483 92.4478 51.8155 92.7811 52.4435 93.4486C53.0299 94.0723 53.7297 94.4451 54.6084 94.4558C55.6243 94.468 56.5344 94.7666 57.325 95.4329C57.7848 95.8204 58.3378 96.0688 58.8928 95.6414C59.4573 95.207 59.6802 94.5711 59.4835 93.8898C59.3188 93.3203 59.0598 92.7673 58.7726 92.2456C57.8403 90.552 57.9847 88.9472 59.1479 87.4389C59.5616 86.9021 60.0833 86.4495 60.5431 85.9467C61.1857 85.2441 61.8379 84.5478 62.4465 83.8159C63.0502 83.0896 63.5779 82.3 64.1876 81.5788C65.008 80.6084 65.4836 79.5408 65.4233 78.0672ZM40.7629 143.005C40.9228 142.499 41.0767 141.993 41.2426 141.491C41.6091 140.383 41.9519 139.267 42.368 138.179C42.5156 137.792 42.8012 137.426 43.1059 137.136C44.1913 136.099 45.3492 135.136 46.4085 134.075C47.4688 133.012 48.2091 131.745 48.3781 130.212C48.4067 129.953 48.415 129.692 48.4372 129.361C48.0841 129.42 47.8338 129.462 47.428 129.529C47.622 129.123 47.7676 128.817 47.9132 128.512C48.6042 127.067 48.3285 125.567 47.1106 124.51C46.3513 123.851 45.6845 123.17 45.494 122.127C45.4687 121.989 45.0747 121.781 44.9133 121.825C42.6112 122.466 40.3575 123.218 38.5815 124.929C37.7377 125.742 37.3636 126.66 37.5869 127.872C37.7619 128.823 37.7813 129.821 37.7297 130.791C37.6663 131.982 36.9411 132.804 35.8862 133.307C35.0171 133.722 34.1304 134.129 33.0438 133.9C33.3136 133.7 33.5782 133.493 33.8543 133.301C35.2678 132.32 35.6085 131.182 35.3412 129.473C35.1968 128.55 35.4578 127.564 35.5304 126.606C35.5875 125.85 35.6462 125.093 35.6859 124.335C35.7157 123.769 35.3574 123.683 34.9337 123.843C34.2716 124.093 33.6076 124.356 32.9855 124.689C32.1921 125.114 31.4336 125.606 30.6704 126.085C29.5413 126.794 29.009 127.894 28.8507 129.148C28.7194 130.186 28.2485 130.915 27.3793 131.464C25.9099 132.392 24.9578 133.74 24.4453 135.371C24.0962 136.481 23.9022 137.639 23.5729 138.756C23.4055 139.323 23.1199 139.862 22.8398 140.388C22.2039 141.584 21.5418 142.766 20.8813 143.949C20.742 144.198 20.5643 144.426 20.2739 144.858C20.1347 144.443 20.0129 144.238 20.0041 144.029C19.9363 142.422 19.9089 140.844 20.6048 139.3C20.9082 138.627 20.9166 137.751 20.8356 136.992C20.6651 135.381 20.7781 133.938 22.265 132.927C22.4352 132.811 22.5494 132.599 22.6601 132.414C23.1103 131.662 23.5495 130.903 24.0196 130.101C23.3928 130.132 22.676 130.144 21.9643 130.208C20.9622 130.299 20.1113 130.08 19.3202 129.39C18.8085 128.945 18.0996 128.723 17.3347 128.326C17.9413 128.189 18.4891 128.022 19.0493 127.947C20.7785 127.719 22.5736 127.747 24.1013 126.736C24.7321 126.319 25.4323 125.893 25.8551 125.298C27.2861 123.286 29.3525 122.551 31.6351 122.07C33.8198 121.611 35.9759 121.015 38.1451 120.48C38.3295 120.435 38.5208 120.366 38.7052 120.377C39.5308 120.425 39.9933 119.966 40.4095 119.324C41.3397 117.888 42.2883 116.46 43.2995 115.08C43.695 114.54 44.2476 114.098 44.7832 113.681C45.6123 113.036 46.5076 112.789 47.5196 113.361C48.1972 113.744 48.7788 113.57 49.3548 113.004C49.8653 112.502 50.4961 112.091 51.1368 111.761C52.2111 111.207 52.6105 110.539 52.246 109.479C51.9298 108.56 51.7906 107.573 51.6537 106.605C51.5248 105.693 51.6922 104.875 52.1043 103.966C52.6637 102.732 52.3459 101.327 51.5351 100.168C50.5941 98.8221 49.1755 98.2837 47.6097 98.0578C47.2586 98.0073 46.9004 97.9986 46.5449 97.9788C45.1108 97.8986 44.9978 97.7592 44.8145 96.3093C44.7125 95.506 44.5935 94.6813 44.3146 93.9277C43.7355 92.3613 41.9419 91.5224 40.3508 92.0426C39.4978 92.3214 38.6755 92.7053 37.8642 93.0928C37.3287 93.3483 36.8617 93.3534 36.3016 93.1311C35.626 92.8629 34.9032 92.6705 34.1828 92.5671C33.4263 92.4581 32.8685 92.1784 32.444 91.5196C31.8236 90.5559 31.098 89.6961 30.0519 89.1092C29.0109 88.5254 28.5611 88.5799 27.6252 89.264C27.0183 89.7075 26.2177 90.1021 25.4918 90.1246C24.047 90.1696 22.6038 89.905 21.3803 89.0037C20.7583 88.5456 20.354 87.9974 20.381 87.1557C20.4231 85.8409 19.7487 85.0825 18.4177 85.0786C17.4168 85.0758 16.4187 85.3456 15.4139 85.4151C14.3828 85.4866 13.3177 85.6189 12.3152 85.4471C10.2039 85.0849 9.38235 83.5019 9.17289 81.5713C8.87655 78.8394 7.54283 76.7986 5.32049 75.2148C4.10221 74.3467 2.92478 73.3822 1.89494 72.304C1.20189 71.5776 0.628654 70.6349 0.301372 69.6862C-0.414284 67.6118 0.147054 65.8147 1.9596 64.4865C2.70461 63.9407 2.94462 63.2534 2.58322 62.4149C1.19198 59.1905 2.88908 55.9897 5.46767 54.3751C6.18174 53.9276 6.9323 53.4995 7.72175 53.2174C9.43036 52.6076 10.3313 51.3904 10.6244 49.679C11.0969 46.919 12.2105 44.4931 14.5229 42.8189C15.7717 41.9148 17.1733 41.1964 18.5689 40.5234C19.8939 39.8843 20.2342 39.4171 19.7522 38.0509C19.0132 35.9584 18.795 33.8952 19.9871 31.9069C21.4827 29.4119 23.6868 27.8633 26.5589 27.3175C26.8786 27.257 27.3059 27.4296 27.5959 27.6236C27.9747 27.8771 28.3338 28.216 28.5833 28.5952C29.412 29.8547 30.5878 29.8823 31.8557 29.5699C32.571 29.3938 33.2684 29.1434 33.9678 28.9096C35.2725 28.4731 36.446 28.7599 37.5457 29.5154C38.1538 29.9329 38.7568 30.3595 39.3844 30.7457C40.1715 31.2296 40.9196 31.256 41.7531 30.7039C42.3482 30.3093 43.0849 30.0806 43.7906 29.9088C44.7006 29.6872 45.4845 30.006 45.9709 30.8302C46.6437 31.9705 47.6327 32.369 48.9295 32.339C50.9055 32.294 52.3321 33.3651 52.9882 35.2435C53.0568 35.4406 53.1798 35.6192 53.275 35.802C54.2569 35.4007 54.7139 34.1614 54.2561 33.2048C53.4409 31.5009 52.0504 30.5767 50.1871 30.4614C48.8418 30.378 47.7965 29.8124 46.8421 28.9269C46.3263 28.4486 45.7535 28.0091 45.1457 27.6556C44.244 27.1311 43.3467 27.1618 42.4696 27.8321C41.5246 28.5541 41.3719 28.4972 40.4285 27.7144C38.2986 25.9462 35.8811 25.847 33.3834 26.6697C31.9632 27.1374 30.6422 27.3194 29.2993 26.4734C28.7416 26.1215 28.5246 25.7163 28.5631 25.0674C28.7039 22.6956 30.0023 20.9203 32.5944 20.188C34.539 19.639 35.7577 18.5154 36.5698 16.7558C37.6643 14.3837 39.4241 12.5242 41.6166 11.1853C43.6311 9.95575 45.8408 9.08369 48.3237 9.65085C49.1374 9.83648 49.7309 9.41072 50.3438 8.96994C52.7363 7.2487 55.0773 5.44331 57.5634 3.86584C60.5367 1.9799 63.7838 0.604252 67.3061 0.170585C69.298 -0.0746862 71.3446 -0.011094 73.3578 0.0876463C75.3925 0.187967 76.6727 1.48857 77.5375 3.22403C77.9013 3.9547 78.1548 4.74385 78.5559 5.45201C78.9538 6.15465 79.4112 6.84622 79.955 7.43985C80.9397 8.51454 82.204 8.79101 83.6321 8.51928C84.7865 8.29968 85.9536 8.13972 87.1203 7.98963C87.5773 7.93118 88.0522 7.92526 88.5104 7.97542C90.2674 8.16777 90.5122 8.40632 90.8593 10.128C91.1203 11.4234 91.7011 11.8022 92.9817 11.6636C95.0382 11.4412 96.5786 12.4527 97.5977 14.0669C98.4879 15.4769 99.6812 16.2973 101.155 16.9229C102.025 17.2922 102.833 17.8313 103.617 18.3696C104.361 18.8811 104.748 19.6284 104.971 20.5297C105.176 21.3528 105.539 22.1715 105.993 22.8911C106.915 24.3525 107.517 25.9122 107.222 27.6137C106.671 30.7892 107.315 33.7087 108.679 36.5667C109.819 38.9578 109.598 41.3362 108.252 43.6025C107.567 44.7574 107.013 44.9142 105.716 44.4655C103.711 43.7716 101.664 43.4753 99.6027 44.1444C99.0747 44.3158 98.5288 44.7218 98.2051 45.1725C97.2562 46.494 95.9347 46.887 94.4336 46.2811C93.5608 45.9284 92.6254 45.7092 91.7003 45.5137C91.2159 45.4114 90.8168 45.2918 90.8145 44.7503C90.7998 41.5404 90.8073 38.3302 90.8073 34.9469C91.1287 35.1353 91.3127 35.2159 91.4639 35.3364C92.2973 36.0003 93.1411 36.6528 93.9433 37.3527C94.3975 37.7492 94.645 37.5493 94.9342 37.1777C95.2211 36.8088 95.4627 36.5209 94.9398 36.1046C93.2094 34.7254 91.4948 33.3244 89.8175 31.882C89.5462 31.6486 89.376 31.1656 89.3629 30.7911C89.3125 29.3227 89.3316 27.8511 89.351 26.3814C89.3593 25.7483 88.9793 25.7064 88.4937 25.6898C87.9364 25.6713 87.8027 25.9426 87.7896 26.4387C87.7602 27.5465 87.6845 28.6532 87.6162 29.9775C87.1953 29.6758 86.9363 29.5103 86.6998 29.3172C85.0928 28.0023 83.4845 26.6883 81.8914 25.3573C81.5268 25.0528 81.2467 24.9682 80.833 25.3059C76.4926 28.8456 72.1384 32.3682 67.7897 35.898C67.7068 35.9651 67.6429 36.0556 67.5199 36.1895C67.6576 36.4071 67.7944 36.6314 67.9388 36.8506C68.286 37.3767 68.6454 37.4115 69.1321 36.9703C69.7879 36.3759 70.5024 35.8459 71.3176 35.1863C71.3513 35.5583 71.3807 35.7353 71.3811 35.913C71.3906 39.5664 71.3969 43.2198 71.4025 46.8732C71.4029 47.1457 71.4076 47.4194 71.3866 47.6908C71.335 48.3677 71.0415 48.5763 70.5091 48.2034C69.9366 47.8021 69.3975 47.7871 68.8164 48.0502C67.4053 48.688 66.0025 49.3449 64.5978 49.9969C64.2765 50.1458 63.9722 50.3398 63.6397 50.4539C62.5159 50.8398 62.0089 51.5266 61.9891 52.6064C62.8071 52.7328 63.5921 52.8825 64.3844 52.9572C64.6045 52.9781 64.9251 52.8379 65.0639 52.6641C65.5669 52.033 65.9994 51.3461 66.4837 50.6988C66.9471 50.0795 67.5072 50.0815 68.2276 50.3263C69.4935 50.7568 70.7781 51.1787 72.1717 50.9606C72.8639 50.8524 73.5788 50.8236 74.2798 50.8516C75.3552 50.8947 75.8583 50.7023 76.2098 49.724C76.6501 48.4993 77.6022 48.0411 78.7455 47.8014C80.1435 47.5083 81.4605 47.7855 82.7209 48.4151C83.8816 48.9949 85.0765 49.3121 86.3495 48.7927C86.6479 48.671 86.9728 48.5419 87.1973 48.3255C89.284 46.3139 91.638 46.5264 93.8691 47.6228C95.3436 48.3476 96.89 48.4009 98.0361 47.3878C100.202 45.4727 102.33 46.1986 104.531 47.0296C105.89 47.5426 106.834 48.5656 107.595 49.7651C108.033 50.4563 108.469 51.1483 108.89 51.8501C109.94 53.6033 111.5 54.4197 113.533 54.3925C114.136 54.3846 114.738 54.4059 115.341 54.4166C117.429 54.4525 119.077 55.3455 120.331 56.9846C121.597 58.6399 122.245 60.5238 122.334 62.5923C122.374 63.5153 122.341 64.4415 122.341 65.3017C123.046 65.6303 123.737 65.8475 124.31 66.2381C126.743 67.9001 127.551 71.5674 126.167 74.466C125.979 74.859 125.759 75.2369 125.552 75.6201C124.951 76.7252 125.029 77.5084 125.873 78.4602C126.18 78.8062 126.536 79.1091 126.873 79.4279C128.138 80.6215 128.373 81.9426 127.399 83.3893C126.02 85.4404 124.013 86.7509 121.794 87.7643C121.551 87.8761 121.293 87.9571 121.052 88.0479C121.467 91.347 118.881 92.605 116.442 92.5367C115.924 92.5224 115.4 92.4723 114.891 92.3791C114.16 92.246 113.821 92.5311 113.562 93.2215C112.501 96.0526 110.437 97.8868 107.507 98.5472C104.481 99.2293 102.242 97.7723 101.365 94.8207C101.281 94.5359 101.204 94.2488 101.097 93.8696C100.667 93.8696 100.233 93.8736 99.7994 93.8689C96.5782 93.8321 93.4236 93.3203 90.311 92.5295C88.3307 92.0264 84.8813 93.1741 83.7634 94.876C83.3528 95.5016 83.1037 96.335 83.0747 97.085C83.0093 98.7759 82.5991 100.353 82.0167 101.925C81.457 103.437 80.3875 104.118 78.8355 104.151C77.8783 104.171 76.9171 104.099 75.963 104.156C74.0453 104.273 72.9127 105.541 73.3277 107.394C73.728 109.182 74.3056 110.966 75.0823 112.623C75.8979 114.363 76.6568 116.085 77.0067 117.981C77.0758 118.357 77.3634 118.74 77.6506 119.016C78.0199 119.37 78.544 119.567 78.9081 119.926C80.7064 121.698 82.8478 121.689 85.1102 121.207C87.4623 120.705 89.8175 120.217 92.1787 119.759C92.6484 119.669 93.3887 119.403 93.5136 120.079C93.639 120.755 92.8214 120.616 92.408 120.753C91.1632 121.163 89.8854 121.474 88.6417 121.887C88.3239 121.993 88.0855 122.335 87.8106 122.569C88.1204 122.792 88.418 123.183 88.7433 123.208C89.9409 123.298 91.1485 123.293 92.3517 123.275C94.4102 123.245 96.5024 123.133 98.3987 124.066C100.109 124.908 101.723 125.944 103.379 126.896C104.274 127.409 105.166 127.928 106.064 128.438C107.084 129.017 108.148 129.532 109.112 130.191C109.523 130.473 109.888 131.014 110.005 131.501C110.692 134.371 112.145 136.66 114.759 138.156C114.951 138.266 115.03 138.572 115.162 138.787C114.914 138.843 114.65 138.983 114.42 138.94C112.454 138.581 110.645 137.8 109.035 136.648C108.496 136.262 108.082 135.583 107.824 134.952C107.162 133.336 106.038 132.321 104.358 131.866C103.34 131.59 102.464 131.101 101.72 130.305C101.078 129.618 100.297 129.051 99.5396 128.481C98.6962 127.847 97.7112 127.771 96.7166 128.003C95.878 128.199 95.6388 128.713 95.8951 129.526C95.9677 129.755 95.9863 130.002 96.0161 130.242C96.0327 130.376 95.9768 130.535 96.0295 130.647C96.4643 131.572 96.8745 132.515 97.3966 133.39C97.5176 133.593 98.0369 133.608 98.3769 133.623C98.9489 133.647 99.5241 133.599 100.098 133.592C100.17 133.591 100.243 133.652 100.533 133.779C100.253 134.016 100.047 134.339 99.8482 134.335C97.8441 134.291 95.8356 134.255 93.8413 134.074C93.2427 134.019 92.6314 133.583 92.1311 133.189C91.8713 132.985 91.8086 132.499 91.7126 132.126C91.4877 131.251 91.5238 130.214 91.0493 129.515C89.4891 127.216 87.5797 125.201 84.8924 124.198C83.7948 123.789 82.5705 123.721 81.4744 124.366C80.5259 124.924 80.5616 125.605 81.5359 126.123C82.8042 126.797 83.354 127.825 83.4925 129.27C83.736 131.817 85.0047 133.935 86.9478 135.553C88.0641 136.482 89.3712 137.221 90.676 137.881C92.4957 138.802 93.6834 140.231 94.3836 142.064C94.6038 142.641 94.5181 143.351 94.4903 143.997C94.4538 144.84 94.3507 145.681 94.2483 146.52C94.1595 147.248 94.4606 147.713 95.1171 148.01C95.7887 148.315 96.456 148.633 97.105 148.981C99.9407 150.504 100.79 152.896 99.5281 155.853C99.1869 156.653 98.8275 157.46 98.3606 158.191C97.2482 159.931 96.7178 161.813 96.4723 163.859C96.3239 165.093 95.7753 166.308 95.2401 167.454C95.0033 167.962 94.4134 168.408 93.8782 168.651C93.0666 169.02 92.2783 168.469 92.3128 167.58C92.3394 166.889 92.5009 166.174 92.7492 165.526C93.3803 163.878 93.6509 162.253 93.1352 160.5C92.7662 159.247 92.9404 158.031 93.9492 157.018C94.8331 156.131 94.9227 155.048 94.4832 153.908C94.2678 153.349 94.0472 152.792 93.8116 152.241C93.5545 151.639 93.113 151.517 92.5671 151.88C91.7554 152.418 91.3766 153.626 91.74 154.57C91.8768 154.926 92.1414 155.255 92.1882 155.616C92.2347 155.978 92.1954 156.582 91.9891 156.689C91.7011 156.839 91.0953 156.767 90.8462 156.545C88.8825 154.794 87.9986 152.553 88.2902 149.959C88.4378 148.647 88.9051 147.37 89.2189 146.075C89.8096 143.639 88.1978 141.246 85.7085 140.83C85.2261 140.75 84.7484 140.622 84.2819 140.474C83.456 140.212 83.0327 139.636 83.0244 138.764C83.0228 138.601 83.0069 138.436 82.9775 138.276C82.8446 137.553 82.5094 136.94 81.7263 136.847C81.0166 136.763 80.6636 137.315 80.4216 137.891C79.8404 139.274 79.2588 140.637 79.913 142.199C80.1486 142.761 80.151 143.476 79.3314 143.756C78.3325 144.098 77.7327 143.831 77.2872 142.98C75.9531 140.43 76.4517 137.979 77.816 135.677C78.5261 134.479 78.5079 133.4 77.8946 132.298C77.0738 130.821 76.1828 129.38 75.2553 127.967C74.5027 126.821 73.3856 126.536 72.0043 126.95C71.798 125.32 70.3603 124.781 69.2868 123.933C69.1238 123.804 68.5224 123.961 68.3336 124.172C67.3033 125.322 67.0137 126.749 67.5445 128.136C68.0583 129.479 67.708 130.491 66.8404 131.411C66.0858 132.211 65.9391 133.158 65.8704 134.166C65.845 134.54 65.8514 134.928 65.7455 135.281C65.3361 136.647 65.9894 137.623 67.4441 137.742C67.7421 137.766 68.059 137.784 68.3439 137.713C69.6522 137.386 70.659 137.995 71.5465 138.791C72.8247 139.938 73.6177 141.341 74.1401 143.033C74.8205 145.237 74.5063 147.47 74.8157 149.67C74.9351 150.519 74.9324 151.345 76.0447 151.61C76.3129 151.674 76.4589 152.246 76.6612 152.584C76.2724 152.66 75.8852 152.792 75.4949 152.8C74.9343 152.813 74.3599 152.646 73.8117 152.715C72.5152 152.879 71.969 152.396 71.8365 151.109C71.7595 150.363 71.3652 149.654 71.1641 148.915C71.0391 148.456 70.8872 147.954 70.9558 147.503C71.3057 145.191 69.8208 143.673 68.5763 142.094C68.2586 141.69 67.4664 141.517 66.884 141.498C66.185 141.476 65.993 142.1 66.4655 142.639C67.8793 144.252 68.5065 146.069 68.0539 148.219C67.8186 149.337 67.8845 150.47 68.4673 151.48C69.5399 153.34 69.3773 155.299 69.0568 157.286C68.7576 159.141 68.4407 160.994 68.1769 162.854C67.9849 164.207 68.2776 165.494 68.7564 166.772C68.9715 167.345 69.0758 168.066 68.933 168.647C68.2967 171.235 67.5037 173.785 66.8701 176.374C66.5948 177.499 66.4988 178.681 66.4452 179.844C66.3889 181.066 66.4512 182.297 66.5159 183.522C66.6055 185.224 65.6955 186.467 64.6755 187.667C64.5498 187.815 64.3395 187.893 64.1729 188C64.0908 187.895 64.0253 187.846 64.0325 187.814C64.5272 185.63 63.6885 183.623 63.203 181.568C62.8213 179.954 62.9721 178.447 63.6659 176.883C64.3193 175.41 64.6751 173.79 65.0159 172.203C65.1496 171.581 64.9822 170.846 64.7827 170.214C64.4863 169.278 64.3407 168.373 64.599 167.409C64.6517 167.212 64.5252 166.968 64.4812 166.746C64.2534 166.843 63.9444 166.876 63.8119 167.046C63.1458 167.899 63.2692 168.826 63.6663 169.75C64.5014 171.696 64.3427 172.611 62.8205 174.106C62.2989 174.618 61.7221 175.089 61.1104 175.486C60.9005 175.623 60.4522 175.57 60.2201 175.428C60.1003 175.355 60.1222 174.852 60.2392 174.624C61.3988 172.37 60.8596 170.451 59.2002 168.674C58.8737 168.324 58.7194 167.768 58.606 167.28C58.4338 166.539 58.4116 165.764 58.243 165.022C58.0684 164.256 58.3477 163.783 58.9856 163.392C59.8457 162.867 60.7236 162.35 61.5031 161.719C62.771 160.691 63.5687 159.333 63.9111 157.733C64.1043 156.83 63.9948 155.964 63.2657 155.327C62.5492 154.701 61.6935 154.799 60.8569 155.074C59.4644 155.533 58.1073 156.23 56.6803 156.422C54.4433 156.724 52.1603 156.689 49.7705 156.628C50.0451 156.445 50.2962 156.173 50.5981 156.095C52.1809 155.683 53.761 155.106 55.3716 154.988C58.1315 154.787 61.851 151.389 62.0359 147.939C62.1727 145.382 61.8748 142.946 60.1107 140.872C59.011 139.58 58.8229 138.089 59.2435 136.416C59.6596 134.759 59.7556 133.025 60.1356 131.357C60.3324 130.494 60.8612 129.705 60.5823 128.762C60.5284 128.58 60.5101 128.383 60.4304 128.214C59.8714 127.024 59.702 125.774 59.7699 124.47C59.8171 123.56 59.4783 123.308 58.7055 123.789C57.4876 124.547 56.3753 125.388 56.165 127.036C56.0448 127.98 55.5172 128.874 55.1721 129.79C54.3263 132.037 53.5107 134.293 51.6878 136.008C50.9706 136.683 50.986 137.582 51.2594 138.454C51.5676 139.438 51.5069 140.378 51.1455 141.332C50.6885 142.539 51.0344 142.985 52.3578 142.951C54.0462 142.909 55.5386 144.324 55.5287 145.996C55.5243 146.676 55.4811 147.361 55.3819 148.033C55.2673 148.808 55.2486 149.533 55.6779 150.242C56.0163 150.801 55.7394 151.108 55.1431 150.998C54.0724 150.802 53.0092 150.553 51.9599 150.264C51.8104 150.222 51.664 149.826 51.6767 149.603C51.7307 148.652 51.8612 147.705 51.933 146.754C52.0032 145.819 51.7715 145.595 50.819 145.599C50.7369 145.599 50.6548 145.598 50.5727 145.604C50.1422 145.634 49.7114 145.667 49.281 145.699C49.3576 146.362 49.1969 147.225 49.5575 147.648C50.5092 148.763 50.0375 149.733 49.5531 150.734C49.0168 151.842 48.077 152.523 46.9345 152.96C46.1704 153.253 45.4088 153.563 44.6772 153.928C42.9555 154.787 41.5579 155.932 41.1715 157.966C41.0811 158.442 40.9664 159.169 40.2873 159.006C39.6169 158.846 40.0735 158.186 40.0219 157.74C39.8101 155.9 40.5642 154.407 41.6051 152.983C42.3561 151.955 43.3019 151.228 44.5098 150.82C46.3164 150.208 46.9726 149.214 46.1534 147.501C44.9458 144.978 45.6087 142.683 46.4005 140.306C46.5953 139.722 46.6719 139.092 46.7417 138.477C46.7603 138.313 46.5747 137.996 46.445 137.975C46.2498 137.942 45.9614 138.053 45.8213 138.203C45.6035 138.436 45.5024 138.773 45.3076 139.033C44.4285 140.207 43.5811 141.409 42.629 142.522C42.0173 143.237 41.6607 143.259 40.7629 143.005Z" fill="white"/>
<path d="M127.575 48.8818C127.406 49.7298 127.159 50.8989 126.943 52.0735C126.777 52.9799 126.757 53.9278 126.481 54.7968C125.885 56.6665 124.109 58.0287 122.408 58.1302C121.878 58.1618 121.579 58.0264 121.499 57.4789C121.456 57.1851 121.356 56.8987 121.277 56.61C120.522 53.8477 118.516 52.7422 115.833 52.4459C114.644 52.3148 113.433 52.147 112.302 51.7789C109.179 50.7622 107.997 48.0978 109.26 45.0977C109.967 43.4167 110.756 41.7693 110.804 39.8925C110.849 38.1764 110.561 36.5389 109.811 34.9819C109.3 33.923 109.723 33.2666 110.88 33.4854C114.92 34.2489 118.633 35.7434 121.672 38.6116C122.575 39.4636 122.926 40.5659 123.038 41.7634C123.07 42.1157 123.092 42.4692 123.117 42.8227C123.22 44.2876 123.907 45.2312 125.397 45.6309C127.004 46.0618 127.599 46.9402 127.575 48.8818Z" fill="white"/>
<path d="M87.6216 43.5959H83.8208V39.9734C84.9705 39.9734 86.1324 39.9627 87.2936 39.9899C87.4058 39.9927 87.6038 40.2285 87.6074 40.36C87.6331 41.4122 87.6216 42.4652 87.6216 43.5959Z" fill="white"/>
<path d="M83.7671 39.2107V35.5482C84.9338 35.5482 86.0914 35.5348 87.2478 35.568C87.3704 35.5715 87.5818 35.8464 87.5874 36.0017C87.6203 36.897 87.6338 37.796 87.5786 38.689C87.5675 38.873 87.2446 39.1783 87.0538 39.1874C85.9962 39.236 84.9346 39.2107 83.7671 39.2107Z" fill="white"/>
<path d="M82.9256 35.5556V39.2232C81.7792 39.2232 80.666 39.241 79.5552 39.2023C79.4053 39.1972 79.1478 38.9148 79.1403 38.7516C79.0994 37.8555 79.0951 36.955 79.1435 36.0592C79.153 35.8834 79.4438 35.5852 79.6147 35.5781C80.7001 35.5339 81.7883 35.5556 82.9256 35.5556Z" fill="white"/>
<path d="M76.4281 39.2512C74.4775 39.2512 74.4775 39.2512 74.4775 37.3353C74.4775 35.5722 74.4775 35.5722 76.4309 35.5722C78.3169 35.5722 78.3169 35.5722 78.3169 37.3775C78.3169 39.2512 78.3169 39.2512 76.4281 39.2512Z" fill="white"/>
<path d="M81.0215 43.6511C79.1519 43.6511 79.1519 43.6511 79.1519 41.7577C79.1519 39.978 79.1519 39.978 81.0644 39.978C82.9995 39.978 82.9995 39.978 82.9995 41.8809C82.9995 43.6511 82.9995 43.6511 81.185 43.6511H81.0215Z" fill="white"/>
<path d="M76.3586 43.6733C74.5207 43.6729 74.508 43.6725 74.5243 41.8257C74.5425 39.7371 74.2303 40.0476 76.3463 40.0302C78.3461 40.0136 78.3461 40.0266 78.3461 41.8944C78.3461 43.6737 78.3461 43.6737 76.5221 43.6733C76.4677 43.6733 76.413 43.6733 76.3586 43.6733Z" fill="white"/>
</svg>
