<svg width="100%" height="100%" viewBox="0 0 32 32" fill="none" xmlns="http://www.w3.org/2000/svg">
<path d="M20.3969 30.8855L7.75572 18.2443C7.48091 17.9695 7.28672 17.6718 7.17313 17.3511C7.05771 17.0305 7 16.687 7 16.3206C7 15.9542 7.05771 15.6107 7.17313 15.2901C7.28672 14.9695 7.48091 14.6718 7.75572 14.3969L20.3969 1.75572C20.9008 1.25191 21.542 1 22.3206 1C23.0992 1 23.7405 1.25191 24.2443 1.75572C24.7481 2.25954 25 2.90076 25 3.67939C25 4.45801 24.7481 5.09924 24.2443 5.60305L13.5267 16.3206L24.2443 27.0382C24.7481 27.542 25 28.1832 25 28.9618C25 29.7405 24.7481 30.3817 24.2443 30.8855C23.7405 31.3893 23.0992 31.6412 22.3206 31.6412C21.542 31.6412 20.9008 31.3893 20.3969 30.8855Z" fill="currentColor"/>
</svg>
