<svg width="100%" height="100%" viewBox="0 0 32 32" fill="none" xmlns="http://www.w3.org/2000/svg">
<path d="M14.2824 1.11451L26.9237 13.7557C27.1985 14.0305 27.3927 14.3282 27.5063 14.6489C27.6217 14.9695 27.6794 15.313 27.6794 15.6794C27.6794 16.0458 27.6217 16.3893 27.5063 16.7099C27.3927 17.0305 27.1985 17.3282 26.9237 17.6031L14.2824 30.2443C13.7786 30.7481 13.1374 31 12.3588 31C11.5802 31 10.9389 30.7481 10.4351 30.2443C9.9313 29.7405 9.67939 29.0992 9.67939 28.3206C9.67939 27.542 9.9313 26.9008 10.4351 26.3969L21.1527 15.6794L10.4351 4.96184C9.9313 4.45802 9.67939 3.81679 9.67939 3.03817C9.67939 2.25954 9.9313 1.61832 10.4351 1.11451C10.9389 0.610694 11.5802 0.358778 12.3588 0.358778C13.1374 0.358778 13.7786 0.610694 14.2824 1.11451Z" fill="currentColor"/>
</svg>
