<svg width="100%" height="100%" viewBox="0 0 223 188" fill="none" xmlns="http://www.w3.org/2000/svg">
<path d="M86.7815 75.5063C85.7196 74.9945 84.5236 74.8719 83.7911 75.1581C83.6375 75.218 83.5382 75.417 83.4135 75.5523C83.5565 75.6743 83.6874 75.8828 83.8438 75.9033C84.3367 75.9682 84.8463 76.0259 85.3353 75.9665C85.7734 75.9133 86.1915 75.702 86.7815 75.5063ZM127.467 72.2381C127.956 72.054 128.34 71.9187 128.715 71.7662C129.091 71.6138 129.469 71.4591 129.831 71.2755C130.056 71.1618 130.253 70.9933 130.463 70.8491C130.305 70.6739 130.143 70.502 129.991 70.3223C129.729 70.0129 129.428 69.7241 129.227 69.3786C129.049 69.0736 128.986 68.7027 128.873 68.3606C128.505 68.543 128.089 68.6683 127.782 68.9239C127.461 69.1923 127.207 69.5638 126.993 69.9309C126.671 70.4848 126.59 71.0992 126.893 71.6853C127.011 71.9121 127.278 72.0618 127.467 72.2381ZM110.165 69.9364C110.185 69.9769 110.205 70.0179 110.225 70.059C110.462 70.0035 110.702 69.9619 110.933 69.891C112.565 69.3897 113.926 68.4143 115.261 67.3974C116.555 66.4115 116.553 66.4043 115.288 65.3791C114.721 64.9183 114.554 64.9587 114.074 65.5204C113.908 65.7151 113.608 65.9141 113.383 65.8997C113.225 65.8903 113.083 65.5266 112.946 65.3131C112.824 65.1223 112.719 64.9205 112.607 64.7236C112.505 64.9238 112.347 65.1146 112.31 65.3269C112.093 66.5551 111.912 67.7944 111.134 68.8274C110.84 69.2184 110.49 69.5677 110.165 69.9364ZM136.009 72.8026C133.474 73.7979 132.732 73.3349 132.337 71.6698C131.415 71.7435 130.227 72.5902 129.914 73.397C129.468 74.5448 130.037 75.4558 131.266 75.5484C131.559 75.5706 131.856 75.5601 132.15 75.5695C133.298 75.6055 134.451 75.4974 135.576 75.9161C135.981 76.0669 136.489 75.9405 137.088 75.9405C136.401 74.9368 135.535 74.1411 136.009 72.8026ZM81.7944 71.713C82.2734 71.9614 82.6255 72.1111 82.941 72.3169C83.2798 72.5381 83.6242 72.7754 83.8959 73.0704C84.4038 73.6216 84.899 73.7563 85.6342 73.438C87.1485 72.7826 87.6925 72.9152 88.7543 74.084C89.0732 72.9468 89.7513 72.0468 89.6998 70.889C89.6726 70.268 89.7569 69.7252 90.1311 69.164C90.6252 68.4232 90.9507 67.5676 91.3227 66.7498C91.3904 66.6011 91.3327 66.3954 91.3327 66.2158C91.0344 66.3694 90.9085 66.5884 90.7278 66.7425C90.2005 67.1939 89.6903 67.6857 89.0987 68.0362C88.5542 68.3594 87.9498 68.3766 87.4119 67.8659C87.046 67.5194 86.7632 67.6392 86.6512 68.1327C86.6112 68.3079 86.6146 68.4925 86.5935 68.6727C86.4948 69.5233 85.9741 69.8948 85.1213 69.7168C84.8773 69.6658 84.6367 69.6004 84.3983 69.5289C83.8388 69.3614 83.444 69.5516 83.2882 70.1039C83.0775 70.853 82.783 71.509 81.7944 71.713ZM119.247 66.8717C118.984 67.2571 118.773 67.5216 118.609 67.8127C117.75 69.337 116.407 70.2436 114.812 70.848C114.155 71.0964 113.502 71.362 112.87 71.6653C111.745 72.2054 110.752 72.9018 110.253 74.1178C109.808 75.2013 110.133 76.4112 110.94 77.0905C111.368 77.4514 111.696 77.9455 112.019 78.414C112.234 78.7279 112.347 79.1094 112.527 79.4493C113.027 80.3919 113.889 80.7379 114.869 80.3148C115.337 80.113 115.789 79.8119 116.16 79.462C116.919 78.7479 117.606 77.9566 118.346 77.2219C119.418 76.1595 120.598 75.2385 122.044 74.7405C122.779 74.4877 123.198 74.0069 123.431 73.2828C124.037 71.3975 124.846 69.6037 125.955 67.9541C126.033 67.8377 126.057 67.6846 126.06 67.6769C125.035 67.4878 124.024 67.3758 123.06 67.1019C122.102 66.8296 122.122 66.7581 121.606 67.6004C121.133 68.3722 120.259 68.4221 119.712 67.6941C119.553 67.4833 119.448 67.2322 119.247 66.8717ZM109.449 65.0231C109.067 65.2005 108.774 65.2981 108.524 65.4606C107.955 65.8304 107.426 66.2674 106.844 66.6156C105.058 67.6846 103.587 67.4861 102.118 66.0167C101.342 65.2393 101.342 65.2393 100.652 66.0522C99.0174 67.9802 98.026 68.0683 96.0792 66.462C95.7997 66.2308 95.5286 65.9846 95.2253 65.7888C94.9236 65.5936 94.6009 65.4123 94.2627 65.2964C93.3245 64.9748 92.6973 65.3652 92.5709 66.3489C92.4689 67.1357 92.4672 67.9386 92.3236 68.7165C92.1528 69.6414 91.9371 70.568 91.6288 71.4546C91.402 72.1073 91.3987 72.6429 91.8889 73.1397C92.4362 73.6953 92.7173 74.3474 92.7977 75.1331C92.8997 76.1223 93.264 76.4539 94.2688 76.6114C95.0977 76.7417 95.9295 76.867 96.7645 76.9369C97.5292 77.0006 98.1652 77.2785 98.6858 77.8346C99.1721 78.3536 99.7527 78.6641 100.481 78.673C101.324 78.6835 102.078 78.9319 102.734 79.487C103.115 79.8097 103.574 80.0165 104.034 79.6605C104.502 79.299 104.687 78.7689 104.524 78.2017C104.387 77.7276 104.173 77.2668 103.934 76.8321C103.161 75.422 103.281 74.0851 104.245 72.8287C104.588 72.3817 105.021 72.0047 105.402 71.586C105.935 71.0005 106.476 70.4205 106.98 69.8111C107.481 69.2062 107.919 68.5485 108.424 67.948C109.105 67.1396 109.499 66.2507 109.449 65.0231ZM88.9994 119.111C89.1325 118.689 89.2595 118.267 89.3976 117.849C89.7014 116.927 89.9853 115.997 90.3308 115.09C90.4533 114.768 90.6901 114.464 90.9424 114.222C91.8423 113.359 92.8027 112.556 93.681 111.672C94.5604 110.787 95.1742 109.732 95.3145 108.455C95.3384 108.24 95.345 108.022 95.3633 107.747C95.0706 107.795 94.8632 107.83 94.5266 107.886C94.6874 107.548 94.8083 107.294 94.9292 107.039C95.502 105.836 95.2735 104.587 94.2632 103.706C93.6339 103.157 93.081 102.59 92.923 101.721C92.9019 101.606 92.5753 101.433 92.4412 101.47C90.532 102.003 88.6634 102.63 87.1907 104.055C86.4909 104.732 86.1809 105.496 86.3656 106.506C86.5109 107.299 86.5275 108.129 86.4843 108.937C86.4321 109.93 85.8305 110.614 84.9561 111.033C84.2347 111.378 83.5 111.717 82.5989 111.527C82.8224 111.36 83.042 111.187 83.271 111.028C84.4426 110.211 84.7254 109.263 84.5036 107.839C84.3838 107.07 84.6006 106.25 84.6605 105.452C84.7082 104.821 84.7565 104.191 84.7897 103.56C84.8141 103.088 84.5169 103.017 84.1659 103.15C83.617 103.358 83.0664 103.577 82.5501 103.855C81.892 104.209 81.2632 104.619 80.6305 105.017C79.6939 105.608 79.2526 106.525 79.1212 107.569C79.0125 108.433 78.6221 109.04 77.9013 109.498C76.6831 110.271 75.8929 111.394 75.4682 112.752C75.1787 113.676 75.0179 114.641 74.7446 115.571C74.6059 116.044 74.3692 116.493 74.1368 116.931C73.6095 117.927 73.0606 118.912 72.5127 119.897C72.3974 120.105 72.2499 120.294 72.0092 120.654C71.8939 120.308 71.7924 120.137 71.7852 119.963C71.7292 118.625 71.7065 117.31 72.2837 116.025C72.5355 115.464 72.5421 114.735 72.475 114.102C72.3336 112.76 72.4273 111.558 73.6605 110.716C73.8014 110.62 73.8962 110.443 73.9877 110.289C74.3614 109.662 74.7257 109.03 75.115 108.362C74.5954 108.388 74.001 108.399 73.411 108.452C72.5798 108.527 71.8745 108.346 71.218 107.771C70.7938 107.4 70.206 107.215 69.5717 106.884C70.0752 106.77 70.5293 106.63 70.9934 106.569C72.4273 106.378 73.9161 106.401 75.1832 105.56C75.706 105.212 76.2866 104.857 76.6376 104.362C77.8242 102.686 79.5376 102.074 81.4306 101.674C83.2421 101.291 85.0298 100.794 86.8286 100.349C86.9816 100.311 87.1408 100.254 87.2933 100.263C87.9781 100.303 88.3618 99.9211 88.7067 99.386C89.478 98.19 90.2648 97.0012 91.1032 95.8517C91.4309 95.402 91.8894 95.0338 92.3336 94.6862C93.0212 94.1483 93.7636 93.9437 94.6026 94.42C95.1648 94.7388 95.6467 94.5936 96.1246 94.1222C96.5477 93.7047 97.0712 93.3615 97.6024 93.0865C98.4929 92.6251 98.8245 92.0695 98.5217 91.1862C98.26 90.421 98.1447 89.5987 98.031 88.7925C97.924 88.0328 98.0626 87.3513 98.4047 86.5945C98.8683 85.5664 98.6049 84.397 97.9328 83.4311C97.1521 82.3099 95.9755 81.8613 94.6774 81.6733C94.3863 81.6312 94.0891 81.624 93.7947 81.6074C92.6053 81.5408 92.5116 81.4249 92.3591 80.2173C92.2748 79.548 92.1761 78.861 91.9449 78.2333C91.4647 76.9286 89.9776 76.2299 88.6579 76.6635C87.9509 76.8959 87.2689 77.2152 86.5957 77.538C86.1521 77.7509 85.7645 77.7553 85.2999 77.5701C84.7398 77.3466 84.1404 77.1864 83.5432 77.0999C82.9155 77.009 82.4531 76.7766 82.101 76.2277C81.587 75.4253 80.9854 74.7089 80.1176 74.2199C79.2542 73.7336 78.8811 73.779 78.1053 74.3491C77.6018 74.7184 76.9381 75.0472 76.3359 75.066C75.1382 75.1032 73.9411 74.883 72.9269 74.1323C72.4107 73.7508 72.0758 73.2939 72.098 72.593C72.1329 71.4979 71.574 70.8663 70.47 70.863C69.6399 70.8608 68.8126 71.0853 67.9792 71.143C67.1242 71.2029 66.2409 71.3127 65.4097 71.1696C63.6586 70.868 62.9777 69.5499 62.8036 67.9414C62.5579 65.6663 61.4517 63.9662 59.6091 62.6476C58.5989 61.924 57.6224 61.1211 56.7685 60.2228C56.1935 59.6179 55.7183 58.8327 55.4471 58.0426C54.8538 56.3148 55.319 54.8182 56.8223 53.7114C57.44 53.2568 57.639 52.6845 57.3391 51.9859C56.1857 49.3005 57.5925 46.6345 59.7311 45.2898C60.3233 44.9172 60.9455 44.5601 61.6003 44.3256C63.0171 43.8176 63.7645 42.8035 64.0074 41.3784C64.3988 39.0795 65.3226 37.0589 67.2401 35.6644C68.2759 34.9114 69.4381 34.3131 70.5953 33.7525C71.6943 33.2202 71.9765 32.8309 71.5762 31.6931C70.964 29.9504 70.7827 28.232 71.7714 26.5757C73.0112 24.4975 74.8394 23.2077 77.2209 22.7531C77.486 22.7026 77.8408 22.8462 78.0809 23.0081C78.3953 23.2194 78.6931 23.5016 78.8999 23.8177C79.5869 24.8662 80.5617 24.8895 81.6136 24.6295C82.2063 24.4825 82.7847 24.274 83.3647 24.0788C84.447 23.7157 85.4202 23.9546 86.3318 24.584C86.8358 24.9317 87.336 25.2871 87.8566 25.6087C88.5093 26.0118 89.1297 26.0334 89.8206 25.5737C90.3141 25.2449 90.9252 25.0547 91.5107 24.9117C92.2648 24.727 92.9152 24.9926 93.3184 25.6791C93.8762 26.6284 94.6963 26.9605 95.7714 26.9356C97.4105 26.8979 98.5932 27.7901 99.1372 29.3548C99.1943 29.519 99.2963 29.6676 99.3751 29.8201C100.19 29.4857 100.568 28.4538 100.189 27.6564C99.5126 26.2375 98.3598 25.4679 96.8144 25.3719C95.6994 25.3026 94.8321 24.8313 94.0409 24.0938C93.6128 23.6951 93.1382 23.3292 92.6341 23.0347C91.8861 22.5978 91.142 22.6239 90.415 23.1817C89.6315 23.7827 89.5046 23.7356 88.7222 23.0835C86.9561 21.6114 84.9511 21.5287 82.8801 22.2135C81.7023 22.6033 80.6072 22.7547 79.4938 22.05C79.0308 21.7572 78.8511 21.4195 78.8833 20.8789C78.9997 18.9038 80.0765 17.4249 82.2258 16.815C83.8388 16.3575 84.8491 15.4216 85.5222 13.956C86.4299 11.9804 87.8893 10.4317 89.7075 9.3166C91.3782 8.29246 93.2108 7.56608 95.2696 8.03851C95.9444 8.19321 96.4363 7.83833 96.9442 7.47125C98.9287 6.03734 100.87 4.53356 102.932 3.21997C105.397 1.6491 108.089 0.503518 111.011 0.14199C112.662 -0.0620634 114.36 -0.00938272 116.029 0.0732366C117.717 0.15641 118.778 1.23989 119.495 2.68545C119.796 3.29428 120.007 3.95134 120.339 4.54132C120.669 5.12631 121.048 5.70244 121.5 6.19705C122.316 7.092 123.365 7.3221 124.549 7.09586C125.506 6.91288 126.474 6.77981 127.441 6.65505C127.821 6.6057 128.214 6.60126 128.594 6.64285C130.051 6.8031 130.254 7.00217 130.542 8.43608C130.758 9.51512 131.24 9.83007 132.302 9.71474C134.008 9.52954 135.285 10.3724 136.13 11.7164C136.868 12.8914 137.858 13.5746 139.08 14.0952C139.801 14.403 140.471 14.8521 141.121 15.3001C141.738 15.7265 142.059 16.3487 142.245 17.0995C142.414 17.7848 142.715 18.4668 143.091 19.0662C143.856 20.2833 144.355 21.5825 144.11 22.9998C143.654 25.6447 144.189 28.0767 145.319 30.4566C146.265 32.4483 146.081 34.4295 144.965 36.317C144.396 37.2791 143.937 37.4099 142.862 37.0357C141.199 36.4579 139.501 36.2111 137.792 36.7684C137.354 36.9114 136.902 37.2491 136.634 37.6245C135.847 38.7252 134.751 39.0529 133.506 38.5483C132.782 38.2544 132.006 38.0714 131.24 37.909C130.838 37.8241 130.507 37.7238 130.505 37.273C130.493 34.5998 130.499 31.926 130.499 29.1075C130.765 29.2645 130.918 29.3315 131.043 29.4325C131.735 29.9853 132.434 30.5287 133.099 31.1115C133.476 31.4419 133.681 31.275 133.921 30.9656C134.159 30.6584 134.359 30.4189 133.926 30.0718C132.49 28.9234 131.069 27.7562 129.678 26.5552C129.453 26.3606 129.312 25.9586 129.302 25.6464C129.259 24.4232 129.275 23.1978 129.291 21.9734C129.298 21.4461 128.983 21.4112 128.58 21.3973C128.118 21.3818 128.007 21.608 127.996 22.0211C127.972 22.9438 127.909 23.8654 127.853 24.9688C127.504 24.7176 127.289 24.5795 127.093 24.4187C125.76 23.3236 124.426 22.2291 123.105 21.1201C122.803 20.8667 122.571 20.7963 122.227 21.0774C118.628 24.0256 115.018 26.96 111.412 29.8999C111.343 29.9559 111.29 30.0313 111.188 30.1428C111.302 30.3241 111.415 30.5109 111.535 30.6934C111.823 31.132 112.121 31.1603 112.525 30.7932C113.068 30.298 113.661 29.8561 114.337 29.3071C114.365 29.6171 114.39 29.7646 114.39 29.9121C114.397 32.9551 114.403 35.9982 114.407 39.0412C114.408 39.2686 114.412 39.4959 114.395 39.7222C114.351 40.2861 114.108 40.4602 113.667 40.1491C113.192 39.8153 112.745 39.8026 112.263 40.0216C111.093 40.5528 109.93 41.1001 108.765 41.6429C108.498 41.7671 108.246 41.9285 107.97 42.0239C107.038 42.3455 106.618 42.9171 106.601 43.8165C107.279 43.9219 107.93 44.0466 108.587 44.1087C108.77 44.1259 109.036 44.0095 109.151 43.8648C109.568 43.3386 109.927 42.7669 110.329 42.2279C110.713 41.7122 111.177 41.7133 111.775 41.9174C112.824 42.2756 113.889 42.6271 115.045 42.4458C115.619 42.3554 116.212 42.3316 116.793 42.3549C117.685 42.3909 118.102 42.2307 118.394 41.4156C118.759 40.3953 119.549 40.0138 120.497 39.8142C121.656 39.5702 122.748 39.8015 123.793 40.3254C124.756 40.8084 125.747 41.0724 126.802 40.6398C127.05 40.5389 127.319 40.4314 127.505 40.2511C129.236 38.5755 131.188 38.7524 133.038 39.6656C134.261 40.2694 135.543 40.3138 136.493 39.4699C138.289 37.8746 140.054 38.4796 141.88 39.1716C143.006 39.5991 143.789 40.4508 144.42 41.45C144.783 42.0255 145.145 42.6022 145.494 43.1866C146.365 44.6472 147.658 45.327 149.345 45.3042C149.844 45.2976 150.343 45.3153 150.843 45.3242C152.575 45.3541 153.942 46.0983 154.981 47.4629C156.031 48.8419 156.568 50.4111 156.642 52.1339C156.676 52.9024 156.648 53.6737 156.648 54.3907C157.232 54.6641 157.806 54.8448 158.281 55.1709C160.298 56.5549 160.969 59.609 159.821 62.0233C159.665 62.351 159.483 62.6654 159.31 62.9848C158.813 63.9052 158.877 64.5579 159.577 65.3502C159.832 65.6386 160.127 65.8909 160.406 66.1565C161.456 67.1507 161.65 68.2508 160.843 69.4562C159.699 71.1641 158.035 72.2559 156.195 73.0998C155.993 73.193 155.779 73.26 155.579 73.336C155.924 76.0841 153.778 77.1315 151.756 77.0749C151.327 77.0627 150.893 77.0212 150.47 76.9435C149.864 76.8326 149.583 77.07 149.369 77.6455C148.488 80.0032 146.777 81.5308 144.347 82.0809C141.838 82.6493 139.981 81.4355 139.254 78.9774C139.184 78.7401 139.12 78.5005 139.032 78.185C138.675 78.185 138.315 78.1884 137.956 78.1845C135.285 78.154 132.668 77.7276 130.087 77.0688C128.445 76.6496 125.585 77.6056 124.658 79.0234C124.317 79.5441 124.11 80.2389 124.087 80.8632C124.033 82.2716 123.692 83.5852 123.209 84.8944C122.745 86.1536 121.858 86.7209 120.572 86.7486C119.778 86.7658 118.98 86.7048 118.19 86.7531C116.599 86.8501 115.66 87.9064 116.004 89.4495C116.336 90.9383 116.815 92.4249 117.459 93.8051C118.135 95.254 118.765 96.6879 119.055 98.2682C119.112 98.5804 119.351 98.8997 119.589 99.1293C119.895 99.4248 120.33 99.5884 120.632 99.8873C122.123 101.364 123.899 101.356 125.774 100.954C127.725 100.536 129.678 100.13 131.636 99.7487C132.026 99.6733 132.64 99.452 132.743 100.015C132.847 100.578 132.169 100.463 131.826 100.576C130.794 100.918 129.735 101.177 128.703 101.521C128.439 101.61 128.242 101.895 128.014 102.089C128.271 102.275 128.518 102.601 128.787 102.621C129.781 102.696 130.782 102.692 131.78 102.677C133.486 102.653 135.222 102.559 136.794 103.336C138.212 104.037 139.551 104.9 140.924 105.693C141.666 106.121 142.406 106.553 143.151 106.977C143.996 107.46 144.878 107.889 145.678 108.438C146.019 108.673 146.322 109.123 146.418 109.529C146.988 111.919 148.193 113.826 150.361 115.071C150.52 115.164 150.586 115.418 150.695 115.597C150.489 115.644 150.271 115.76 150.08 115.725C148.45 115.426 146.949 114.775 145.614 113.815C145.167 113.494 144.824 112.929 144.609 112.403C144.06 111.057 143.129 110.211 141.736 109.833C140.892 109.603 140.165 109.196 139.548 108.533C139.016 107.961 138.369 107.488 137.74 107.013C137.041 106.485 136.224 106.422 135.399 106.615C134.703 106.778 134.505 107.207 134.718 107.884C134.778 108.074 134.794 108.28 134.818 108.48C134.832 108.592 134.785 108.724 134.829 108.817C135.19 109.588 135.53 110.373 135.963 111.102C136.063 111.271 136.494 111.283 136.776 111.295C137.25 111.316 137.727 111.277 138.203 111.27C138.263 111.269 138.324 111.32 138.563 111.426C138.332 111.623 138.161 111.893 137.996 111.889C136.334 111.853 134.668 111.823 133.015 111.671C132.518 111.626 132.011 111.263 131.597 110.934C131.381 110.764 131.329 110.36 131.249 110.049C131.063 109.32 131.093 108.456 130.699 107.874C129.406 105.96 127.823 104.282 125.594 103.446C124.684 103.105 123.668 103.049 122.76 103.586C121.973 104.05 122.003 104.618 122.811 105.049C123.862 105.611 124.318 106.466 124.433 107.671C124.635 109.792 125.687 111.555 127.299 112.903C128.224 113.678 129.308 114.292 130.39 114.842C131.899 115.61 132.884 116.8 133.465 118.327C133.647 118.807 133.576 119.399 133.553 119.937C133.523 120.639 133.438 121.339 133.353 122.038C133.278 122.645 133.528 123.032 134.072 123.279C134.63 123.533 135.183 123.798 135.721 124.088C138.073 125.357 138.777 127.349 137.731 129.812C137.448 130.478 137.15 131.15 136.762 131.758C135.84 133.208 135.4 134.776 135.196 136.48C135.073 137.508 134.619 138.519 134.175 139.474C133.979 139.897 133.489 140.268 133.045 140.471C132.372 140.779 131.719 140.319 131.747 139.579C131.77 139.003 131.903 138.408 132.109 137.868C132.632 136.495 132.857 135.142 132.429 133.682C132.123 132.638 132.268 131.626 133.104 130.782C133.837 130.043 133.912 129.141 133.547 128.191C133.368 127.726 133.185 127.261 132.99 126.803C132.777 126.302 132.411 126.201 131.958 126.502C131.286 126.95 130.971 127.957 131.272 128.744C131.386 129.039 131.605 129.313 131.644 129.614C131.683 129.916 131.65 130.419 131.479 130.509C131.24 130.633 130.738 130.573 130.531 130.388C128.903 128.929 128.17 127.063 128.412 124.903C128.534 123.809 128.922 122.746 129.182 121.668C129.671 119.638 128.335 117.645 126.271 117.299C125.871 117.232 125.474 117.125 125.088 117.003C124.403 116.784 124.052 116.304 124.045 115.578C124.044 115.442 124.031 115.305 124.006 115.171C123.896 114.57 123.618 114.059 122.968 113.981C122.38 113.911 122.087 114.371 121.886 114.851C121.404 116.003 120.922 117.138 121.465 118.439C121.66 118.907 121.662 119.502 120.983 119.736C120.154 120.021 119.657 119.799 119.287 119.089C118.181 116.966 118.594 114.925 119.726 113.007C120.314 112.009 120.299 111.111 119.791 110.192C119.111 108.963 118.371 107.762 117.602 106.585C116.979 105.631 116.052 105.393 114.906 105.738C114.736 104.38 113.543 103.932 112.653 103.225C112.518 103.117 112.019 103.248 111.863 103.424C111.008 104.383 110.768 105.571 111.208 106.726C111.634 107.844 111.344 108.687 110.625 109.453C109.999 110.12 109.877 110.909 109.82 111.748C109.799 112.059 109.804 112.383 109.716 112.677C109.377 113.814 109.919 114.627 111.125 114.727C111.372 114.747 111.635 114.762 111.871 114.702C112.956 114.43 113.791 114.938 114.527 115.601C115.587 116.555 116.244 117.724 116.677 119.134C117.242 120.969 116.981 122.829 117.238 124.662C117.337 125.369 117.335 126.057 118.257 126.277C118.48 126.33 118.6 126.807 118.768 127.089C118.446 127.153 118.125 127.262 117.801 127.269C117.336 127.279 116.86 127.14 116.405 127.198C115.331 127.335 114.878 126.933 114.767 125.86C114.703 125.239 114.377 124.649 114.21 124.033C114.106 123.651 113.98 123.233 114.037 122.857C114.327 120.931 113.096 119.667 112.064 118.351C111.801 118.015 111.144 117.871 110.661 117.855C110.081 117.837 109.922 118.356 110.314 118.805C111.486 120.149 112.006 121.662 111.631 123.453C111.436 124.384 111.49 125.328 111.973 126.169C112.863 127.718 112.728 129.35 112.462 131.005C112.214 132.551 111.952 134.094 111.732 135.643C111.573 136.769 111.816 137.841 112.213 138.906C112.392 139.384 112.478 139.984 112.36 140.468C111.832 142.624 111.175 144.747 110.649 146.903C110.421 147.841 110.341 148.826 110.297 149.794C110.25 150.812 110.302 151.837 110.355 152.857C110.43 154.275 109.675 155.31 108.829 156.31C108.725 156.433 108.551 156.498 108.412 156.587C108.344 156.499 108.29 156.459 108.296 156.433C108.706 154.613 108.011 152.941 107.608 151.23C107.292 149.885 107.416 148.63 107.992 147.327C108.534 146.1 108.829 144.751 109.111 143.43C109.222 142.912 109.083 142.299 108.918 141.774C108.672 140.993 108.551 140.239 108.765 139.437C108.809 139.273 108.704 139.07 108.668 138.885C108.479 138.965 108.223 138.993 108.113 139.134C107.561 139.845 107.663 140.617 107.992 141.387C108.685 143.007 108.553 143.77 107.291 145.015C106.858 145.441 106.38 145.833 105.873 146.165C105.698 146.278 105.327 146.234 105.135 146.116C105.035 146.055 105.053 145.636 105.15 145.447C106.112 143.568 105.665 141.97 104.289 140.49C104.018 140.199 103.89 139.736 103.796 139.329C103.654 138.712 103.635 138.066 103.495 137.449C103.35 136.81 103.582 136.416 104.111 136.091C104.824 135.654 105.552 135.223 106.198 134.697C107.25 133.841 107.911 132.71 108.195 131.377C108.356 130.626 108.265 129.904 107.66 129.373C107.066 128.852 106.356 128.934 105.662 129.163C104.508 129.545 103.382 130.126 102.199 130.286C100.344 130.537 98.4507 130.509 96.469 130.458C96.6969 130.305 96.9054 130.078 97.1554 130.013C98.4679 129.67 99.7782 129.189 101.114 129.091C103.402 128.924 106.487 126.094 106.64 123.22C106.754 121.09 106.507 119.061 105.044 117.334C104.132 116.258 103.976 115.016 104.324 113.622C104.67 112.242 104.749 110.797 105.065 109.408C105.228 108.689 105.666 108.033 105.435 107.247C105.39 107.096 105.375 106.932 105.309 106.791C104.846 105.799 104.705 104.759 104.761 103.673C104.8 102.915 104.519 102.704 103.879 103.105C102.868 103.737 101.946 104.437 101.772 105.81C101.672 106.597 101.234 107.34 100.949 108.103C100.247 109.975 99.5708 111.854 98.0587 113.283C97.4643 113.844 97.4771 114.594 97.7038 115.32C97.9595 116.139 97.909 116.923 97.6096 117.717C97.2303 118.722 97.517 119.094 98.6149 119.066C100.015 119.03 101.253 120.209 101.244 121.601C101.241 122.167 101.205 122.738 101.122 123.298C101.027 123.943 101.012 124.548 101.368 125.139C101.648 125.604 101.419 125.859 100.924 125.768C100.037 125.605 99.1549 125.397 98.2849 125.157C98.1607 125.122 98.0393 124.792 98.0498 124.607C98.0948 123.814 98.2029 123.025 98.2622 122.233C98.321 121.454 98.1286 121.268 97.339 121.271C97.2708 121.271 97.2026 121.27 97.1344 121.275C96.7773 121.301 96.4202 121.328 96.0631 121.354C96.1269 121.906 95.9932 122.626 96.2927 122.977C97.0817 123.906 96.6908 124.714 96.2888 125.548C95.8441 126.471 95.0645 127.037 94.1174 127.402C93.4836 127.646 92.852 127.905 92.246 128.208C90.8176 128.923 89.6587 129.877 89.3388 131.571C89.2634 131.968 89.1685 132.573 88.6052 132.438C88.049 132.304 88.4277 131.755 88.385 131.383C88.2098 129.851 88.8347 128.608 89.6981 127.421C90.3208 126.565 91.1048 125.959 92.1068 125.619C93.605 125.11 94.149 124.282 93.4697 122.855C92.4683 120.754 93.0178 118.842 93.6749 116.862C93.8363 116.376 93.8995 115.852 93.9577 115.339C93.9732 115.202 93.8191 114.938 93.7115 114.921C93.5496 114.894 93.3106 114.986 93.1947 115.11C93.0139 115.305 92.9297 115.586 92.7683 115.802C92.0397 116.78 91.3366 117.781 90.547 118.708C90.0397 119.304 89.7441 119.322 88.9994 119.111Z" fill="currentColor"/>
<path d="M160.989 40.7143C160.848 41.4207 160.644 42.3944 160.465 43.3725C160.326 44.1277 160.311 44.9173 160.081 45.6409C159.587 47.1979 158.115 48.333 156.704 48.4173C156.265 48.4439 156.016 48.3308 155.95 47.875C155.914 47.6299 155.831 47.3914 155.766 47.1514C155.14 44.8502 153.476 43.9292 151.252 43.683C150.266 43.5738 149.261 43.4335 148.324 43.1274C145.734 42.2801 144.754 40.0611 145.801 37.5625C146.388 36.1624 147.041 34.7901 147.081 33.227C147.118 31.7975 146.88 30.4334 146.258 29.137C145.834 28.2548 146.185 27.7081 147.145 27.8905C150.494 28.5265 153.573 29.7714 156.094 32.1601C156.842 32.8699 157.134 33.7875 157.226 34.7851C157.253 35.079 157.271 35.3734 157.292 35.6673C157.377 36.8877 157.947 37.6734 159.183 38.0067C160.515 38.3654 161.008 39.0974 160.989 40.7143Z" fill="currentColor"/>
<path d="M100.85 173.914C100.727 177.177 100.6 180.44 100.483 183.703C100.447 184.723 100.435 185.745 100.422 186.766C100.415 187.345 100.033 187.429 99.5911 187.402C99.0677 187.371 99.1731 186.991 99.1975 186.646C99.2834 185.402 99.3572 184.157 99.4331 182.913C99.6671 179.088 99.8983 175.263 100.137 171.438C100.15 171.237 100.193 171.025 100.279 170.846C100.466 170.458 100.765 170.384 100.978 170.786C101.241 171.283 101.495 171.81 101.613 172.354C102.361 175.784 103.075 179.221 103.79 182.659C103.922 183.291 104.01 183.933 104.218 184.573C104.248 184.428 104.295 184.285 104.306 184.138C104.595 180.042 104.88 175.945 105.167 171.848C105.184 171.599 105.127 171.299 105.246 171.114C105.402 170.871 105.683 170.583 105.937 170.556C106.392 170.505 106.543 170.902 106.506 171.301C106.421 172.201 106.272 173.095 106.203 173.996C105.887 178.113 105.594 182.232 105.282 186.35C105.25 186.775 105.191 187.207 105.065 187.611C105.01 187.783 104.765 187.957 104.577 187.999C104.487 188.019 104.259 187.757 104.211 187.589C103.74 185.934 103.234 184.287 102.854 182.61C102.199 179.72 101.627 176.811 101.02 173.91C100.964 173.911 100.907 173.913 100.85 173.914Z" fill="currentColor"/>
<path d="M31.8876 145.516C31.5466 145.929 31.1928 146.333 30.8662 146.759C28.7808 149.475 26.7014 152.196 24.6198 154.916C24.413 155.186 24.2589 155.567 23.9861 155.695C23.7321 155.814 23.3057 155.751 23.039 155.61C22.6786 155.42 22.8826 155.142 23.0867 154.885C24.3116 153.338 25.4976 151.761 26.7408 150.23C28.7419 147.765 30.7769 145.327 32.8003 142.879C32.8862 142.775 32.9821 142.655 33.0997 142.607C33.2727 142.537 33.4912 142.458 33.647 142.51C33.7423 142.542 33.8239 142.827 33.795 142.976C33.6897 143.531 33.6087 144.107 33.3886 144.62C31.9963 147.867 30.5718 151.1 29.1512 154.335C28.9183 154.865 28.6543 155.383 28.4043 155.907C28.4564 155.948 28.5079 155.988 28.5601 156.029C28.6549 155.892 28.7414 155.748 28.8467 155.62C31.4695 152.429 34.0944 149.241 36.7194 146.052C36.8492 145.894 36.9545 145.656 37.1198 145.601C37.382 145.515 37.7713 145.436 37.9459 145.568C38.109 145.69 38.1933 146.17 38.0824 146.354C37.8439 146.749 37.4369 147.039 37.1353 147.402C34.1216 151.035 31.1185 154.677 28.1021 158.308C27.8758 158.58 27.6069 158.85 27.3008 159.016C26.8356 159.267 26.5794 159.074 26.6853 158.559C26.799 158.007 26.9509 157.452 27.1694 156.934C28.6804 153.342 30.213 149.759 31.7379 146.173C31.8233 145.974 31.9053 145.772 31.9885 145.572C31.9552 145.553 31.9214 145.534 31.8876 145.516Z" fill="currentColor"/>
<path d="M159.9 175.576C158.435 171.651 156.97 167.727 155.505 163.803C155.402 163.527 155.295 163.252 155.189 162.977C155.02 162.542 155.033 162.163 155.544 161.98C156.095 161.782 156.285 162.179 156.421 162.575C156.677 163.323 156.869 164.093 157.14 164.835C158.617 168.88 160.11 172.918 161.598 176.958C161.637 177.065 161.716 177.172 161.711 177.276C161.692 177.66 161.646 178.042 161.61 178.425C161.315 178.269 160.931 178.184 160.74 177.945C159.051 175.84 157.377 173.722 155.739 171.576C154.72 170.242 153.773 168.854 152.791 167.491C152.707 167.373 152.604 167.268 152.418 167.207C153.031 168.832 153.604 170.473 154.265 172.079C155.197 174.342 156.196 176.576 157.157 178.826C157.243 179.028 157.377 179.335 157.292 179.454C157.125 179.689 156.836 179.863 156.563 179.981C156.485 180.014 156.217 179.798 156.155 179.648C155.064 176.986 153.954 174.332 152.926 171.646C152.109 169.509 151.395 167.333 150.642 165.173C150.576 164.983 150.531 164.776 150.531 164.577C150.531 164.155 150.796 164.032 151.112 164.248C151.482 164.502 151.843 164.804 152.118 165.154C153.604 167.044 155.096 168.931 156.518 170.869C157.656 172.421 158.697 174.044 159.782 175.636C159.821 175.616 159.861 175.596 159.9 175.576Z" fill="currentColor"/>
<path d="M66.2519 178.972C66.7365 178.73 67.2339 178.588 67.5899 178.282C68.2896 177.681 69.0049 177.057 69.5455 176.319C70.7627 174.656 71.5489 172.773 72.0191 170.763C72.3025 169.553 72.4189 168.343 72.0236 167.136C71.7413 166.274 71.2096 165.649 70.2154 165.357C68.8973 169.883 67.5915 174.37 66.2519 178.972ZM73.5817 168.574C73.5745 170.065 72.9673 171.658 72.4544 173.28C71.7868 175.392 70.6373 177.189 68.9639 178.612C68.2719 179.2 67.4451 179.703 66.5945 180.004C66.1022 180.178 65.4057 179.962 64.8656 179.753C64.4731 179.601 64.3932 179.239 64.7181 178.756C65.2033 178.035 65.602 177.225 65.877 176.4C66.3206 175.07 66.6139 173.691 67.0065 172.343C67.3803 171.061 67.836 169.803 68.1876 168.516C68.5142 167.321 68.7748 166.106 69.0177 164.89C69.1896 164.029 69.4546 163.813 70.3218 163.992C72.6668 164.474 73.6782 165.817 73.5817 168.574Z" fill="currentColor"/>
<path d="M191.818 160.637C191.826 162.048 190.546 163.075 189.212 162.876C187.93 162.684 186.82 162.057 185.97 161.132C184.315 159.333 182.732 157.464 181.181 155.573C180.349 154.558 179.65 153.434 178.878 152.369C178.695 152.116 178.476 151.885 178.245 151.674C177.929 151.388 177.82 151.07 178.081 150.718C178.355 150.35 178.718 150.402 179.036 150.656C179.281 150.853 179.504 151.088 179.695 151.338C181.184 153.284 182.577 155.312 184.173 157.165C185.406 158.596 186.456 160.251 188.147 161.227C188.715 161.555 189.387 161.793 190.035 161.865C190.746 161.946 191.09 161.35 190.832 160.674C190.728 160.4 190.596 160.127 190.424 159.892C189.111 158.1 187.808 156.3 186.459 154.536C184.997 152.625 183.495 150.748 182 148.865C181.682 148.464 181.69 148.057 182.083 147.805C182.453 147.568 182.891 147.678 183.129 148.103C185.072 151.571 187.943 154.348 190.185 157.592C190.673 158.298 191.121 159.036 191.542 159.784C191.713 160.09 191.765 160.465 191.818 160.637Z" fill="currentColor"/>
<path d="M143.984 168.672C144.464 172.963 145.753 176.977 148.11 180.618C148.291 180.897 148.548 181.142 148.813 181.349C149.499 181.887 150.054 181.666 150.114 180.806C150.155 180.223 150.17 179.612 150.043 179.048C149.596 177.063 149.173 175.065 148.571 173.125C147.982 171.227 147.28 169.344 145.982 167.776C145.616 167.334 145.164 166.91 144.529 167.13C143.898 167.347 144.01 167.956 143.985 168.468C143.982 168.535 143.984 168.604 143.984 168.672ZM144.832 165.783C145.307 166.016 145.835 166.179 146.246 166.494C147.561 167.504 148.166 168.996 148.757 170.472C149.952 173.453 150.662 176.572 151.2 179.724C151.321 180.43 151.122 181.26 150.854 181.948C150.496 182.867 149.537 183.179 148.709 182.639C148.025 182.194 147.383 181.589 146.921 180.918C145.663 179.091 144.9 177.016 144.278 174.903C143.747 173.1 143.268 171.279 142.859 169.446C142.716 168.803 142.76 168.082 142.878 167.425C143.063 166.404 143.739 165.928 144.832 165.783Z" fill="currentColor"/>
<path d="M12.1939 143.727C12.1534 144.678 12.4989 144.977 13.1582 144.724C13.7226 144.507 14.276 144.218 14.7717 143.872C16.8816 142.397 18.804 140.696 20.4825 138.747C21.3791 137.706 22.1481 136.55 22.9194 135.408C23.134 135.09 23.2244 134.643 23.2416 134.25C23.2721 133.549 22.783 133.199 22.1188 133.421C21.714 133.557 21.3103 133.74 20.9565 133.976C17.5913 136.23 14.8344 139.081 12.7018 142.523C12.4334 142.957 12.2987 143.472 12.1939 143.727ZM10.9979 143.686C11.1548 143.3 11.3389 142.469 11.788 141.824C12.744 140.453 13.7487 139.093 14.8976 137.884C16.3476 136.36 17.9285 134.953 19.5193 133.571C20.1398 133.033 20.9011 132.604 21.6668 132.296C23.1379 131.703 24.5735 132.777 24.3644 134.35C24.2552 135.174 23.9247 136.029 23.4806 136.735C22.0167 139.064 19.9707 140.88 17.9201 142.672C16.9481 143.521 15.9506 144.354 14.8843 145.076C14.2893 145.479 13.5502 145.775 12.841 145.877C11.6627 146.048 10.9624 145.296 10.9979 143.686Z" fill="currentColor"/>
<path d="M210.812 123.581C212.442 125.844 214.386 127.796 216.487 129.764C217.044 129.14 217.559 128.563 218.129 127.923C215.605 126.425 213.208 125.003 210.812 123.581ZM222.642 129.675C222.417 129.96 222.282 130.253 222.056 130.376C221.898 130.462 221.572 130.377 221.393 130.259C220.731 129.822 220.115 129.316 219.447 128.889C219.279 128.782 218.926 128.783 218.76 128.891C218.385 129.136 218.06 129.465 217.741 129.785C217.079 130.449 217.088 130.469 217.724 131.2C218.275 131.832 218.815 132.473 219.364 133.107C219.673 133.463 219.52 133.708 219.193 133.937C218.869 134.166 218.72 134.012 218.482 133.751C217.05 132.172 215.573 130.635 214.131 129.064C212.4 127.176 210.675 125.281 208.981 123.36C208.613 122.943 208.336 122.423 208.12 121.908C208.038 121.713 208.188 121.348 208.347 121.156C208.435 121.049 208.809 121.058 208.973 121.154C212.838 123.431 216.695 125.724 220.548 128.021C221.073 128.335 221.584 128.675 222.078 129.036C222.281 129.183 222.42 129.418 222.642 129.675Z" fill="currentColor"/>
<path d="M50.7827 168.513C51.9095 165.79 52.9835 163.194 54.0576 160.599L53.8657 160.463C52.1495 162.648 50.4328 164.832 48.6446 167.108C49.4414 167.632 50.0713 168.046 50.7827 168.513ZM45.4225 170.78C45.2334 170.607 45.0177 170.47 44.894 170.275C44.8303 170.174 44.8763 169.928 44.9628 169.818C47.0194 167.226 49.0738 164.631 51.1609 162.062C52.0902 160.919 53.0761 159.821 54.0642 158.729C54.3803 158.379 54.7518 158.047 55.1627 157.829C55.4039 157.702 55.8131 157.728 56.0765 157.845C56.499 158.031 56.2267 158.367 56.1147 158.65C55.5658 160.041 55.0523 161.446 54.4695 162.821C53.1094 166.032 51.7187 169.23 50.333 172.429C50.1334 172.889 49.8673 173.306 49.2529 173.032C48.8437 172.849 48.6507 172.568 48.8997 172.111C49.2579 171.455 49.5712 170.773 49.9599 170.135C50.2305 169.691 50.1428 169.396 49.7658 169.097C47.8456 167.576 48.3119 167.636 46.8974 169.302C46.5603 169.699 46.2026 170.079 45.8444 170.457C45.7391 170.569 45.5988 170.647 45.4225 170.78Z" fill="currentColor"/>
<path d="M190.466 148.763C190.034 147.385 189.579 146.013 189.177 144.627C188.957 143.868 188.81 143.086 188.663 142.309C188.603 141.989 188.637 141.581 189.067 141.612C189.301 141.629 189.646 141.905 189.715 142.132C190.173 143.651 190.594 145.182 190.977 146.721C191.214 147.674 191.695 148.326 192.572 148.857C195.19 150.444 197.743 152.142 200.312 153.809C200.889 154.184 200.956 154.576 200.583 154.963C200.258 155.298 199.995 155.214 199.658 154.93C197.501 153.119 195.314 151.348 192.833 149.984C192.483 149.791 192.124 149.612 191.725 149.404C191.709 150.438 192.155 151.179 192.749 151.858C193.961 153.242 195.175 154.623 196.377 156.014C196.582 156.252 196.809 156.517 196.883 156.806C196.943 157.04 196.866 157.409 196.703 157.569C196.579 157.689 196.142 157.674 195.989 157.546C195.578 157.2 195.218 156.782 194.884 156.356C193.106 154.087 191.371 151.784 189.56 149.543C188.721 148.505 187.741 147.58 186.825 146.604C186.561 146.323 186.226 146.08 186.051 145.752C185.917 145.503 185.985 145.147 185.963 144.839C186.275 144.827 186.668 144.693 186.883 144.832C187.31 145.109 187.671 145.509 188.003 145.906C188.802 146.862 189.567 147.846 190.346 148.818L190.466 148.763Z" fill="currentColor"/>
<path d="M136.659 174.619C136.989 172.804 137.274 171.189 137.58 169.578C137.669 169.112 137.792 168.649 137.947 168.201C138.073 167.84 138.126 167.307 138.711 167.451C139.342 167.606 139.125 168.136 139.048 168.524C138.795 169.79 138.545 171.06 138.202 172.303C137.845 173.599 137.976 174.695 138.733 175.887C140.275 178.313 141.627 180.861 143.045 183.366C143.174 183.593 143.337 183.906 143.271 184.111C143.2 184.33 142.902 184.529 142.66 184.63C142.306 184.776 142.177 184.501 142.031 184.207C140.789 181.692 139.532 179.184 138.262 176.683C138.081 176.325 137.808 176.012 137.533 175.614C137.063 176.441 137.064 177.244 137.258 178.062C137.699 179.913 138.154 181.76 138.596 183.61C138.653 183.851 138.689 184.101 138.703 184.348C138.725 184.74 138.628 185.158 138.181 185.145C137.929 185.138 137.54 184.851 137.467 184.612C137.223 183.814 137.051 182.988 136.928 182.161C136.342 178.213 135.638 174.292 134.342 170.502C134.255 170.246 134.139 169.968 134.165 169.713C134.192 169.437 134.37 169.177 134.483 168.909C134.767 169.03 135.178 169.073 135.309 169.288C135.56 169.701 135.696 170.2 135.803 170.682C136.056 171.809 136.263 172.946 136.491 174.078C136.516 174.198 136.563 174.312 136.659 174.619Z" fill="currentColor"/>
<path d="M117.825 178.913C118.495 178.813 119.158 178.713 119.913 178.6C119.716 176.011 119.521 173.443 119.326 170.875C120.058 170.83 120.344 171.019 120.431 171.741C120.585 173.024 120.676 174.314 120.797 175.601C121.14 179.258 121.484 182.915 121.828 186.573C121.841 186.708 121.909 186.878 121.852 186.973C121.686 187.256 121.513 187.675 121.264 187.74C120.799 187.861 120.697 187.42 120.665 187.037C120.49 184.959 120.32 182.879 120.142 180.8C120.102 180.329 120.035 179.859 119.977 179.362C119.83 179.336 119.7 179.298 119.57 179.291C117.972 179.204 117.868 179.318 118.065 180.893C118.292 182.715 118.522 184.537 118.73 186.361C118.778 186.789 118.972 187.339 118.408 187.527C118.304 187.562 117.834 186.941 117.77 186.581C117.395 184.486 117.013 182.386 116.782 180.272C116.469 177.41 116.285 174.534 116.064 171.663C116.049 171.468 116.139 171.137 116.262 171.091C116.461 171.019 116.771 171.064 116.952 171.184C117.092 171.277 117.151 171.557 117.168 171.76C117.361 174.041 117.537 176.324 117.722 178.606C117.728 178.691 117.776 178.773 117.825 178.913Z" fill="currentColor"/>
<path d="M173.353 154.67C174.278 156.262 175.157 157.774 176.07 159.346C176.765 157.767 175.057 154.809 173.353 154.67ZM176.988 160.68C177.288 161.172 177.589 161.664 177.89 162.156C178.981 163.935 180.075 165.712 181.161 167.495C181.38 167.855 181.711 168.253 181.128 168.585C180.611 168.881 180.394 168.485 180.178 168.127C177.532 163.762 174.894 159.393 172.235 155.037C171.914 154.511 172.024 154.226 172.548 153.977C173.603 153.473 174.545 153.748 175.412 154.394C176.694 155.349 177.296 156.715 177.482 158.242C177.598 159.201 177.952 159.985 178.641 160.62C180.326 162.171 182.028 163.705 183.724 165.245C183.874 165.382 184.07 165.492 184.169 165.66C184.365 165.992 184.747 166.383 184.282 166.731C183.858 167.049 183.425 166.875 183.092 166.478C182.641 165.939 182.23 165.356 181.725 164.872C180.209 163.418 178.656 162.003 177.117 160.572C177.074 160.608 177.031 160.644 176.988 160.68Z" fill="currentColor"/>
<path d="M24.4495 142.775C26.2976 143.026 28.7396 140.478 28.2561 139.321C27.0223 140.44 25.7359 141.608 24.4495 142.775ZM23.361 144.056C23.2324 144.23 23.1198 144.42 22.9729 144.577C21.2861 146.387 19.5966 148.193 17.9032 149.995C17.6231 150.293 17.3293 150.669 16.8907 150.231C16.4859 149.826 16.762 149.5 17.0603 149.185C20.5714 145.478 24.0869 141.776 27.5818 138.054C28.0066 137.602 28.2993 137.626 28.6797 138.062C29.3274 138.802 29.4244 139.652 29.176 140.55C28.7828 141.97 27.8696 143.066 26.5493 143.59C24.8515 144.265 23.8578 145.504 23.1021 147.04C22.3225 148.625 21.5695 150.223 20.7982 151.812C20.6806 152.055 20.5814 152.352 20.3817 152.497C20.1444 152.67 19.8078 152.707 19.5145 152.803C19.4546 152.43 19.3665 152.059 19.3504 151.685C19.3448 151.563 19.5428 151.442 19.6204 151.305C20.9623 148.957 22.2997 146.607 23.6383 144.257C23.5462 144.19 23.4536 144.123 23.361 144.056Z" fill="currentColor"/>
<path d="M79.1411 167.722C78.6099 169.524 78.1097 171.222 77.5913 172.982C79.2414 172.28 80.188 169.154 79.1411 167.722ZM77.2575 174.575C76.8405 176.116 76.4219 177.657 76.0071 179.198C75.7243 180.247 75.4493 181.299 75.1659 182.348C75.0606 182.738 74.9242 183.129 74.3941 182.97C73.9011 182.822 73.9178 182.461 74.0348 182.039C75.4016 177.084 76.769 172.128 78.1081 167.166C78.2794 166.53 78.6027 166.493 79.1023 166.695C80.2329 167.151 80.6737 168.077 80.7646 169.209C80.8922 170.796 80.2794 172.151 79.2852 173.323C78.7186 173.991 78.4629 174.729 78.4613 175.559C78.4574 177.439 78.4895 179.32 78.5189 181.2C78.5278 181.789 78.5938 182.378 78.5971 182.966C78.6004 183.648 78.296 184.058 77.8846 183.99C77.4416 183.917 77.1854 183.393 77.2819 182.798C77.7244 180.067 77.4615 177.331 77.2575 174.575Z" fill="currentColor"/>
<path d="M84.9061 181.266C85.0176 181.045 85.0924 180.937 85.1307 180.816C86.3118 177.079 87.4984 173.344 88.6578 169.601C88.8098 169.109 89.097 168.902 89.5483 168.993C90.0374 169.092 89.9814 169.458 89.8533 169.841C88.3246 174.42 86.8086 179.002 85.2738 183.58C85.0869 184.136 84.8296 184.672 84.5679 185.198C84.4936 185.348 84.2868 185.431 84.1404 185.545C84.0217 185.369 83.8343 185.206 83.7999 185.015C83.74 184.684 83.7633 184.336 83.7722 183.996C83.9069 178.912 84.0389 173.827 84.1992 168.744C84.2058 168.524 84.4747 168.314 84.6217 168.098C84.7853 168.299 85.0625 168.484 85.0919 168.702C85.1867 169.397 85.2372 170.106 85.2189 170.807C85.1302 174.12 85.0132 177.433 84.9067 180.746C84.9023 180.877 84.9061 181.008 84.9061 181.266Z" fill="currentColor"/>
<path d="M8.56563 134.981C11.922 132.748 15.2733 130.507 18.6463 128.299C18.8686 128.153 19.3194 128.139 19.5457 128.27C19.8678 128.455 20.0342 128.82 19.554 129.119C15.1447 131.856 10.7392 134.598 6.32771 137.332C6.06044 137.498 5.76434 137.631 5.46492 137.726C5.32574 137.77 5.07344 137.739 5.00358 137.645C4.92373 137.538 4.93926 137.296 5.00691 137.159C5.11503 136.939 5.29025 136.75 5.45383 136.562C8.88003 132.628 12.3051 128.693 15.7507 124.775C15.8949 124.611 16.2337 124.617 16.4816 124.544C16.476 124.801 16.5747 125.137 16.4483 125.304C15.4912 126.568 14.5275 127.831 13.4945 129.033C11.9713 130.804 10.3894 132.524 8.8329 134.267C8.6854 134.432 8.54456 134.603 8.4004 134.772C8.45529 134.842 8.51074 134.911 8.56563 134.981Z" fill="currentColor"/>
<path d="M203.769 150.455C203.245 150.449 202.345 150.054 201.629 149.442C199.84 147.913 198.102 146.322 196.406 144.691C195.413 143.736 194.529 142.666 193.615 141.63C192.321 140.16 193.065 137.372 194.918 136.74C195.126 136.669 195.379 136.617 195.58 136.672C195.794 136.729 196.055 136.888 196.136 137.072C196.198 137.214 196.056 137.502 195.925 137.656C195.787 137.818 195.564 137.925 195.36 138.011C194.402 138.417 193.966 139.403 194.378 140.353C194.529 140.7 194.735 141.045 194.992 141.322C196.697 143.167 198.39 145.026 200.155 146.812C201.076 147.745 202.121 148.568 203.428 148.941C204.665 149.293 205.343 148.91 205.667 147.693C205.673 147.67 205.681 147.649 205.686 147.627C205.797 147.126 205.911 146.601 206.579 146.632C206.953 146.65 207.198 147.343 207.095 147.974C206.878 149.295 205.552 150.45 203.769 150.455Z" fill="currentColor"/>
<path d="M38.4688 165.699C38.8242 164.632 39.0271 163.48 39.5655 162.515C40.9762 159.986 42.5337 157.539 44.032 155.058C44.1839 154.807 44.3286 154.552 44.48 154.301C45.543 152.538 48.4163 152.426 49.614 154.108C49.7421 154.288 49.878 154.516 49.8769 154.72C49.8758 154.962 49.7942 155.285 49.6257 155.418C49.4987 155.519 49.1533 155.426 48.9531 155.325C48.7651 155.229 48.6298 155.018 48.4895 154.843C47.9234 154.134 46.8538 153.942 46.1191 154.472C45.7947 154.706 45.4836 155.002 45.2679 155.336C43.915 157.425 42.5176 159.491 41.2889 161.652C40.6856 162.713 40.2814 163.933 40.023 165.132C39.6964 166.647 40.5913 167.521 41.9526 167.323C42.1273 167.297 42.3225 167.312 42.4916 167.362C43.0106 167.516 43.1514 168.062 42.73 168.383C42.4727 168.579 42.1339 168.742 41.8173 168.774C40.0779 168.946 38.558 167.487 38.4688 165.699Z" fill="currentColor"/>
<path d="M166.327 176.314C166.245 176.222 165.923 176.015 165.899 175.778C165.883 175.613 166.254 175.283 166.49 175.241C167.856 174.994 168.086 174.711 167.998 173.304C167.903 171.778 167.26 170.49 166.191 169.455C165.151 168.449 163.998 167.56 162.903 166.61C161.638 165.514 160.488 164.332 160.145 162.603C159.969 161.714 160.11 160.873 160.712 160.176C161.152 159.666 161.73 159.399 162.414 159.646C162.582 159.706 162.823 159.954 162.799 160.065C162.756 160.26 162.567 160.508 162.383 160.574C161.41 160.921 161.101 161.426 161.379 162.444C161.755 163.817 162.683 164.81 163.738 165.693C164.607 166.42 165.532 167.082 166.387 167.825C167.935 169.171 169.056 170.785 169.289 172.89C169.502 174.818 168.293 176.335 166.327 176.314Z" fill="currentColor"/>
<path d="M94.4891 171.321C94.2518 173.364 94.0222 175.34 93.7838 177.391C94.035 177.391 94.3732 177.306 94.6316 177.414C94.895 177.523 95.2327 177.801 95.2643 178.041C95.3153 178.427 95.0197 178.758 94.5678 178.644C93.7849 178.446 93.5609 178.765 93.481 179.509C93.2703 181.466 92.9792 183.414 92.7142 185.411C93.3424 185.509 93.928 185.557 94.4847 185.71C94.7175 185.773 94.8894 186.06 95.0891 186.245C94.8811 186.424 94.6699 186.76 94.4658 186.755C93.5925 186.738 92.7131 186.662 91.8558 186.502C91.6817 186.469 91.4538 185.962 91.486 185.704C91.9007 182.35 92.3798 179.005 92.7946 175.652C92.9726 174.216 93.0618 172.767 93.1456 171.322C93.1966 170.436 93.537 170.033 94.4187 170.054C94.91 170.066 95.4229 170.08 95.8809 170.231C96.1027 170.304 96.2208 170.694 96.3855 170.941C96.1221 171.103 95.8748 171.354 95.5909 171.405C95.251 171.467 94.88 171.359 94.4891 171.321Z" fill="currentColor"/>
<path d="M204.074 128.39C206.069 129.86 208.049 131.293 210.001 132.765C211.793 134.117 213.576 135.483 215.32 136.896C216.344 137.727 217.009 138.794 216.894 140.195C216.875 140.415 216.846 140.691 216.709 140.831C216.542 141.002 216.213 141.187 216.032 141.128C215.816 141.057 215.523 140.722 215.539 140.523C215.662 138.958 214.744 137.926 213.671 137.089C210.348 134.495 206.961 131.983 203.597 129.441C203.527 129.388 203.441 129.356 203.343 129.305C203.178 129.566 203.063 129.859 202.853 130.043C202.698 130.179 202.369 130.28 202.208 130.203C202.057 130.132 201.891 129.723 201.964 129.609C202.516 128.736 203.105 127.884 203.737 127.069C203.825 126.955 204.269 126.994 204.444 127.114C204.561 127.195 204.551 127.559 204.494 127.767C204.439 127.971 204.251 128.139 204.074 128.39Z" fill="currentColor"/>
<path d="M112.035 186.448C112.363 186.477 112.601 186.432 112.753 186.527C113.012 186.689 113.216 186.939 113.444 187.152C113.231 187.353 113.028 187.714 112.802 187.73C111.924 187.789 111.034 187.783 110.159 187.7C109.925 187.677 109.726 187.293 109.511 187.075C109.758 186.935 110.014 186.667 110.253 186.68C110.908 186.716 110.956 186.356 110.932 185.872C110.807 183.356 110.669 180.84 110.57 178.322C110.514 176.894 110.522 175.463 110.504 174.033C110.498 173.537 110.503 173.04 110.503 172.498C110.3 172.498 110.155 172.536 110.047 172.489C109.842 172.4 109.503 172.265 109.501 172.143C109.496 171.924 109.661 171.543 109.821 171.506C110.627 171.317 111.452 171.182 112.278 171.118C112.43 171.106 112.744 171.506 112.742 171.713C112.74 171.89 112.383 172.22 112.197 172.21C111.467 172.173 111.431 172.591 111.459 173.121C111.653 176.771 111.851 180.421 112.029 184.071C112.067 184.857 112.035 185.646 112.035 186.448Z" fill="currentColor"/>
<path d="M40.4387 150.005C40.238 149.543 39.8947 149.121 39.9945 148.907C40.2418 148.377 40.7797 148.599 41.1872 148.774C41.6841 148.988 42.1571 149.263 42.625 149.537C42.9744 149.742 43.1745 150.057 42.9283 150.445C42.6816 150.836 42.3317 150.819 42.0035 150.529C41.6153 150.186 41.3675 150.357 41.1335 150.72C40.3355 151.958 39.5182 153.185 38.7281 154.428C37.1017 156.991 35.4882 159.562 33.8447 162.168C33.9678 162.271 34.2101 162.382 34.2899 162.564C34.4114 162.841 34.4995 163.186 34.4363 163.464C34.4114 163.572 33.8485 163.715 33.6833 163.608C32.8909 163.094 32.1296 162.524 31.4088 161.913C31.2635 161.79 31.34 161.405 31.314 161.14C31.5812 161.153 31.9361 161.06 32.0986 161.196C32.6259 161.639 32.9115 161.441 33.2175 160.952C34.1563 159.454 35.0978 157.957 36.0715 156.482C37.2831 154.647 38.5285 152.835 39.7589 151.013C40.0245 150.62 40.2895 150.226 40.4387 150.005Z" fill="currentColor"/>
<path d="M199.099 134.383C198.991 134.513 198.913 134.674 198.785 134.746C198.625 134.836 198.393 134.935 198.249 134.879C198.105 134.824 197.965 134.594 197.94 134.424C197.866 133.918 198.969 132.169 199.469 132.047C199.682 131.995 200.021 132.094 200.168 132.251C200.276 132.367 200.258 132.793 200.137 132.9C199.554 133.41 199.864 133.73 200.293 134.089C203.062 136.404 205.828 138.723 208.589 141.048C209.213 141.574 209.811 142.13 210.449 142.697C210.624 142.537 210.766 142.312 210.957 142.257C211.247 142.174 211.571 142.21 211.879 142.195C211.884 142.489 212.014 142.884 211.871 143.058C211.314 143.738 210.7 144.381 210.04 144.962C209.864 145.117 209.45 145.003 209.144 145.012C209.211 144.732 209.187 144.354 209.363 144.192C209.84 143.751 209.647 143.478 209.261 143.154C207.172 141.406 205.074 139.668 203.01 137.89C201.773 136.824 200.593 135.691 199.386 134.59C199.303 134.515 199.204 134.458 199.099 134.383Z" fill="currentColor"/>
<path d="M12.2093 121.15C11.9077 120.789 11.6104 120.544 11.469 120.229C11.3493 119.963 11.4092 119.615 11.3898 119.304C11.6576 119.347 12.0246 119.294 12.1766 119.45C12.9967 120.291 13.7896 121.163 14.5232 122.079C14.6546 122.244 14.4633 122.666 14.4212 122.969C14.1289 122.886 13.7913 122.868 13.5584 122.703C13.3366 122.546 13.2257 122.234 13.046 121.959C10.5902 123.796 8.16039 125.598 5.74891 127.424C4.3222 128.505 2.93376 129.637 1.50705 130.718C1.11613 131.015 0.671984 131.481 0.142445 130.949C-0.183042 130.621 0.0642605 130.115 0.731314 129.631C4.08599 127.2 7.44288 124.771 10.7903 122.33C11.2766 121.975 11.7191 121.56 12.2093 121.15Z" fill="currentColor"/>
<path d="M167.432 158.5C167.013 158.763 166.71 159.032 166.356 159.147C166.107 159.228 165.79 159.097 165.503 159.061C165.566 158.822 165.55 158.479 165.705 158.362C166.661 157.642 167.638 156.944 168.654 156.314C168.831 156.205 169.229 156.453 169.525 156.536C169.404 156.812 169.341 157.14 169.148 157.349C168.964 157.548 168.645 157.624 168.376 157.758C169.646 160.049 170.871 162.312 172.149 164.545C173.184 166.354 174.286 168.125 175.351 169.917C175.535 170.227 175.761 170.544 175.825 170.885C175.873 171.14 175.768 171.528 175.584 171.686C175.462 171.791 175.031 171.666 174.83 171.519C174.608 171.356 174.47 171.062 174.33 170.806C172.292 167.097 170.263 163.383 168.222 159.676C168.006 159.285 167.724 158.931 167.432 158.5Z" fill="currentColor"/>
<path d="M127.857 36.3115H124.706V33.294C125.659 33.294 126.622 33.2851 127.585 33.3084C127.678 33.3106 127.843 33.5069 127.845 33.6161C127.867 34.4928 127.857 35.3694 127.857 36.3115Z" fill="currentColor"/>
<path d="M124.661 32.6591V29.6083C125.629 29.6083 126.589 29.5972 127.548 29.6249C127.649 29.6282 127.825 29.8572 127.829 29.9864C127.856 30.7317 127.868 31.4808 127.822 32.2243C127.812 32.3779 127.544 32.6325 127.387 32.6397C126.509 32.6801 125.629 32.6591 124.661 32.6591Z" fill="currentColor"/>
<path d="M123.963 29.6147V32.6694C123.012 32.6694 122.089 32.6843 121.168 32.6522C121.043 32.6477 120.83 32.4126 120.824 32.2768C120.79 31.5304 120.786 30.7802 120.827 30.0344C120.834 29.888 121.076 29.6391 121.217 29.6335C122.117 29.5964 123.02 29.6147 123.963 29.6147Z" fill="currentColor"/>
<path d="M118.575 32.6929C116.958 32.6929 116.958 32.6929 116.958 31.097C116.958 29.6287 116.958 29.6287 118.577 29.6287C120.141 29.6287 120.141 29.6287 120.141 31.132C120.141 32.6929 120.141 32.6929 118.575 32.6929Z" fill="currentColor"/>
<path d="M122.384 36.3577C120.833 36.3577 120.833 36.3577 120.833 34.7807C120.833 33.298 120.833 33.298 122.419 33.298C124.024 33.298 124.024 33.298 124.024 34.8833C124.024 36.3577 124.024 36.3577 122.519 36.3577H122.384Z" fill="currentColor"/>
<path d="M118.517 36.376C116.994 36.3754 116.983 36.3754 116.996 34.8372C117.011 33.0972 116.752 33.3556 118.507 33.3412C120.165 33.3279 120.165 33.3384 120.165 34.8944C120.165 36.3765 120.165 36.3765 118.653 36.376C118.608 36.376 118.562 36.376 118.517 36.376Z" fill="currentColor"/>
</svg>
