<svg width="100%" height="100%" viewBox="0 0 32 32" fill="currentColor" xmlns="http://www.w3.org/2000/svg">
<path fill-rule="evenodd" clip-rule="evenodd" d="M14.2842 16.6469L7.57841 14.4116L7.5784 14.4116L7.57837 14.4116C5.22518 13.6272 4.04858 13.235 4.04858 12.5143C4.04858 11.7935 5.22519 11.4013 7.57841 10.6169L25.0086 4.80682C26.6644 4.25489 27.4923 3.97892 27.9293 4.41594C28.3664 4.85295 28.0904 5.68085 27.5385 7.33664L21.7284 24.7669C20.944 27.1201 20.5518 28.2967 19.831 28.2967C19.1103 28.2967 18.7181 27.1201 17.9336 24.7669L15.6984 18.0611L22.0335 11.726C22.424 11.3355 22.424 10.7023 22.0335 10.3118C21.643 9.92125 21.0098 9.92125 20.6193 10.3118L14.2842 16.6469Z" fill="currentColor"/>
</svg>
