<?xml version="1.0" standalone="no"?>
<!DOCTYPE svg PUBLIC "-//W3C//DTD SVG 20010904//EN"
 "http://www.w3.org/TR/2001/REC-SVG-20010904/DTD/svg10.dtd">
<svg version="1.0" xmlns="http://www.w3.org/2000/svg"
 width="700.000000pt" height="700.000000pt" viewBox="0 0 700.000000 700.000000"
 preserveAspectRatio="xMidYMid meet">
<metadata>
Created by potrace 1.14, written by Peter Selinger 2001-2017
</metadata>
<g transform="translate(0.000000,700.000000) scale(0.100000,-0.100000)"
fill="#000000" stroke="none">
<path d="M510 4210 l0 -170 290 0 290 0 0 -735 0 -735 205 0 205 0 0 735 0
735 290 0 290 0 0 170 0 170 -785 0 -785 0 0 -170z"/>
<path d="M2490 3474 l0 -906 503 5 c534 4 555 6 712 59 393 132 631 488 601
903 -21 288 -144 516 -362 666 -70 48 -221 116 -309 138 -137 36 -217 40 -687
41 l-458 0 0 -906z m985 542 c105 -29 185 -74 255 -145 106 -107 150 -223 150
-396 0 -172 -47 -295 -154 -400 -130 -128 -222 -154 -568 -162 l-248 -6 0 568
0 567 253 -5 c190 -3 267 -9 312 -21z"/>
<path d="M4810 3475 l0 -905 205 0 205 0 0 228 0 227 123 129 122 128 290
-356 289 -356 244 0 c194 0 242 3 234 13 -5 6 -183 232 -396 501 l-387 489 29
31 c143 153 681 737 696 754 l19 22 -230 0 -231 0 -398 -420 -399 -421 -3 421
-2 420 -205 0 -205 0 0 -905z"/>
</g>
</svg>
